<?xml version="1.0" standalone="no"?>
<!DOCTYPE svg PUBLIC "-//W3C//DTD SVG 20010904//EN"
 "http://www.w3.org/TR/2001/REC-SVG-20010904/DTD/svg10.dtd">
<svg version="1.0" xmlns="http://www.w3.org/2000/svg"
 width="500.000000pt" height="500.000000pt" viewBox="0 0 500.000000 500.000000"
 preserveAspectRatio="xMidYMid meet">
<metadata>
Created by potrace 1.14, written by Peter Selinger 2001-2017
</metadata>
<g transform="translate(0.000000,500.000000) scale(0.100000,-0.100000)"
fill="#000000" stroke="none">
<path d="M2370 4992 c0 -4 -15 -8 -32 -9 -129 -8 -177 -12 -208 -17 -19 -3
-64 -11 -100 -17 -139 -24 -364 -92 -510 -154 -108 -46 -338 -167 -350 -185
-3 -4 -16 -13 -30 -20 -48 -25 -199 -139 -286 -215 -48 -42 -187 -182 -224
-225 -25 -29 -59 -69 -76 -89 -17 -20 -46 -58 -65 -86 -19 -27 -36 -52 -39
-55 -3 -3 -27 -39 -53 -80 -25 -41 -50 -80 -55 -85 -8 -10 -136 -271 -152
-310 -10 -25 -23 -58 -25 -65 0 -3 -18 -57 -39 -120 -21 -63 -39 -124 -41
-135 -1 -11 -5 -27 -9 -35 -11 -27 -47 -244 -50 -297 -1 -29 -6 -56 -9 -59 -4
-4 -4 -18 -1 -30 4 -13 2 -24 -3 -24 -5 0 -9 -63 -9 -140 0 -77 2 -140 6 -140
3 0 5 -17 6 -38 3 -173 42 -412 98 -597 2 -5 4 -13 5 -17 5 -18 64 -176 76
-203 65 -145 151 -313 166 -325 3 -3 13 -19 22 -35 23 -47 143 -211 218 -300
169 -201 443 -429 649 -541 19 -10 37 -22 40 -25 9 -12 234 -116 317 -148 81
-30 235 -78 283 -87 14 -3 50 -11 80 -19 31 -8 73 -17 94 -21 21 -3 48 -8 60
-10 11 -2 58 -6 104 -9 46 -3 93 -10 105 -14 30 -12 317 -14 317 -3 0 4 21 9
48 11 88 4 147 11 232 26 125 22 143 25 152 31 5 3 24 8 41 11 18 3 37 9 43
14 6 5 13 7 16 4 12 -12 267 84 413 155 567 277 1015 770 1237 1360 22 58 42
112 44 120 2 8 15 57 29 109 14 51 27 105 30 120 27 142 37 206 39 262 2 36 6
71 10 78 4 6 4 15 1 21 -3 6 -2 10 4 10 13 0 13 303 0 337 -5 14 -12 62 -14
107 -3 45 -16 133 -30 196 -14 63 -27 126 -29 140 -6 33 -74 249 -83 264 -4 6
-8 13 -8 16 -1 29 -160 356 -185 380 -3 3 -11 17 -17 33 -7 15 -17 27 -23 27
-5 0 -10 5 -10 12 0 17 -105 168 -160 229 -8 9 -37 42 -63 73 -86 99 -213 221
-292 281 -22 16 -44 35 -50 41 -5 7 -68 51 -140 99 -142 94 -378 215 -520 265
-49 18 -99 36 -110 41 -28 12 -262 67 -310 74 -23 3 -52 8 -65 11 -14 3 -65 7
-114 10 -49 3 -96 9 -105 13 -20 11 -291 13 -291 3z"/>
</g>
</svg>
