<?xml version="1.0" encoding="UTF-8"?>
<!-- Generator: visioncortex VTracer 0.6.4 -->
<svg version="1.1" xmlns="http://www.w3.org/2000/svg" width="1600" height="1200">
<path d="M0 0 C2.15 -0 4.3 -0.01 6.44 -0.01 C12.3 -0.02 18.16 -0.01 24.01 -0.01 C30.34 -0 36.68 -0.01 43.01 -0.02 C54.68 -0.02 66.36 -0.02 78.03 -0.02 C88.82 -0.01 99.6 -0.01 110.39 -0.01 C111.11 -0.01 111.82 -0.01 112.56 -0.01 C115.47 -0.01 118.39 -0.02 121.3 -0.02 C148.58 -0.02 175.86 -0.02 203.13 -0.01 C227.34 0 251.54 0 275.75 -0.01 C302.98 -0.02 330.21 -0.02 357.44 -0.02 C360.35 -0.01 363.26 -0.01 366.16 -0.01 C366.88 -0.01 367.59 -0.01 368.33 -0.01 C379.11 -0.01 389.88 -0.01 400.66 -0.02 C412.92 -0.02 425.18 -0.02 437.44 -0.01 C443.69 -0.01 449.94 -0 456.19 -0.01 C461.92 -0.02 467.65 -0.01 473.38 -0 C475.44 -0 477.51 -0 479.57 -0.01 C514.48 -0.08 542.62 7.71 567.79 32.78 C573.21 38.43 573.21 38.43 573.21 41.25 C573.87 41.25 574.53 41.25 575.21 41.25 C576.74 43.43 578.11 45.59 579.46 47.88 C579.86 48.56 580.26 49.24 580.67 49.94 C594.53 73.9 595.37 97.56 595.34 124.51 C595.34 126.61 595.34 128.71 595.34 130.81 C595.34 136.55 595.34 142.28 595.34 148.01 C595.34 154.21 595.34 160.41 595.34 166.61 C595.35 178.03 595.35 189.46 595.34 200.89 C595.34 211.45 595.34 222.01 595.34 232.57 C595.34 233.62 595.34 233.62 595.34 234.69 C595.34 237.54 595.34 240.39 595.34 243.24 C595.35 269.95 595.34 296.65 595.34 323.36 C595.33 347.05 595.33 370.74 595.34 394.44 C595.34 421.09 595.35 447.75 595.34 474.41 C595.34 477.25 595.34 480.1 595.34 482.94 C595.34 483.64 595.34 484.34 595.34 485.06 C595.34 495.61 595.34 506.16 595.34 516.71 C595.35 528.71 595.35 540.71 595.34 552.72 C595.34 558.84 595.34 564.95 595.34 571.07 C595.34 576.68 595.34 582.29 595.34 587.9 C595.34 589.92 595.34 591.94 595.34 593.96 C595.35 603.24 595.29 612.5 594.76 621.77 C594.7 622.8 594.7 622.8 594.64 623.85 C594.32 628.87 593.57 633.57 592.08 638.38 C591.87 639.12 591.65 639.86 591.42 640.62 C584.75 662.3 571.78 680.06 554.21 694.25 C553.5 694.83 552.79 695.41 552.06 696.01 C540.83 704.55 525.31 711.2 511.33 713.38 C509.98 713.6 509.98 713.6 508.59 713.82 C507.48 713.97 506.36 714.11 505.21 714.25 C504.55 714.34 503.88 714.42 503.2 714.51 C493.33 715.59 483.43 715.4 473.52 715.39 C471.4 715.39 469.29 715.39 467.18 715.39 C461.38 715.4 455.59 715.4 449.8 715.4 C443.54 715.4 437.29 715.4 431.03 715.41 C418.79 715.42 406.54 715.42 394.29 715.42 C384.33 715.42 374.38 715.42 364.42 715.43 C361.55 715.43 358.68 715.43 355.81 715.43 C354.74 715.43 354.74 715.43 353.65 715.43 C333.59 715.44 313.53 715.44 293.47 715.44 C292.72 715.44 291.96 715.44 291.18 715.44 C287.35 715.44 283.52 715.44 279.69 715.44 C278.93 715.44 278.17 715.44 277.39 715.44 C275.85 715.44 274.31 715.44 272.77 715.44 C248.84 715.44 224.92 715.45 200.99 715.46 C174.09 715.48 147.18 715.48 120.28 715.48 C117.41 715.48 114.54 715.48 111.67 715.48 C110.96 715.48 110.25 715.48 109.53 715.48 C98.17 715.48 86.82 715.49 75.46 715.5 C64.04 715.51 52.62 715.51 41.2 715.5 C35.02 715.5 28.84 715.5 22.66 715.51 C17 715.51 11.33 715.51 5.66 715.5 C3.62 715.5 1.58 715.5 -0.46 715.51 C-16.26 715.55 -31.55 714.83 -46.79 710.25 C-47.89 709.93 -48.99 709.6 -50.12 709.27 C-62.4 705.26 -75.46 698.38 -84.79 689.25 C-84.79 688.59 -84.79 687.93 -84.79 687.25 C-85.35 687.03 -85.91 686.8 -86.49 686.57 C-101.43 678.04 -111.07 656.65 -115.88 640.8 C-119.73 625.8 -120.23 610.64 -120.17 595.24 C-120.17 593.09 -120.17 590.94 -120.18 588.8 C-120.19 582.95 -120.18 577.11 -120.17 571.26 C-120.16 564.93 -120.17 558.61 -120.17 552.28 C-120.18 540.63 -120.18 528.97 -120.17 517.32 C-120.16 506.55 -120.15 495.79 -120.15 485.02 C-120.15 484.3 -120.15 483.59 -120.15 482.85 C-120.15 479.94 -120.15 477.03 -120.16 474.13 C-120.16 446.9 -120.15 419.67 -120.13 392.45 C-120.11 368.28 -120.1 344.12 -120.11 319.95 C-120.11 318.4 -120.11 316.85 -120.11 315.29 C-120.11 314.53 -120.11 313.76 -120.11 312.97 C-120.11 309.1 -120.11 305.24 -120.11 301.38 C-120.11 300.61 -120.11 299.85 -120.11 299.06 C-120.12 278.84 -120.11 258.61 -120.1 238.39 C-120.1 236.21 -120.1 234.03 -120.1 231.85 C-120.1 230.41 -120.1 228.97 -120.1 227.52 C-120.09 217.47 -120.09 207.42 -120.09 197.38 C-120.1 184.43 -120.09 171.48 -120.08 158.53 C-120.07 152.29 -120.07 146.05 -120.07 139.81 C-120.07 134.09 -120.07 128.38 -120.06 122.66 C-120.05 120.6 -120.05 118.54 -120.06 116.47 C-120.11 87.09 -114.59 60.65 -95.79 37.25 C-95.25 36.57 -94.72 35.89 -94.16 35.19 C-79.3 17.05 -55.01 3.64 -31.68 1.14 C-30.9 1.05 -30.13 0.97 -29.33 0.88 C-19.56 -0.08 -9.8 -0.02 0 0 Z M-35.79 90.25 C-41.04 97 -44.24 104.14 -46.79 112.25 C-47.12 113.24 -47.45 114.23 -47.79 115.25 C-47.89 117.89 -47.93 120.51 -47.93 123.15 C-47.93 123.96 -47.93 124.78 -47.93 125.62 C-47.94 128.38 -47.94 131.14 -47.94 133.9 C-47.94 135.89 -47.95 137.88 -47.95 139.87 C-47.96 145.36 -47.96 150.84 -47.97 156.33 C-47.97 162.24 -47.98 168.15 -47.99 174.06 C-48.01 187.67 -48.02 201.28 -48.03 214.89 C-48.03 221.61 -48.04 228.34 -48.04 235.07 C-48.06 258.09 -48.07 281.12 -48.08 304.14 C-48.08 305.59 -48.08 307.04 -48.08 308.48 C-48.08 309.2 -48.08 309.92 -48.08 310.65 C-48.08 314.29 -48.09 317.92 -48.09 321.55 C-48.09 322.27 -48.09 323 -48.09 323.74 C-48.1 347.1 -48.12 370.47 -48.15 393.83 C-48.19 418.53 -48.21 443.24 -48.21 467.94 C-48.21 470.65 -48.21 473.37 -48.21 476.08 C-48.21 476.75 -48.21 477.42 -48.21 478.11 C-48.21 488.18 -48.23 498.26 -48.24 508.34 C-48.27 519.81 -48.27 531.27 -48.26 542.74 C-48.26 548.59 -48.26 554.44 -48.28 560.29 C-48.3 565.66 -48.3 571.02 -48.28 576.38 C-48.28 578.31 -48.28 580.25 -48.3 582.18 C-48.39 597.93 -46.32 610.2 -36.79 623.25 C-36.33 623.91 -35.87 624.57 -35.39 625.25 C-28.13 634.69 -15.27 640.84 -3.79 643.25 C1.5 643.69 6.78 643.7 12.08 643.69 C13.62 643.69 15.15 643.7 16.69 643.7 C19.89 643.71 23.1 643.71 26.31 643.7 C29.56 643.69 32.81 643.7 36.07 643.72 C60.94 644.12 60.94 644.12 85.21 639.25 C85.9 639.04 86.58 638.82 87.29 638.6 C114.72 629.99 138.84 609.87 152.19 584.38 C160.47 567.2 162.5 547.81 157.35 529.39 C153.61 519.09 148.5 509.46 141.21 501.25 C140.5 500.44 139.79 499.62 139.05 498.77 C134.89 494.07 130.57 489.58 126.1 485.17 C124.28 483.32 122.58 481.41 120.9 479.44 C117.51 475.49 113.83 471.85 110.13 468.2 C106.93 465.02 104.03 461.76 101.21 458.25 C99.15 455.94 99.15 455.94 97.21 454.25 C96.55 454.25 95.89 454.25 95.21 454.25 C95 453.71 94.78 453.17 94.56 452.61 C92.72 449.4 90.17 447.05 87.52 444.5 C83.51 440.58 79.7 436.61 76.07 432.34 C73.14 429.06 70 426 66.85 422.93 C63.31 419.46 63.31 419.46 62.21 417.25 C61.55 417.25 60.89 417.25 60.21 417.25 C60.21 416.59 60.21 415.93 60.21 415.25 C59.55 415.25 58.89 415.25 58.21 415.25 C57.88 414.43 57.88 414.43 57.54 413.59 C55.79 410.53 53.42 408.3 50.9 405.88 C47.09 402.16 43.54 398.4 40.21 394.25 C38.15 391.94 38.15 391.94 36.21 390.25 C35.55 390.25 34.89 390.25 34.21 390.25 C33.96 389.67 33.71 389.09 33.45 388.5 C32.05 385.97 30.48 384.36 28.4 382.38 C25.95 380 23.61 377.65 21.46 375 C19.48 372.59 17.53 370.34 15.21 368.25 C14.55 368.25 13.89 368.25 13.21 368.25 C12.98 367.72 12.75 367.18 12.52 366.63 C11.36 364.52 10.17 362.93 8.63 361.11 C7.83 360.16 7.03 359.22 6.21 358.25 C7.01 357.46 7.8 356.66 8.63 355.85 C28.05 336.49 47.46 317.13 66.87 297.75 C76.25 288.38 85.64 279.02 95.03 269.66 C103.22 261.5 111.4 253.33 119.58 245.16 C123.91 240.84 128.24 236.52 132.58 232.2 C136.66 228.14 140.74 224.06 144.82 219.98 C146.31 218.49 147.81 217 149.3 215.52 C158.85 206.04 167.83 196.8 173.21 184.25 C173.5 183.63 173.78 183 174.08 182.36 C180.42 166.51 177.26 147.38 170.98 132.09 C168.44 126.33 164.95 121.3 161.21 116.25 C160.69 115.51 160.18 114.76 159.65 113.98 C156.63 109.7 153.28 106.31 149.26 102.96 C147.93 101.86 146.64 100.72 145.38 99.54 C126.7 82.17 99.81 72.09 74.46 72.11 C73.62 72.11 72.79 72.1 71.93 72.1 C69.19 72.09 66.45 72.09 63.71 72.09 C61.79 72.08 59.88 72.08 57.96 72.08 C53.95 72.07 49.94 72.07 45.93 72.07 C40.81 72.07 35.69 72.06 30.56 72.04 C26.61 72.03 22.65 72.02 18.69 72.03 C16.8 72.02 14.92 72.02 13.03 72.01 C10.38 72 7.74 72.01 5.09 72.01 C4.32 72.01 3.55 72 2.76 71.99 C-12.77 72.08 -25.36 78.87 -35.79 90.25 Z M211.21 72.25 C214.17 74.67 216.89 76.72 220.33 78.38 C242.1 90.22 252.95 114.2 260.31 136.59 C263.87 151.04 263.79 168.85 260.21 183.25 C259.96 184.26 259.72 185.26 259.47 186.3 C254.64 203.8 244.58 221.36 231.44 233.95 C229.98 235.2 229.98 235.2 230.21 237.25 C229.55 237.25 228.89 237.25 228.21 237.25 C228.21 237.91 228.21 238.57 228.21 239.25 C227.55 239.25 226.89 239.25 226.21 239.25 C224.81 240.64 224.81 240.64 223.33 242.51 C220.21 246.18 216.92 249.62 213.49 253 C212.99 253.49 212.49 253.99 211.97 254.51 C209.86 256.58 207.76 258.65 205.65 260.72 C204.09 262.24 202.54 263.78 200.99 265.31 C200.07 266.21 199.16 267.11 198.21 268.04 C195.99 270 195.99 270 196.21 272.25 C195.22 272.58 194.23 272.91 193.21 273.25 C193.21 273.91 193.21 274.57 193.21 275.25 C192.22 275.58 191.23 275.91 190.21 276.25 C189.01 277.64 187.81 279.04 186.69 280.49 C184.13 283.54 181.24 286.25 178.4 289.03 C176.4 291 174.4 292.97 172.4 294.94 C171.36 295.96 171.36 295.96 170.3 296.99 C169.64 297.64 168.99 298.29 168.31 298.95 C167.72 299.54 167.12 300.13 166.51 300.73 C164.99 302.17 164.99 302.17 165.21 304.25 C164.22 304.58 163.23 304.91 162.21 305.25 C160.96 306.73 159.72 308.21 158.52 309.72 C157.21 311.25 157.21 311.25 154.83 313.13 C152.66 314.89 151.12 316.45 149.33 318.57 C144.94 323.74 140.06 328.43 135.19 333.15 C134.23 334.09 134.23 334.09 133.24 335.06 C132.66 335.63 132.08 336.19 131.47 336.78 C129.99 338.18 129.99 338.18 130.21 340.25 C129.22 340.58 128.23 340.91 127.21 341.25 C125.63 342.81 125.63 342.81 124.08 344.75 C120.05 349.52 115.67 353.89 111.21 358.25 C114.05 362.52 116.57 365.72 120.64 368.91 C122.36 370.38 123.75 371.96 125.21 373.69 C129.25 378.45 133.69 382.79 138.15 387.15 C140.83 389.8 143.43 392.45 145.83 395.37 C148.16 398.19 150.59 400.7 153.21 403.25 C156.34 406.35 159.46 409.46 162.58 412.57 C163.41 413.38 164.23 414.2 165.08 415.04 C169.45 419.39 173.63 423.8 177.64 428.47 C179.89 431.03 182.28 433.38 184.71 435.75 C187.76 438.76 190.75 441.79 193.52 445.07 C197.46 449.69 201.81 453.91 206.15 458.16 C208.83 460.8 211.43 463.45 213.83 466.37 C216.14 469.27 216.14 469.27 218.72 471.74 C232.04 485.22 240.31 503.21 245.21 521.25 C245.56 522.41 245.91 523.56 246.27 524.75 C254.63 555.89 246.67 586.77 231.02 613.94 C228.26 618.38 225.09 621.65 221.12 625.04 C220.39 625.66 219.65 626.29 218.9 626.94 C218.2 627.52 217.5 628.1 216.78 628.7 C216.26 629.21 215.74 629.73 215.21 630.25 C215.21 630.91 215.21 631.57 215.21 632.25 C214.51 632.52 213.8 632.79 213.08 633.07 C209.01 634.75 205.15 636.8 201.24 638.82 C198.28 640.22 195.34 641.28 192.21 642.25 C192.21 642.58 192.21 642.91 192.21 643.25 C284.28 643.25 376.35 643.25 471.21 643.25 C466.35 637.56 466.35 637.56 461.21 632.25 C458.59 629.69 456.17 627.08 453.83 624.25 C452.97 623.26 452.1 622.27 451.21 621.25 C450.55 621.25 449.89 621.25 449.21 621.25 C448.95 620.67 448.7 620.09 448.44 619.5 C447.07 617 445.55 615.36 443.53 613.36 C442.77 612.61 442.02 611.86 441.24 611.08 C440.43 610.28 439.61 609.48 438.77 608.66 C437.94 607.83 437.1 606.99 436.24 606.14 C433.57 603.49 430.89 600.84 428.21 598.19 C425.53 595.54 422.85 592.89 420.18 590.23 C418.51 588.58 416.85 586.93 415.18 585.28 C414.42 584.54 413.67 583.79 412.89 583.02 C412.23 582.36 411.56 581.71 410.88 581.03 C409.21 579.25 409.21 579.25 407.21 576.25 C406.55 576.25 405.89 576.25 405.21 576.25 C404.94 575.66 404.67 575.06 404.4 574.44 C403.21 572.26 402.11 570.84 400.21 569.25 C399.55 569.25 398.89 569.25 398.21 569.25 C397.94 568.66 397.67 568.06 397.39 567.45 C396.21 565.26 395.05 563.86 393.29 562.13 C392.7 561.54 392.12 560.96 391.51 560.36 C390.56 559.43 390.56 559.43 389.59 558.48 C388.94 557.83 388.28 557.18 387.61 556.51 C385.52 554.44 383.43 552.38 381.33 550.32 C379.25 548.26 377.16 546.2 375.08 544.13 C373.78 542.85 372.49 541.57 371.18 540.29 C367.95 537.09 365 533.86 362.21 530.25 C360.63 528.79 360.63 528.79 359.08 527.63 C356.21 525.25 356.21 525.25 354.21 522.25 C353.55 522.25 352.89 522.25 352.21 522.25 C351.88 521.26 351.55 520.27 351.21 519.25 C349.33 517.05 349.33 517.05 347.21 515.25 C346.55 515.25 345.89 515.25 345.21 515.25 C345 514.71 344.78 514.18 344.57 513.62 C342.71 510.38 340.15 507.97 337.5 505.39 C336.94 504.83 336.38 504.27 335.8 503.7 C334 501.92 332.2 500.15 330.4 498.38 C328.6 496.62 326.81 494.85 325.03 493.08 C323.92 491.98 322.8 490.89 321.69 489.8 C319.16 487.3 316.77 484.78 314.51 482.03 C312.25 479.14 312.25 479.14 309.21 476.75 C306.04 474.11 303.8 471.46 301.21 468.25 C299.15 465.94 299.15 465.94 297.21 464.25 C296.55 464.25 295.89 464.25 295.21 464.25 C294.88 463.26 294.55 462.27 294.21 461.25 C293.55 461.25 292.89 461.25 292.21 461.25 C291.94 460.66 291.67 460.07 291.39 459.45 C290.2 457.24 289.01 455.82 287.23 454.07 C286.63 453.47 286.03 452.87 285.41 452.25 C284.76 451.62 284.11 450.98 283.44 450.33 C282.77 449.66 282.1 449 281.41 448.31 C279.26 446.18 277.11 444.06 274.96 441.94 C272.82 439.83 270.68 437.72 268.55 435.6 C267.22 434.29 265.9 432.98 264.56 431.67 C260.97 428.11 257.62 424.48 254.46 420.53 C254.05 420.11 253.63 419.69 253.21 419.25 C252.55 419.25 251.89 419.25 251.21 419.25 C250.82 418.38 250.82 418.38 250.43 417.49 C249.1 415.05 247.64 413.45 245.66 411.5 C244.58 410.42 244.58 410.42 243.47 409.31 C242.69 408.54 241.9 407.77 241.1 406.98 C240.29 406.18 239.48 405.38 238.65 404.55 C236.07 401.99 233.48 399.43 230.9 396.88 C228.32 394.33 225.75 391.78 223.17 389.23 C221.57 387.64 219.97 386.05 218.37 384.47 C215.19 381.32 212.1 378.21 209.3 374.72 C208.61 373.91 207.92 373.09 207.21 372.25 C206.55 372.25 205.89 372.25 205.21 372.25 C204.71 370.77 204.71 370.77 204.21 369.25 C202.33 367.05 202.33 367.05 200.21 365.25 C199.55 365.25 198.89 365.25 198.21 365.25 C197.92 364.66 197.63 364.06 197.33 363.44 C196.16 361.06 196.16 361.06 194.21 358.25 C194.54 357.26 194.87 356.27 195.21 355.25 C196.2 354.92 197.19 354.59 198.21 354.25 C198.21 353.59 198.21 352.93 198.21 352.25 C199.53 351.59 200.85 350.93 202.21 350.25 C202.21 349.59 202.21 348.93 202.21 348.25 C203.2 347.92 204.19 347.59 205.21 347.25 C205.21 346.59 205.21 345.93 205.21 345.25 C205.75 345.04 206.29 344.82 206.85 344.6 C210.03 342.79 212.42 340.34 214.96 337.75 C215.47 337.26 215.97 336.76 216.49 336.24 C219.34 333.72 219.34 333.72 220.21 330.25 C221.53 329.59 222.85 328.93 224.21 328.25 C224.21 327.59 224.21 326.93 224.21 326.25 C225.2 325.92 226.19 325.59 227.21 325.25 C227.21 324.59 227.21 323.93 227.21 323.25 C228.2 322.92 229.19 322.59 230.21 322.25 C230.21 321.59 230.21 320.93 230.21 320.25 C231.53 319.59 232.85 318.93 234.21 318.25 C234.21 317.59 234.21 316.93 234.21 316.25 C235.2 315.92 236.19 315.59 237.21 315.25 C237.21 314.59 237.21 313.93 237.21 313.25 C238.53 312.59 239.85 311.93 241.21 311.25 C241.21 310.59 241.21 309.93 241.21 309.25 C241.79 309.01 242.36 308.76 242.96 308.5 C245.54 307.07 247.27 305.47 249.21 303.25 C249.21 302.59 249.21 301.93 249.21 301.25 C250.2 300.92 251.19 300.59 252.21 300.25 C252.21 299.59 252.21 298.93 252.21 298.25 C253.53 297.59 254.85 296.93 256.21 296.25 C256.21 295.59 256.21 294.93 256.21 294.25 C257.2 293.92 258.19 293.59 259.21 293.25 C259.21 292.59 259.21 291.93 259.21 291.25 C260.53 290.59 261.85 289.93 263.21 289.25 C263.21 288.59 263.21 287.93 263.21 287.25 C264.2 286.92 265.19 286.59 266.21 286.25 C266.21 285.59 266.21 284.93 266.21 284.25 C267.2 283.92 268.19 283.59 269.21 283.25 C271.42 281.38 271.42 281.38 273.21 279.25 C273.21 278.59 273.21 277.93 273.21 277.25 C273.79 277.01 274.36 276.76 274.96 276.5 C277.54 275.07 279.27 273.47 281.21 271.25 C281.21 270.59 281.21 269.93 281.21 269.25 C282.2 268.92 283.19 268.59 284.21 268.25 C284.21 267.59 284.21 266.93 284.21 266.25 C285.53 265.59 286.85 264.93 288.21 264.25 C288.21 263.59 288.21 262.93 288.21 262.25 C289.2 261.92 290.19 261.59 291.21 261.25 C291.21 260.59 291.21 259.93 291.21 259.25 C292.53 258.59 293.85 257.93 295.21 257.25 C295.21 256.59 295.21 255.93 295.21 255.25 C296.2 254.92 297.19 254.59 298.21 254.25 C298.21 253.59 298.21 252.93 298.21 252.25 C299.53 251.59 300.85 250.93 302.21 250.25 C302.21 249.59 302.21 248.93 302.21 248.25 C303.2 247.92 304.19 247.59 305.21 247.25 C305.21 246.59 305.21 245.93 305.21 245.25 C305.79 245.01 306.36 244.76 306.96 244.5 C309.54 243.07 311.27 241.47 313.21 239.25 C313.21 238.59 313.21 237.93 313.21 237.25 C314.2 236.92 315.19 236.59 316.21 236.25 C318.42 234.38 318.42 234.38 320.21 232.25 C320.21 231.59 320.21 230.93 320.21 230.25 C321.2 229.92 322.19 229.59 323.21 229.25 C325.42 227.38 325.42 227.38 327.21 225.25 C327.21 224.59 327.21 223.93 327.21 223.25 C328.2 222.92 329.19 222.59 330.21 222.25 C330.21 221.59 330.21 220.93 330.21 220.25 C331.53 219.59 332.85 218.93 334.21 218.25 C334.21 217.59 334.21 216.93 334.21 216.25 C335.2 215.92 336.19 215.59 337.21 215.25 C338.9 213.27 340.56 211.27 342.21 209.25 C343.2 208.59 344.19 207.93 345.21 207.25 C345.21 206.59 345.21 205.93 345.21 205.25 C346.2 204.92 347.19 204.59 348.21 204.25 C358.92 192.08 366.21 176.23 365.49 159.75 C362.64 134.79 350.72 113.55 331.1 97.54 C329.31 96.07 329.31 96.07 327.21 96.25 C327.21 95.59 327.21 94.93 327.21 94.25 C324.94 92.72 322.7 91.31 320.33 89.94 C319.65 89.54 318.96 89.13 318.25 88.72 C298.58 77.25 279.29 72.06 256.52 72.16 C255.22 72.16 253.92 72.16 252.59 72.16 C249.16 72.16 245.74 72.17 242.31 72.19 C238.8 72.2 235.3 72.2 231.79 72.21 C224.93 72.22 218.07 72.23 211.21 72.25 Z M398.21 72.25 C400.42 73.97 402.35 75.32 404.9 76.5 C408.75 78.54 411.9 81.07 415.26 83.83 C417.07 85.45 417.07 85.45 419.21 85.25 C419.21 85.91 419.21 86.57 419.21 87.25 C421.54 89.92 421.54 89.92 424.21 92.25 C424.87 92.25 425.53 92.25 426.21 92.25 C426.57 93.04 426.57 93.04 426.94 93.85 C428.25 96.33 429.73 98.64 431.28 100.97 C447.34 125.24 454.53 152.15 448.65 181.07 C445.59 194.58 440.19 206.92 432.21 218.25 C431.61 219.15 431.01 220.05 430.39 220.97 C427.29 225.53 424.17 229.4 420.21 233.25 C419 234.46 417.79 235.67 416.58 236.88 C413.95 239.51 411.33 242.13 408.7 244.76 C408.1 245.37 407.49 245.98 406.86 246.61 C405.51 247.95 404.13 249.28 402.74 250.59 C400.98 252.12 400.98 252.12 401.21 254.25 C400.22 254.58 399.23 254.91 398.21 255.25 C396.65 256.8 396.65 256.8 395.11 258.73 C390.19 264.54 384.71 269.76 379.27 275.07 C378.48 275.84 377.7 276.61 376.9 277.4 C376.19 278.1 375.48 278.79 374.75 279.5 C372.99 281.12 372.99 281.12 373.21 283.25 C372.61 283.51 372.02 283.77 371.4 284.03 C369.01 285.36 367.8 286.65 366.08 288.76 C360.98 294.79 355.27 300.2 349.62 305.71 C348.8 306.53 347.97 307.34 347.12 308.18 C346.37 308.92 345.62 309.65 344.84 310.41 C342.99 312.09 342.99 312.09 343.21 314.25 C342.22 314.58 341.23 314.91 340.21 315.25 C338.71 316.73 338.71 316.73 337.24 318.61 C334.22 322.16 331.03 325.5 327.71 328.78 C327.23 329.25 326.75 329.73 326.25 330.22 C324.25 332.2 322.24 334.17 320.22 336.14 C318.74 337.6 317.26 339.06 315.78 340.53 C314.46 341.82 314.46 341.82 313.12 343.13 C310.99 345.03 310.99 345.03 311.21 347.25 C310.22 347.58 309.23 347.91 308.21 348.25 C306.84 349.89 305.51 351.57 304.21 353.25 C302.56 354.94 300.9 356.61 299.21 358.25 C300.77 362.47 303.8 364.48 307.21 367.25 C308.2 368.74 308.2 368.74 309.21 370.25 C309.87 370.25 310.53 370.25 311.21 370.25 C311.7 371.74 311.7 371.74 312.21 373.25 C314.08 375.46 314.08 375.46 316.21 377.25 C316.87 377.25 317.53 377.25 318.21 377.25 C318.46 377.83 318.71 378.41 318.97 379 C320.37 381.54 321.94 383.22 324 385.26 C324.78 386.03 325.55 386.8 326.36 387.6 C327.2 388.43 328.03 389.25 328.9 390.11 C329.76 390.96 330.62 391.82 331.51 392.7 C334.26 395.43 337.01 398.15 339.77 400.88 C342.53 403.61 345.29 406.35 348.05 409.08 C349.76 410.79 351.48 412.49 353.2 414.18 C353.97 414.95 354.75 415.72 355.55 416.51 C356.23 417.19 356.92 417.86 357.62 418.56 C359.21 420.25 359.21 420.25 360.21 422.25 C360.87 422.25 361.53 422.25 362.21 422.25 C362.87 423.57 363.53 424.89 364.21 426.25 C364.87 426.25 365.53 426.25 366.21 426.25 C366.47 426.84 366.74 427.43 367.01 428.04 C368.25 430.33 369.54 431.82 371.39 433.64 C372.35 434.6 372.35 434.6 373.34 435.58 C374.03 436.27 374.73 436.95 375.45 437.65 C376.16 438.36 376.88 439.08 377.62 439.81 C379.92 442.09 382.22 444.36 384.52 446.63 C386.81 448.89 389.1 451.16 391.39 453.42 C392.81 454.83 394.23 456.24 395.66 457.65 C398.59 460.54 401.42 463.43 404.03 466.61 C406.09 469.3 406.09 469.3 408.65 471.19 C411.49 473.48 413.61 476.01 415.88 478.86 C416.32 479.32 416.76 479.78 417.21 480.25 C417.87 480.25 418.53 480.25 419.21 480.25 C419.44 480.81 419.67 481.37 419.91 481.94 C421.56 484.89 423.64 486.91 426.04 489.28 C426.51 489.75 426.99 490.22 427.48 490.71 C428.99 492.21 430.5 493.7 432.02 495.19 C433.03 496.19 434.04 497.19 435.05 498.19 C436.91 500.04 438.78 501.89 440.65 503.73 C443.18 506.23 445.7 508.74 448.21 511.25 C449.42 512.43 449.42 512.43 450.65 513.63 C452.61 515.64 454.41 517.66 456.21 519.82 C457.98 521.91 459.55 523.53 461.71 525.25 C464.54 527.52 466.63 530.04 468.88 532.86 C469.32 533.32 469.76 533.78 470.21 534.25 C470.87 534.25 471.53 534.25 472.21 534.25 C472.47 534.84 472.72 535.42 472.99 536.02 C474.32 538.45 475.77 540.05 477.74 541.99 C478.46 542.71 479.18 543.43 479.92 544.17 C480.7 544.94 481.48 545.7 482.29 546.49 C483.09 547.29 483.9 548.09 484.72 548.91 C487.3 551.47 489.88 554.02 492.46 556.57 C495.02 559.1 497.59 561.64 500.15 564.19 C501.74 565.77 503.34 567.35 504.94 568.92 C508.32 572.27 511.58 575.63 514.62 579.29 C515.48 580.27 516.33 581.25 517.21 582.25 C517.87 582.25 518.53 582.25 519.21 582.25 C519.54 583.24 519.87 584.23 520.21 585.25 C520.87 585.25 521.53 585.25 522.21 585.25 C522.54 585.91 522.87 586.57 523.21 587.25 C523.29 542.47 523.37 497.68 523.42 452.89 C523.42 452.23 523.42 451.57 523.42 450.88 C523.44 436.46 523.45 422.05 523.46 407.63 C523.47 400.56 523.48 393.49 523.48 386.42 C523.48 385.36 523.48 385.36 523.49 384.29 C523.51 361.5 523.54 338.71 523.59 315.92 C523.64 291.83 523.67 267.74 523.68 243.65 C523.69 229.22 523.71 214.8 523.75 200.37 C523.77 190.48 523.78 180.58 523.78 170.68 C523.77 164.98 523.78 159.27 523.8 153.56 C523.83 148.33 523.83 143.1 523.81 137.87 C523.81 135.98 523.82 134.1 523.83 132.21 C523.97 114.18 520.64 100.35 507.89 86.79 C497.76 77.02 485.8 71.89 471.77 72.03 C470.97 72.03 470.17 72.03 469.35 72.03 C466.73 72.03 464.11 72.04 461.49 72.06 C459.66 72.06 457.84 72.07 456.01 72.07 C451.22 72.07 446.43 72.09 441.65 72.12 C436.75 72.14 431.86 72.15 426.97 72.16 C417.38 72.18 407.79 72.21 398.21 72.25 Z " fill="#2E50A0" transform="translate(562.7913970947266,98.74603271484375)"/>
<path d="M0 0 C19.8 0 39.6 0 60 0 C64.49 7.86 64.49 7.86 65.86 10.84 C66.17 11.5 66.47 12.16 66.79 12.85 C67.11 13.54 67.42 14.23 67.75 14.94 C70.42 20.69 73.15 26.4 76 32.06 C76.33 32.72 76.66 33.38 77 34.06 C78.65 37.33 80.3 40.59 81.96 43.86 C85.66 51.13 89.14 58.47 92.44 65.94 C95.2 72.18 98.11 78.26 101.38 84.25 C105.13 91.17 108.52 98.22 111.81 105.38 C112.27 106.36 112.72 107.35 113.19 108.36 C116.13 114.8 118.68 121.31 121 128 C120.76 126.39 120.76 126.39 120.51 124.75 C119.82 119.19 119.87 113.67 119.89 108.08 C119.89 106.9 119.89 105.73 119.89 104.53 C119.89 100.67 119.89 96.82 119.9 92.97 C119.9 90.29 119.91 87.61 119.91 84.93 C119.91 78.61 119.92 72.3 119.93 65.98 C119.94 58.78 119.94 51.58 119.95 44.39 C119.96 29.59 119.98 14.8 120 0 C134.52 0 149.04 0 164 0 C164 58.74 164 117.48 164 178 C143.87 178 123.74 178 103 178 C101.02 173.71 99.04 169.42 97 165 C95.07 160.95 93.14 156.91 91.19 152.88 C87.51 145.24 83.86 137.6 80.25 129.94 C77.63 124.38 74.95 118.86 72.19 113.38 C67.14 103.38 62.34 93.26 57.51 83.16 C56.05 80.1 54.58 77.06 53.11 74.01 C52.22 72.15 51.33 70.29 50.44 68.44 C50.03 67.6 49.63 66.76 49.21 65.9 C46.87 61.01 44.83 56.11 43 51 C42.99 51.61 42.98 52.23 42.97 52.86 C42.95 54.32 42.93 55.79 42.9 57.25 C42.96 60.13 42.96 60.13 43.5 63.48 C44.16 68.66 44.13 73.8 44.11 79.01 C44.11 80.08 44.11 81.15 44.11 82.26 C44.11 85.79 44.11 89.32 44.1 92.84 C44.1 95.3 44.09 97.75 44.09 100.21 C44.09 106.65 44.08 113.1 44.07 119.54 C44.06 126.12 44.05 132.71 44.05 139.29 C44.04 152.19 44.02 165.1 44 178 C29.48 178 14.96 178 0 178 C0 119.26 0 60.52 0 0 Z M41 43 C42 47 42 47 42 47 Z M122 134 C123 136 123 136 123 136 Z " fill="#2E50A1" transform="translate(558,925)"/>
<path d="M0 0 C14.64 -0.08 29.29 -0.16 44.38 -0.25 C48.96 -0.29 53.55 -0.32 58.27 -0.36 C63.97 -0.38 63.97 -0.38 66.65 -0.38 C68.49 -0.39 70.32 -0.4 72.16 -0.42 C92.37 -0.64 112.67 1.3 128 16 C128 16.66 128 17.32 128 18 C128.66 18 129.32 18 130 18 C130.78 19.31 131.55 20.62 132.31 21.94 C132.96 23.03 132.96 23.03 133.61 24.15 C137.12 31.36 138.53 37.87 138.44 45.88 C138.43 46.75 138.42 47.63 138.42 48.53 C138.25 55.28 137.26 61 134 67 C133.49 67.96 133.49 67.96 132.97 68.93 C127.8 77.21 118.98 82.7 110 86 C110.8 86.31 111.59 86.63 112.41 86.95 C124.28 91.75 134.09 97.92 140.04 109.67 C144.95 121.55 144.4 136.07 140 148 C134.06 160.54 124.5 168.42 111.56 173.19 C75.22 183.23 37.42 178 0 178 C0 119.26 0 60.52 0 0 Z M48 33 C48 45.54 48 58.08 48 71 C51.73 71.08 55.47 71.16 59.31 71.25 C61.04 71.3 61.04 71.3 62.81 71.36 C71.39 71.45 78.96 69.94 86 64.81 C89.85 59.4 91.55 54.46 90.5 47.81 C89.27 43 87.68 40.35 84 37 C78.1 33.94 72.85 32.87 66.26 32.9 C65.3 32.9 64.34 32.91 63.35 32.91 C61.54 32.92 61.54 32.92 59.69 32.94 C55.83 32.96 51.97 32.98 48 33 Z M48 104 C48 117.2 48 130.4 48 144 C53.91 144.06 53.91 144.06 59.94 144.12 C61.16 144.14 62.38 144.16 63.64 144.18 C72.59 144.23 80.11 143.45 88 139 C88 138.34 88 137.68 88 137 C88.99 136.67 89.98 136.34 91 136 C95.16 130.45 94.78 123.61 94 117 C92.95 114.21 91.8 112.41 90 110 C89.34 110 88.68 110 88 110 C88 109.34 88 108.68 88 108 C79.55 103.53 71.77 103.52 62.38 103.75 C57.63 103.83 52.89 103.91 48 104 Z " fill="#2E50A1" transform="translate(209,925)"/>
<path d="M0 0 C14.48 -0.08 28.96 -0.16 43.88 -0.25 C48.41 -0.29 52.94 -0.32 57.62 -0.36 C63.25 -0.38 63.25 -0.38 65.9 -0.38 C67.72 -0.39 69.53 -0.4 71.35 -0.42 C92.8 -0.65 112.4 2.04 128.53 17.46 C135.92 25.6 137.18 35.35 137.19 45.88 C137.2 46.64 137.21 47.4 137.22 48.19 C137.24 55 136.47 61.46 132.56 67.25 C132.12 67.9 131.69 68.56 131.23 69.23 C130.83 69.82 130.42 70.4 130 71 C129.44 71.83 128.89 72.65 128.31 73.5 C127.66 74.24 127.66 74.24 127 75 C126.34 75 125.68 75 125 75 C124.51 76.49 124.51 76.49 124 78 C122.14 79.28 122.14 79.28 119.81 80.5 C119.01 80.93 118.2 81.35 117.37 81.79 C111.61 84.73 111.61 84.73 109 86 C109.76 86.29 110.52 86.58 111.31 86.88 C122.15 91.19 132.16 96.07 137.44 106.97 C143.12 120.28 144.42 135.25 139 149 C132.79 161.79 123.14 168.37 110 173 C76.7 184.1 28.88 178 0 178 C0 119.26 0 60.52 0 0 Z M47 33 C47 45.54 47 58.08 47 71 C50.73 71.08 54.47 71.16 58.31 71.25 C60.04 71.3 60.04 71.3 61.81 71.36 C70.45 71.45 78.29 70.1 85.06 64.44 C90.02 58.2 89.73 52.79 89 45 C87.53 40.83 84.58 38.45 81 36 C73.62 32.74 66.31 32.63 58.38 32.81 C54.62 32.87 50.87 32.94 47 33 Z M47 104 C47 117.2 47 130.4 47 144 C52.91 144.06 52.91 144.06 58.94 144.12 C60.16 144.14 61.38 144.16 62.64 144.18 C70.48 144.22 78.51 144.12 85.31 139.75 C85.93 139.37 86.54 139 87.18 138.61 C90.9 135.33 92.82 132.27 93.53 127.34 C93.52 126.08 93.51 124.81 93.5 123.5 C93.51 122.23 93.52 120.96 93.53 119.66 C92.92 115.47 91.68 113.24 89 110 C88.34 110 87.68 110 87 110 C87 109.34 87 108.68 87 108 C78.55 103.53 70.77 103.52 61.38 103.75 C56.63 103.83 51.89 103.91 47 104 Z " fill="#2E50A1" transform="translate(1007,925)"/>
<path d="M0 0 C14.44 -0.08 28.88 -0.16 43.75 -0.25 C48.27 -0.29 52.78 -0.32 57.44 -0.36 C63.06 -0.38 63.06 -0.38 65.71 -0.38 C67.52 -0.39 69.33 -0.4 71.13 -0.42 C81.21 -0.53 90.88 -0.17 100.79 1.77 C101.59 1.93 102.38 2.09 103.2 2.25 C116.03 5.04 128.96 11.8 136.32 23.01 C140.27 30.46 141.37 38 141.31 46.31 C141.31 47.15 141.3 47.98 141.3 48.84 C141.07 60.58 138.11 69.53 129.96 78.16 C124.09 83.71 117.66 87.45 110 90 C110.5 90.38 110.99 90.76 111.5 91.14 C124.91 102 129.57 118.3 135 134 C135.93 136.69 136.87 139.38 137.81 142.06 C138.05 142.73 138.28 143.41 138.53 144.1 C140.09 148.52 141.72 152.92 143.38 157.3 C143.79 158.39 144.2 159.48 144.63 160.6 C145.45 162.75 146.27 164.91 147.1 167.07 C147.67 168.55 147.67 168.55 148.24 170.05 C148.75 171.38 148.75 171.38 149.27 172.73 C150 175 150 175 150 178 C133.5 178 117 178 100 178 C97.35 172.05 95.05 166.48 93.19 160.31 C92.67 158.65 92.16 157 91.64 155.34 C91.38 154.48 91.11 153.61 90.84 152.72 C89.36 147.94 87.87 143.15 86.38 138.38 C86.1 137.48 85.82 136.58 85.54 135.65 C81.9 123.51 81.9 123.51 74 114 C65.32 109.66 57.99 109.71 48 109 C48 131.77 48 154.54 48 178 C32.16 178 16.32 178 0 178 C0 119.26 0 60.52 0 0 Z M48 32 C48 46.52 48 61.04 48 76 C51.75 76.04 55.51 76.08 59.38 76.12 C60.54 76.14 61.7 76.16 62.9 76.18 C73.52 76.24 82.09 75.56 90 68 C93.97 63.52 93.98 57.77 94 52 C93.57 46.59 91.67 42.52 87.97 38.54 C77.03 30 60.46 32 48 32 Z " fill="#2E50A1" transform="translate(1175,925)"/>
<path d="M0 0 C16.17 0 32.34 0 49 0 C49.33 23.76 49.66 47.52 50 72 C56.27 63.4 56.27 63.4 62.38 54.69 C68 46.52 73.72 38.42 79.62 30.45 C80.04 29.88 80.45 29.32 80.88 28.74 C81.79 27.52 82.71 26.3 83.64 25.1 C86.32 21.57 88.5 18.12 90.4 14.12 C93.62 7.81 96.89 1.4 103.94 -1 C112.37 -2.39 120.83 -1.73 129.31 -1.19 C131.9 -1.09 134.49 -1.01 137.08 -0.93 C143.4 -0.72 149.7 -0.4 156 0 C155.05 1.27 154.1 2.54 153.14 3.81 C152.35 4.87 152.35 4.87 151.54 5.95 C145.16 14.44 138.61 22.76 131.89 30.99 C127.92 35.85 124.03 40.76 120.17 45.7 C116.61 50.25 112.97 54.72 109.31 59.19 C104.87 64.62 100.62 70.12 96.59 75.86 C95.17 77.77 93.73 79.38 92 81 C94.38 85.14 97.1 88.98 99.94 92.81 C100.41 93.45 100.88 94.1 101.37 94.76 C104.02 98.35 106.69 101.92 109.39 105.47 C109.94 106.19 110.49 106.92 111.06 107.67 C112.13 109.08 113.21 110.49 114.29 111.9 C118 116.78 118 116.78 118 119 C118.66 119 119.32 119 120 119 C120.95 120.36 121.9 121.72 122.79 123.12 C125.15 126.78 127.79 130.25 130.38 133.75 C130.99 134.58 131.6 135.41 132.23 136.26 C136.48 142.01 140.83 147.68 145.25 153.31 C149.55 158.81 153.79 164.34 157.88 170 C158.51 170.87 158.51 170.87 159.16 171.76 C162 175.76 162 175.76 162 178 C154.38 178.12 146.75 178.2 139.13 178.26 C135.59 178.29 132.05 178.32 128.51 178.38 C124.44 178.44 120.37 178.47 116.3 178.49 C115.03 178.51 113.76 178.54 112.45 178.57 C110.68 178.57 110.68 178.57 108.87 178.57 C107.83 178.58 106.79 178.59 105.72 178.6 C102.01 177.78 101.06 176.1 99 173 C98.36 172.07 97.73 171.13 97.07 170.17 C96.11 168.69 96.11 168.69 95.12 167.19 C92.36 163 89.54 158.94 86.42 155.01 C84.82 152.75 83.51 150.36 82.16 147.94 C80.05 144.4 77.6 141.09 75.19 137.75 C71.16 132.12 67.31 126.44 63.65 120.56 C61.22 116.79 58.57 113.2 55.89 109.61 C53.85 106.79 51.92 103.9 50 101 C49.99 101.95 49.98 102.9 49.97 103.88 C49.87 112.81 49.77 121.74 49.66 130.68 C49.61 135.27 49.55 139.86 49.5 144.45 C49.46 148.88 49.4 153.31 49.35 157.74 C49.33 159.43 49.31 161.13 49.29 162.82 C49.27 165.18 49.24 167.55 49.21 169.91 C49.2 170.62 49.19 171.32 49.19 172.05 C49.11 176.89 49.11 176.89 48 178 C32.16 178 16.32 178 0 178 C0 119.26 0 60.52 0 0 Z M48 73 C49 75 49 75 49 75 Z " fill="#2E51A1" transform="translate(754,925)"/>
<path d="M0 0 C19.14 0 38.28 0 58 0 C60.61 5.21 62.83 9.92 64.81 15.31 C65.06 15.99 65.32 16.68 65.57 17.38 C66.39 19.58 67.19 21.79 68 24 C69.12 27.06 70.25 30.13 71.38 33.19 C71.66 33.97 71.95 34.76 72.25 35.57 C74.81 42.53 77.45 49.46 80.1 56.39 C82.25 62.03 84.39 67.68 86.5 73.34 C88.19 77.85 89.89 82.35 91.61 86.84 C92.57 89.37 93.54 91.9 94.5 94.44 C94.74 95.07 94.98 95.71 95.23 96.36 C98.48 104.9 101.65 113.47 104.59 122.13 C105.68 125.23 106.93 128.25 108.21 131.27 C111.44 138.96 114.4 146.75 117.36 154.55 C118.32 157.09 119.3 159.63 120.27 162.17 C120.88 163.79 121.5 165.41 122.11 167.04 C122.4 167.79 122.69 168.55 122.99 169.33 C124.13 172.35 125 174.74 125 178 C107.84 178 90.68 178 73 178 C69.04 165.79 65.08 153.58 61 141 C27.84 140.51 27.84 140.51 -6 140 C-6.33 141.65 -6.66 143.3 -7 145 C-7.46 146.48 -7.94 147.95 -8.45 149.41 C-8.74 150.23 -9.03 151.06 -9.33 151.91 C-9.63 152.77 -9.94 153.62 -10.25 154.5 C-10.54 155.32 -10.82 156.14 -11.12 156.99 C-13.61 164.06 -16.31 171 -19 178 C-34.84 178 -50.68 178 -67 178 C-66.22 174.11 -65.34 171 -63.93 167.35 C-63.3 165.73 -63.3 165.73 -62.66 164.08 C-62.22 162.94 -61.77 161.8 -61.31 160.62 C-60.86 159.45 -60.4 158.28 -59.94 157.07 C-57.58 151.01 -55.19 144.96 -52.75 138.94 C-50.37 133.06 -48.26 127.11 -46.18 121.12 C-44.4 116.02 -42.4 111.04 -40.28 106.07 C-36.53 97.06 -33.28 87.84 -30.06 78.62 C-26.03 67.08 -21.5 55.72 -16.94 44.38 C-13.15 34.93 -9.61 25.39 -6.1 15.84 C-5.78 14.97 -5.46 14.1 -5.14 13.21 C-4.51 11.51 -3.89 9.82 -3.27 8.12 C-2.85 6.97 -2.85 6.97 -2.42 5.79 C-2.17 5.11 -1.92 4.42 -1.66 3.72 C-1 2 -1 2 0 0 Z M28 42 C23.11 55.44 18.3 68.92 13.62 82.44 C13.21 83.64 12.79 84.84 12.36 86.07 C11.97 87.22 11.57 88.37 11.16 89.56 C10.65 91.06 10.65 91.06 10.12 92.6 C8.66 97.04 7.34 101.52 6 106 C20.52 106 35.04 106 50 106 C46.69 96.08 46.69 96.08 43.38 86.16 C41.85 81.57 40.36 76.97 38.86 72.37 C38.44 71.06 38.44 71.06 38 69.72 C37.11 66.96 36.21 64.2 35.31 61.44 C34.7 59.55 34.09 57.67 33.47 55.78 C31.98 51.19 30.49 46.59 29 42 C28.67 42 28.34 42 28 42 Z " fill="#2E50A1" transform="translate(424,925)"/>
<path d="M0 0 C16.17 0 32.34 0 49 0 C49 58.74 49 117.48 49 178 C32.83 178 16.66 178 0 178 C0 119.26 0 60.52 0 0 Z " fill="#2E50A0" transform="translate(1343,925)"/>
</svg>
