<?xml version="1.0" encoding="UTF-8"?>
<!-- Generator: visioncortex VTracer 0.6.4 -->
<svg version="1.1" xmlns="http://www.w3.org/2000/svg" width="520" height="480">
<path d="M0 0 C1.31 -0.01 2.61 -0.02 3.96 -0.04 C5.21 -0.04 6.47 -0.04 7.76 -0.04 C9.47 -0.05 9.47 -0.05 11.21 -0.06 C15.48 0.28 18.27 1.15 21.31 4.19 C22.07 6.98 22.72 9.73 23.31 12.56 C23.49 13.38 23.66 14.19 23.84 15.03 C25.55 23.1 27.07 31.12 27.73 39.36 C28.23 45.02 29.3 50.45 30.5 56 C32.81 67.06 34.65 78.15 36.38 89.31 C36.5 90.13 36.63 90.96 36.76 91.8 C36.89 92.62 37.01 93.44 37.14 94.28 C37.4 95.91 37.65 97.53 37.9 99.15 C38.02 99.94 38.14 100.73 38.27 101.54 C39.27 108 40.36 114.44 41.5 120.88 C42.72 127.81 43.93 134.74 45.06 141.69 C45.19 142.45 45.32 143.21 45.45 143.99 C46.16 148.43 46.52 152.68 46.31 157.19 C43.15 160.35 31.75 159.02 27.31 159.19 C26.41 159.22 25.5 159.26 24.57 159.29 C21.86 159.39 19.15 159.45 16.44 159.5 C15.59 159.53 14.74 159.56 13.86 159.59 C10.15 159.63 7.99 159.62 4.82 157.58 C2.91 154.55 2.49 152.17 2.06 148.62 C1.91 147.49 1.76 146.35 1.61 145.18 C1.24 140.2 1.31 135.19 1.31 130.19 C-13.54 130.52 -28.39 130.85 -43.69 131.19 C-45.67 136.14 -47.65 141.09 -49.69 146.19 C-54.07 155.64 -54.07 155.64 -55.69 158.19 C-59.37 159.41 -62.77 159.33 -66.6 159.32 C-67.37 159.32 -68.14 159.32 -68.94 159.32 C-70.56 159.32 -72.19 159.32 -73.81 159.32 C-76.31 159.31 -78.81 159.32 -81.3 159.32 C-82.88 159.32 -84.46 159.32 -86.04 159.32 C-86.79 159.32 -87.54 159.32 -88.31 159.33 C-93.57 159.3 -93.57 159.3 -94.69 158.19 C-95.87 149.62 -92.31 143.31 -88.54 135.89 C-87.48 133.77 -86.51 131.61 -85.56 129.44 C-84.24 126.42 -82.88 123.43 -81.5 120.44 C-79.01 114.98 -76.66 109.46 -74.31 103.94 C-71.08 96.35 -67.72 88.84 -64.2 81.39 C-62.29 77.35 -60.48 73.28 -58.69 69.19 C-58.03 69.19 -57.37 69.19 -56.69 69.19 C-56.57 68.49 -56.46 67.78 -56.34 67.06 C-55.63 63.92 -54.56 61.16 -53.31 58.19 C-52.68 56.67 -52.68 56.67 -52.04 55.12 C-50.76 52.34 -49.27 49.81 -47.69 47.19 C-47.09 45.76 -46.53 44.33 -46 42.88 C-43.66 36.87 -40.77 31.18 -37.84 25.45 C-36.37 22.56 -34.95 19.66 -33.57 16.74 C-33.22 16.02 -32.87 15.3 -32.52 14.56 C-31.86 13.18 -31.21 11.8 -30.57 10.42 C-28.55 6.26 -26.7 3.53 -22.69 1.19 C-15.29 -0.42 -7.54 0 0 0 Z M-9.69 48.19 C-14.31 57.71 -18.37 67.3 -21.97 77.26 C-23.51 81.41 -25.17 85.51 -26.8 89.61 C-27.85 92.21 -27.85 92.21 -27.69 95.19 C-15.31 94.69 -15.31 94.69 -2.69 94.19 C-3 90.99 -3.31 87.79 -3.62 84.5 C-3.72 83.5 -3.82 82.5 -3.91 81.47 C-3.99 80.67 -4.07 79.87 -4.15 79.05 C-4.23 78.24 -4.31 77.43 -4.39 76.59 C-4.66 74.15 -4.66 74.15 -5.21 71.61 C-6.1 67.09 -6.09 62.47 -6.31 57.88 C-6.67 54.36 -7.43 51.48 -8.69 48.19 C-9.02 48.19 -9.35 48.19 -9.69 48.19 Z " fill="#E7232A" transform="translate(121.6875,189.8125)"/>
<path d="M0 0 C1.28 0.24 2.55 0.48 3.87 0.73 C14.08 2.79 14.08 2.79 18 5 C18.26 23.2 16.61 40.7 13.94 58.66 C12.6 67.7 11.4 76.73 10.38 85.81 C7.46 110.48 7.46 110.48 3.31 114.12 C-2.8 117.42 -10.25 118.66 -17 120 C-17.85 120.18 -18.69 120.36 -19.57 120.54 C-27.87 122.13 -36.04 122.41 -44.46 122.43 C-46.8 122.44 -49.13 122.49 -51.47 122.54 C-63.54 122.67 -75.25 121.19 -85 113.38 C-97.71 100.59 -100.24 85.4 -100.25 68.06 C-100.02 48.62 -95.4 30.54 -81.98 15.88 C-60.44 -4.56 -27.64 -5.27 0 0 Z M-52.17 41.3 C-58.36 50.43 -60.45 64.04 -58.49 74.81 C-57.31 78.59 -55.89 82.22 -53 85 C-49.12 86.89 -45.8 87.35 -41.5 87.44 C-40.4 87.48 -39.29 87.52 -38.16 87.56 C-33.83 86.79 -32.58 85.55 -30 82 C-28.77 78.69 -28.06 75.34 -27.38 71.88 C-27.07 70.43 -27.07 70.43 -26.76 68.95 C-22.64 52.09 -22.64 52.09 -22 35 C-24.27 32.32 -25.76 32.03 -29.24 31.6 C-31.04 31.61 -31.04 31.61 -32.88 31.62 C-34.67 31.61 -34.67 31.61 -36.49 31.6 C-43.58 32.41 -47.72 36.02 -52.17 41.3 Z " fill="#E7232A" transform="translate(348,230)"/>
<path d="M0 0 C0 0.66 0 1.32 0 2 C0.66 2 1.32 2 2 2 C2 2.66 2 3.32 2 4 C2.66 4 3.32 4 4 4 C18.06 22.66 15.46 46.99 12.65 68.7 C11.99 73.36 11.2 77.99 10.4 82.63 C9.96 85.23 9.58 87.83 9.21 90.44 C9.08 91.35 8.95 92.25 8.82 93.19 C8.57 94.93 8.33 96.67 8.09 98.42 C7.5 102.51 6.93 106.28 5 110 C0.63 112.18 -5.27 111.19 -10.12 111.19 C-12.29 111.19 -14.47 111.21 -16.64 111.22 C-18.03 111.23 -19.41 111.23 -20.8 111.23 C-22.69 111.24 -22.69 111.24 -24.62 111.24 C-27.87 111.01 -30.09 110.4 -33 109 C-32.85 99.78 -31.9 91.05 -30.14 82 C-27.79 69.88 -26.5 58.32 -26.5 46 C-26.49 44.99 -26.49 44.99 -26.49 43.97 C-26.26 34.94 -26.26 34.94 -30 27 C-36.8 21.79 -41.83 21.5 -50.25 22.31 C-53.54 24.33 -53.73 25.21 -54.81 28.81 C-55.69 32.89 -56.19 36.83 -56.43 40.99 C-56.94 48.2 -58.11 55.21 -59.38 62.31 C-61.23 73 -62.83 83.68 -64.01 94.46 C-64.55 99.22 -65.24 103.5 -67 108 C-69.05 107.53 -70.96 107.02 -72.9 106.21 C-80.33 103.16 -88.11 103.3 -95.69 105.93 C-97.18 106.6 -98.65 107.31 -100.1 108.06 C-102.05 109.02 -103.88 109.55 -106 110 C-106.15 103.96 -105.59 98.35 -104.61 92.39 C-104.46 91.49 -104.32 90.58 -104.17 89.64 C-103.7 86.7 -103.23 83.75 -102.75 80.81 C-102.1 76.73 -101.45 72.65 -100.8 68.57 C-100.65 67.57 -100.49 66.56 -100.32 65.53 C-99.05 57.43 -97.93 49.32 -96.88 41.19 C-95.69 32.23 -94.24 23.36 -92.44 14.5 C-92.24 13.51 -92.04 12.52 -91.84 11.49 C-90.38 4.67 -88.44 -0.36 -83 -5 C-78.84 -7.03 -74.67 -7.59 -70.12 -8.06 C-69.37 -8.14 -68.62 -8.23 -67.84 -8.31 C-16.28 -13.79 -16.28 -13.79 0 0 Z " fill="#E7242A" transform="translate(317,59)"/>
<path d="M0 0 C2.58 -0 5.15 -0 7.73 -0.01 C16.76 -0.01 25.79 -0.02 34.81 -0.02 C43.16 -0.02 51.51 -0.03 59.86 -0.04 C67.09 -0.06 74.33 -0.06 81.56 -0.06 C85.85 -0.06 90.14 -0.06 94.43 -0.07 C141.79 -0.18 141.79 -0.18 148.32 4.17 C147.37 4.21 147.37 4.21 146.41 4.26 C105.46 6.27 105.46 6.27 64.59 9.3 C63.89 9.36 63.18 9.42 62.46 9.49 C61.77 9.55 61.08 9.61 60.37 9.67 C53.26 10.28 46.14 10.69 39.01 11.1 C22.95 12.08 6.97 13.7 -9.03 15.38 C-14.8 15.98 -20.57 16.55 -26.35 17.1 C-45.78 18.99 -65.11 21.32 -84.44 24.06 C-86.18 24.31 -87.92 24.55 -89.67 24.8 C-90.51 24.92 -91.36 25.04 -92.23 25.16 C-97.8 25.94 -103.37 26.58 -108.96 27.16 C-116.68 27.98 -124.26 29.24 -131.88 30.71 C-141.95 32.65 -152 34.46 -162.18 35.73 C-171.07 36.84 -179.8 38.51 -188.57 40.33 C-194.8 41.62 -201.01 42.74 -207.3 43.67 C-216.31 45.01 -225.15 46.94 -234.03 48.93 C-238.98 50.03 -243.95 51.02 -248.93 51.98 C-258.47 53.84 -267.95 56 -277.43 58.17 C-278.16 58.33 -278.9 58.5 -279.66 58.68 C-288.82 60.77 -297.96 62.96 -307.08 65.26 C-324.91 69.74 -336.18 70.56 -352.68 62.17 C-353.38 61.81 -354.07 61.46 -354.79 61.1 C-368.47 54.12 -368.47 54.12 -371.68 51.17 C-371.68 50.18 -371.68 49.19 -371.68 48.17 C-359.68 44.73 -347.67 42.1 -335.37 39.96 C-330.11 39.03 -324.92 38.02 -319.75 36.67 C-313.06 34.94 -306.31 33.86 -299.49 32.79 C-289.97 31.26 -280.5 29.58 -271.05 27.6 C-261.27 25.58 -251.47 24.04 -241.57 22.69 C-235.21 21.82 -228.87 20.9 -222.54 19.84 C-221.86 19.73 -221.18 19.62 -220.47 19.5 C-217.18 18.95 -213.89 18.4 -210.6 17.83 C-203.08 16.57 -195.68 15.83 -188.07 15.39 C-183.82 15.11 -179.69 14.51 -175.49 13.79 C-165.72 12.22 -155.91 11.17 -146.06 10.17 C-144.34 9.99 -144.34 9.99 -142.59 9.82 C-141.06 9.66 -141.06 9.66 -139.5 9.51 C-136.75 9.22 -136.75 9.22 -134.39 8.68 C-130.43 7.93 -126.45 7.64 -122.44 7.3 C-121.53 7.22 -120.62 7.14 -119.68 7.06 C-116.72 6.8 -113.76 6.55 -110.8 6.29 C-106.7 5.94 -102.6 5.58 -98.5 5.22 C-97.48 5.13 -96.46 5.04 -95.41 4.95 C-89.46 4.42 -83.52 3.87 -77.58 3.27 C-76.9 3.2 -76.22 3.14 -75.51 3.07 C-72.46 2.76 -69.41 2.44 -66.35 2.12 C-44.3 -0.12 -22.14 0 0 0 Z " fill="#E5242B" transform="translate(371.6787610054016,410.8327429294586)"/>
<path d="M0 0 C1.19 -0 1.19 -0 2.39 -0.01 C4.06 -0.01 5.73 -0 7.4 0 C9.96 0.02 12.52 0 15.08 -0.01 C16.7 -0.01 18.32 -0 19.94 0 C20.71 -0 21.47 -0.01 22.26 -0.01 C27.67 0.04 27.67 0.04 29.9 2.27 C30.71 8.48 29.57 14.98 28.71 21.14 C28.58 22.11 28.45 23.07 28.32 24.07 C26.96 34.07 25.51 44.07 24.07 54.06 C20.96 75.76 18.25 97.47 15.9 119.27 C29.22 121.87 42.64 121.68 56.15 121.83 C59.68 121.87 63.2 121.92 66.72 121.97 C68.9 122 71.08 122.03 73.26 122.05 C74.23 122.06 75.21 122.08 76.22 122.09 C77.08 122.1 77.93 122.11 78.82 122.12 C80.9 122.27 80.9 122.27 82.9 123.27 C83.2 132.03 83.17 140.49 81.53 149.14 C81.34 150.15 81.34 150.15 81.15 151.17 C80.47 154.43 79.77 156.46 77.9 159.27 C75.82 159.7 75.82 159.7 73.16 159.78 C72.14 159.81 71.11 159.85 70.05 159.89 C68.91 159.91 67.77 159.93 66.59 159.95 C64.79 160 64.79 160 62.96 160.05 C58.61 160.15 54.26 160.21 49.9 160.27 C49 160.28 48.11 160.29 47.18 160.3 C41.2 160.37 35.22 160.41 29.24 160.44 C27.23 160.45 25.23 160.46 23.22 160.47 C20.36 160.49 17.5 160.5 14.64 160.5 C13.37 160.51 13.37 160.51 12.07 160.52 C-0.8 160.47 -11.98 156.14 -21.44 147.22 C-27.29 140.32 -27.88 132.26 -27.3 123.52 C-26.71 116.8 -25.78 110.11 -24.89 103.42 C-24.16 97.88 -23.59 92.33 -23.1 86.77 C-22.16 76.47 -20.93 66.23 -19.58 55.98 C-19.23 53.25 -18.87 50.53 -18.52 47.8 C-18 43.71 -17.46 39.62 -16.92 35.54 C-16.71 33.92 -16.5 32.3 -16.29 30.69 C-13.48 8.94 -13.48 8.94 -11.1 2.27 C-7.34 -0.24 -4.36 -0.02 0 0 Z " fill="#E7232A" transform="translate(58.09765625,11.734375)"/>
<path d="M0 0 C0.7 -0 1.41 -0 2.13 -0.01 C3.62 -0.01 5.1 -0 6.59 0 C8.87 0.02 11.14 0 13.42 -0.01 C14.86 -0.01 16.31 -0 17.75 0 C19.07 0 20.38 0 21.74 0.01 C24.88 0.27 24.88 0.27 26.88 2.27 C28.48 18.5 24.92 35.47 22.44 51.45 C20.44 64.3 18.55 77.12 17.31 90.07 C14.95 114.04 9.15 139.98 -10.27 156.04 C-12.12 157.27 -12.12 157.27 -14.12 157.27 C-14.12 157.93 -14.12 158.59 -14.12 159.27 C-26.23 165.81 -37.2 170.17 -51.12 169.27 C-53.33 163.97 -54.9 158.63 -56.31 153.08 C-56.49 152.39 -56.67 151.7 -56.85 150.99 C-57.76 147.36 -58.53 144 -58.12 140.27 C-55.76 136.71 -54.55 136.48 -50.62 135.08 C-41.8 131.53 -34.32 126.54 -30.17 117.73 C-27.05 110.38 -25.62 102.97 -24.75 95.08 C-23.56 85.2 -22.09 75.39 -20.5 65.58 C-20.39 64.89 -20.28 64.21 -20.17 63.5 C-18.3 51.97 -18.3 51.97 -17.12 47.27 C-16.81 44.6 -16.52 41.94 -16.25 39.27 C-15.51 32.35 -14.67 25.46 -13.69 18.58 C-13.58 17.75 -13.47 16.93 -13.35 16.08 C-11.98 6.74 -10.54 0.02 0 0 Z " fill="#E7232A" transform="translate(211.125,228.734375)"/>
<path d="M0 0 C0.7 0 1.39 0.01 2.11 0.01 C4.32 0.03 6.54 0.07 8.75 0.11 C10.24 0.12 11.73 0.13 13.22 0.14 C25.01 0.25 25.01 0.25 28.75 1.43 C29.18 8.65 28.36 15.46 27.1 22.54 C24.3 38.43 22.21 54.48 20.54 70.52 C19.04 84.49 16.86 98.4 14.68 112.28 C13.94 117.01 13.38 121.72 12.94 126.49 C12.09 134.87 10.67 143.14 9.19 151.43 C8.97 152.67 8.74 153.92 8.51 155.21 C6.88 164.16 6.88 164.16 5.75 166.43 C3.93 166.85 3.93 166.85 1.55 167.09 C0.68 167.18 -0.2 167.27 -1.1 167.36 C-2.03 167.45 -2.97 167.53 -3.94 167.61 C-4.89 167.7 -5.83 167.79 -6.81 167.88 C-15.23 168.57 -24.13 169.13 -32.25 166.43 C-32.4 159.7 -32.01 153.25 -31.08 146.59 C-30.89 145.23 -30.89 145.23 -30.71 143.84 C-30.31 140.91 -29.91 137.98 -29.5 135.05 C-29.22 133.01 -28.95 130.97 -28.67 128.93 C-27.05 117.04 -25.38 105.16 -23.65 93.28 C-22.43 84.82 -21.33 76.34 -20.25 67.86 C-18.85 56.88 -17.35 45.92 -15.68 34.98 C-14.88 29.73 -14.12 24.49 -13.47 19.22 C-13.29 17.76 -13.29 17.76 -13.1 16.28 C-12.87 14.48 -12.66 12.67 -12.46 10.87 C-12.36 10.07 -12.26 9.28 -12.16 8.46 C-12.04 7.43 -12.04 7.43 -11.92 6.38 C-9.85 0.33 -5.83 -0.07 0 0 Z " fill="#E7232A" transform="translate(376.25,4.57421875)"/>
<path d="M0 0 C1.09 -0 2.19 -0 3.32 -0.01 C5.07 0 5.07 0 6.87 0.01 C8.63 0.01 8.63 0.01 10.44 0.01 C18.91 0.06 27.3 0.35 35.74 1.13 C36.24 2.62 36.24 2.62 36.74 4.13 C35.19 6.48 35.19 6.48 32.87 9.2 C31.63 10.65 31.63 10.65 30.38 12.13 C27.12 15.84 23.83 19.51 20.49 23.14 C18.69 25.02 18.69 25.02 17.74 27.13 C17.08 27.13 16.42 27.13 15.74 27.13 C15.47 27.77 15.21 28.41 14.93 29.07 C13.74 31.13 13.74 31.13 10.74 32.13 C10.04 33.45 9.38 34.78 8.74 36.13 C7.59 37.54 6.4 38.91 5.18 40.26 C2.67 42.99 2.67 42.99 0.74 46.13 C0.08 46.13 -0.58 46.13 -1.26 46.13 C-1.26 46.79 -1.26 47.45 -1.26 48.13 C-1.92 48.13 -2.58 48.13 -3.26 48.13 C-2.89 53.71 -1.18 57.6 1.41 62.52 C2.71 65.06 3.78 67.6 4.8 70.26 C6.27 74.04 7.96 77.61 9.82 81.22 C11.02 83.7 11.9 86.28 12.83 88.87 C15.09 94.48 17.99 99.86 20.84 105.19 C23.67 110.54 25.59 116.14 27.57 121.85 C28.48 124.39 29.45 126.77 30.62 129.2 C31.84 132.4 31.81 133.92 30.74 137.13 C23.43 139.47 16.65 139.46 8.99 139.45 C7.65 139.46 6.31 139.48 4.97 139.49 C3.71 139.49 2.44 139.5 1.13 139.5 C-0.6 139.5 -0.6 139.5 -2.37 139.51 C-5.26 139.13 -5.26 139.13 -7.05 137.81 C-8.98 135.13 -10.29 132.19 -11.63 129.2 C-11.94 128.53 -12.24 127.87 -12.56 127.18 C-14.88 122.08 -17.05 116.93 -19.12 111.72 C-20.3 109.04 -21.74 106.64 -23.26 104.13 C-23.97 102.22 -24.68 100.3 -25.38 98.38 C-26.72 94.97 -28.41 91.76 -30.07 88.5 C-31.61 85.43 -32.93 82.29 -34.26 79.13 C-35.03 77.49 -35.8 75.84 -36.57 74.2 C-38.72 69.45 -40.73 64.67 -42.63 59.82 C-42.91 59.15 -43.18 58.48 -43.47 57.79 C-45.12 53.49 -45.68 50.54 -44.26 46.13 C-42.48 43.61 -42.48 43.61 -40.26 41.13 C-39.5 40.21 -38.75 39.29 -37.97 38.34 C-36.41 36.45 -34.84 34.55 -33.28 32.66 C-31.18 30.11 -31.18 30.11 -29.26 27.13 C-28.6 27.13 -27.94 27.13 -27.26 27.13 C-27.02 26.57 -26.78 26.02 -26.54 25.44 C-24.97 22.62 -23.03 20.55 -20.82 18.2 C-18.42 15.64 -16.38 13.34 -14.6 10.32 C-14.16 9.6 -13.71 8.88 -13.26 8.13 C-12.6 8.13 -11.94 8.13 -11.26 8.13 C-11.26 7.47 -11.26 6.81 -11.26 6.13 C-9.63 4.43 -7.97 2.76 -6.26 1.13 C-4.55 -0.58 -2.33 0 0 0 Z " fill="#E7242A" transform="translate(442.2578125,52.8671875)"/>
<path d="M0 0 C1 0 1 0 2.03 0 C3.44 0.01 4.84 0.02 6.25 0.05 C8.4 0.09 10.54 0.09 12.69 0.09 C24.52 0.17 24.52 0.17 28.91 2.46 C32.1 8.86 29.27 18.66 28.16 25.4 C27.78 27.72 27.41 30.04 27.04 32.36 C26.85 33.53 26.66 34.71 26.47 35.93 C25.93 39.32 25.42 42.7 24.93 46.1 C23.05 58.85 20.79 71.45 18.05 84.05 C15.67 95.08 15.67 95.08 14.41 106.27 C13.64 114.64 13.64 114.64 11.91 117.46 C4.8 119.57 -1.97 119.77 -9.34 119.71 C-10.94 119.72 -10.94 119.72 -12.56 119.73 C-13.59 119.73 -14.61 119.73 -15.67 119.73 C-16.59 119.72 -17.52 119.72 -18.47 119.72 C-21.32 119.44 -23.49 118.64 -26.09 117.46 C-26.44 109.45 -25.27 101.75 -24.07 93.86 C-23.59 90.68 -23.13 87.51 -22.66 84.33 C-22.44 82.83 -22.22 81.32 -21.99 79.81 C-21.05 73.39 -20.35 66.96 -19.69 60.5 C-18.68 51.44 -17.26 42.42 -15.95 33.39 C-15.84 32.67 -15.74 31.95 -15.63 31.21 C-15.42 29.77 -15.21 28.34 -14.99 26.9 C-14.45 23.25 -14 19.62 -13.67 15.95 C-13.6 15.23 -13.53 14.5 -13.45 13.75 C-13.26 11.75 -13.1 9.74 -12.93 7.74 C-12.09 4.46 -12.09 4.46 -9.96 2.04 C-6.4 0.08 -4.05 -0.03 0 0 Z " fill="#E7232A" transform="translate(175.09375,51.5390625)"/>
<path d="M0 0 C1.03 -0 2.06 -0 3.12 -0 C4.19 -0 5.26 0 6.36 0.01 C7.41 0 8.47 0 9.55 -0 C20.99 0.01 20.99 0.01 26.54 1.13 C29.83 6.06 27.66 11.62 26.6 17.19 C26.21 19.13 25.81 21.07 25.42 23.01 C25.2 24.07 24.99 25.14 24.77 26.24 C23.46 32.69 22.13 39.14 20.8 45.59 C20.57 46.67 20.57 46.67 20.35 47.78 C19.59 51.44 18.83 55.11 18.07 58.77 C16.76 65.09 15.47 71.41 14.31 77.76 C14.14 78.72 13.96 79.69 13.78 80.69 C13.47 82.41 13.17 84.14 12.87 85.87 C12.06 90.4 10.95 94.13 8.54 98.13 C4.31 100.25 -1.31 99.32 -5.96 99.32 C-7.71 99.34 -7.71 99.34 -9.49 99.36 C-11.16 99.36 -11.16 99.36 -12.86 99.36 C-13.89 99.37 -14.91 99.37 -15.97 99.38 C-18.46 99.13 -18.46 99.13 -20.46 97.13 C-20.62 95.03 -20.62 95.03 -20.5 92.43 C-20.44 90.99 -20.44 90.99 -20.38 89.51 C-20.32 88.5 -20.26 87.49 -20.21 86.45 C-20.17 85.48 -20.13 84.52 -20.09 83.53 C-19.75 76.64 -18.92 69.88 -17.97 63.05 C-17.19 57.06 -16.66 51.05 -16.14 45.04 C-15.95 42.89 -15.76 40.74 -15.57 38.6 C-15.09 33.32 -14.62 28.04 -14.16 22.75 C-13.91 19.96 -13.65 17.17 -13.39 14.38 C-13.33 13.6 -13.26 12.81 -13.19 12.01 C-12.47 4.41 -12.47 4.41 -10.46 1.13 C-6.96 0.16 -3.62 0 0 0 Z " fill="#E7232A" transform="translate(406.45703125,210.8671875)"/>
<path d="M0 0 C2.04 1.21 3.69 2.47 5.42 4.09 C6.88 5.42 6.88 5.42 8.36 6.77 C11.45 11.74 12.2 16.63 10.91 22.37 C9.64 25.98 8.1 29.29 5.42 32.09 C4.76 32.09 4.1 32.09 3.42 32.09 C3.09 33.08 2.76 34.07 2.42 35.09 C-3.65 40.57 -10.15 41.16 -18 41.05 C-23.18 40.71 -26.59 39.61 -30.58 36.09 C-34.87 30.78 -35.25 26.07 -35.03 19.31 C-34.16 13.07 -31.31 8.38 -26.64 4.21 C-18.6 -1.37 -9.54 -3.38 0 0 Z " fill="#E7242B" transform="translate(409.578125,324.9140625)"/>
<path d="M0 0 C1.21 -0.01 2.41 -0.03 3.65 -0.04 C7.64 0.23 10.54 1.06 13.75 3.44 C17.67 8.66 17.66 14.94 17.06 21.19 C15.85 27.18 13.97 31.29 9.06 35.19 C8.4 35.19 7.74 35.19 7.06 35.19 C6.82 35.81 6.57 36.44 6.32 37.08 C4.39 40.32 1.99 40.63 -1.5 41.65 C-8.42 43.17 -15.26 42.45 -21.38 38.69 C-21.89 38.19 -22.41 37.7 -22.94 37.19 C-22.94 36.53 -22.94 35.87 -22.94 35.19 C-23.6 35.19 -24.26 35.19 -24.94 35.19 C-27.93 30.16 -27.53 24.86 -26.94 19.19 C-24.88 12.49 -20.4 6.47 -14.38 2.88 C-9.36 0.41 -5.61 0.03 0 0 Z " fill="#E7242B" transform="translate(229.9375,177.8125)"/>
<path d="M0 0 C1.28 -0.03 2.55 -0.06 3.87 -0.09 C8.16 0.45 10.24 1.67 13.56 4.38 C17.24 9.44 18.83 14.07 18.56 20.38 C17.44 26.31 15.05 32.23 10.56 36.38 C3.48 40.95 -4.02 44.52 -12.56 43 C-17.95 41.38 -21.48 38.13 -24.44 33.38 C-26.56 26.92 -26.24 20.35 -23.44 14.19 C-18.15 4.64 -10.84 0.11 0 0 Z " fill="#E8232A" transform="translate(193.4375,-0.375)"/>
<path d="M0 0 C0.7 -0 1.41 -0 2.13 -0.01 C3.62 -0.01 5.1 -0 6.59 0 C8.87 0.02 11.14 0 13.42 -0.01 C14.86 -0.01 16.31 -0 17.75 0 C19.07 0 20.38 0 21.74 0.01 C24.88 0.27 24.88 0.27 26.88 2.27 C27.07 4.87 27.07 4.87 27 7.89 C26.98 8.89 26.96 9.9 26.95 10.93 C26.92 11.7 26.9 12.47 26.88 13.27 C25.88 12.94 24.9 12.61 23.88 12.27 C23.88 10.95 23.88 9.63 23.88 8.27 C23.22 7.94 22.56 7.61 21.88 7.27 C22.87 7.27 23.85 7.27 24.88 7.27 C24.88 5.95 24.88 4.63 24.88 3.27 C15.97 2.94 7.06 2.61 -2.12 2.27 C-2.12 2.93 -2.12 3.59 -2.12 4.27 C-1.14 4.24 -0.15 4.22 0.87 4.2 C2.15 4.18 3.43 4.16 4.75 4.14 C6.66 4.11 6.66 4.11 8.62 4.07 C11.88 4.27 11.88 4.27 13.88 6.27 C8.59 6.27 3.31 6.27 -2.12 6.27 C-2.45 5.28 -2.78 4.29 -3.12 3.27 C-6.25 4.57 -6.25 4.57 -8.12 7.27 C-5.39 8.02 -2.84 8.43 -0.02 8.58 C0.74 8.62 1.49 8.67 2.27 8.71 C3.44 8.77 3.44 8.77 4.62 8.83 C5.81 8.89 5.81 8.89 7.03 8.96 C8.98 9.06 10.93 9.17 12.88 9.27 C12.88 8.61 12.88 7.95 12.88 7.27 C13.53 7.27 14.19 7.27 14.88 7.27 C14.88 13.87 14.88 20.47 14.88 27.27 C13.88 27.27 12.9 27.27 11.88 27.27 C12.2 22.32 12.53 17.37 12.88 12.27 C10.98 12.3 10.98 12.3 9.04 12.34 C7.38 12.35 5.72 12.37 4.06 12.39 C3.23 12.41 2.4 12.42 1.54 12.44 C0.73 12.45 -0.07 12.45 -0.89 12.46 C-2 12.48 -2 12.48 -3.13 12.49 C-5.12 12.27 -5.12 12.27 -8.12 10.27 C-8.25 11.4 -8.37 12.53 -8.5 13.7 C-9.07 18.3 -10.05 22.76 -11.12 27.27 C-10.47 27.27 -9.81 27.27 -9.12 27.27 C-8.65 31.63 -9.57 34.76 -11.12 38.77 C-13.16 44.05 -13.95 47.79 -12.12 53.27 C-12.78 53.27 -13.44 53.27 -14.12 53.27 C-13.79 54.26 -13.47 55.25 -13.12 56.27 C-13.78 56.27 -14.44 56.27 -15.12 56.27 C-14.82 57.12 -14.82 57.12 -14.5 58 C-14.02 60.86 -14.68 62 -16.06 64.52 C-16.44 65.22 -16.82 65.93 -17.21 66.66 C-17.67 67.45 -17.67 67.45 -18.12 68.27 C-18.78 68.27 -19.44 68.27 -20.12 68.27 C-19.82 65.52 -19.5 62.77 -19.19 60.02 C-19.1 59.24 -19.01 58.46 -18.92 57.66 C-18.79 56.53 -18.79 56.53 -18.66 55.38 C-18.58 54.68 -18.5 53.99 -18.42 53.28 C-18.12 51.23 -17.63 49.28 -17.12 47.27 C-16.81 44.6 -16.52 41.94 -16.25 39.27 C-15.51 32.35 -14.67 25.46 -13.69 18.58 C-13.58 17.75 -13.47 16.93 -13.35 16.08 C-11.98 6.74 -10.54 0.02 0 0 Z " fill="#E12830" transform="translate(211.125,228.734375)"/>
<path d="M0 0 C1.31 -0.01 2.61 -0.02 3.96 -0.04 C5.21 -0.04 6.47 -0.04 7.76 -0.04 C9.47 -0.05 9.47 -0.05 11.21 -0.06 C15.48 0.28 18.27 1.15 21.31 4.19 C22.06 7.69 22.06 7.69 22.31 11.19 C21.65 11.85 20.99 12.51 20.31 13.19 C17.31 7.56 17.31 7.56 17.31 4.19 C7.74 3.86 -1.83 3.53 -11.69 3.19 C-11.69 4.18 -11.69 5.17 -11.69 6.19 C-12.78 6.62 -13.87 7.05 -15 7.5 C-17.86 8.71 -19.54 9.94 -21.69 12.19 C-24.38 13.38 -24.38 13.38 -26.69 14.19 C-26.69 15.51 -26.69 16.83 -26.69 18.19 C-27.68 18.19 -28.67 18.19 -29.69 18.19 C-29.69 18.85 -29.69 19.51 -29.69 20.19 C-30.35 20.19 -31.01 20.19 -31.69 20.19 C-31.36 21.18 -31.03 22.17 -30.69 23.19 C-31.31 23.23 -31.92 23.27 -32.56 23.31 C-33.26 23.6 -33.97 23.89 -34.69 24.19 C-35.99 27.18 -35.99 27.18 -36.69 30.19 C-35.7 30.52 -34.71 30.85 -33.69 31.19 C-36.18 32.43 -37.1 31.96 -39.69 31.19 C-37.79 24.91 -35.39 19.16 -32.31 13.38 C-31.94 12.64 -31.56 11.9 -31.18 11.14 C-28.94 6.89 -26.97 3.64 -22.69 1.19 C-15.29 -0.42 -7.54 0 0 0 Z " fill="#E3272D" transform="translate(121.6875,189.8125)"/>
<path d="M0 0 C0.33 0 0.66 0 1 0 C2.54 7.77 1.33 15.04 0.25 22.81 C-0.03 24.94 -0.31 27.07 -0.59 29.2 C-0.78 30.64 -0.97 32.09 -1.16 33.54 C-2.13 40.85 -2.95 48.17 -3.75 55.5 C-3.88 56.66 -4 57.82 -4.14 59.02 C-4.43 61.68 -4.71 64.34 -5 67 C8.32 69.6 21.74 69.41 35.25 69.56 C38.77 69.61 42.3 69.65 45.82 69.71 C48 69.74 50.18 69.76 52.36 69.79 C53.33 69.8 54.31 69.81 55.31 69.83 C56.17 69.84 57.03 69.85 57.92 69.86 C60 70 60 70 62 71 C62 76.61 62 82.22 62 88 C61.67 88 61.34 88 61 88 C60.34 83.05 59.68 78.1 59 73 C43.16 72.67 27.32 72.34 11 72 C11 72.66 11 73.32 11 74 C11.66 74 12.32 74 13 74 C13 74.99 13 75.98 13 77 C10.53 77.99 10.53 77.99 8 79 C8.88 74.25 8.88 74.25 10 72 C9.16 71.94 8.31 71.88 7.45 71.82 C5.8 71.69 5.8 71.69 4.12 71.56 C2.49 71.44 2.49 71.44 0.82 71.32 C-2 71 -2 71 -4 70 C-4 69.34 -4 68.68 -4 68 C-4.66 68 -5.32 68 -6 68 C-6.5 68.99 -6.5 68.99 -7 70 C-8.48 67.04 -8.06 64.28 -8 61 C-8 60.01 -8 59.02 -8 58 C-7.34 58 -6.68 58 -6 58 C-6.02 56.91 -6.04 55.81 -6.06 54.69 C-6 51 -6 51 -5 48 C-4.86 46.37 -4.78 44.73 -4.72 43.1 C-4.66 41.65 -4.66 41.65 -4.61 40.16 C-4.57 39.14 -4.54 38.12 -4.5 37.06 C-4.19 29.02 -3.81 21.01 -3 13 C-2.01 13 -1.02 13 0 13 C0 8.71 0 4.42 0 0 Z " fill="#DA373D" transform="translate(79,64)"/>
<path d="M0 0 C3.32 2.66 4.18 5.8 5.5 9.75 C6.8 13.6 8.1 17.39 9.88 21.06 C11.1 24.26 11.07 25.78 10 29 C5.15 30.57 1.12 31.24 -4.03 31.2 C-5.96 31.19 -5.96 31.19 -7.92 31.18 C-9.26 31.16 -10.6 31.14 -11.94 31.12 C-13.3 31.11 -14.67 31.11 -16.03 31.1 C-19.36 31.07 -22.68 31.04 -26 31 C-26.33 30.01 -26.66 29.02 -27 28 C-23.7 28.33 -20.4 28.66 -17 29 C-17 28.34 -17 27.68 -17 27 C-17.99 26.67 -18.98 26.34 -20 26 C-18.02 26 -16.04 26 -14 26 C-14 25.34 -14 24.68 -14 24 C-13.34 24.33 -12.68 24.66 -12 25 C-12.33 25.66 -12.66 26.32 -13 27 C-11.74 26.75 -11.74 26.75 -10.46 26.5 C-6.8 25.97 -3.37 25.94 0.31 26 C2.54 26.04 4.77 26.05 7 26 C7.5 25.5 7.5 25.5 8 25 C6.68 24.67 5.36 24.34 4 24 C4.66 23.34 5.32 22.68 6 22 C5.5 21.01 5.5 21.01 5 20 C4.36 20.19 3.72 20.37 3.06 20.56 C2.38 20.71 1.7 20.85 1 21 C0.67 20.67 0.34 20.34 0 20 C-2.45 19.85 -4.86 19.77 -7.31 19.75 C-7.99 19.73 -8.67 19.71 -9.37 19.69 C-13.55 19.65 -15.97 20.04 -19 23 C-18.67 21.02 -18.34 19.04 -18 17 C-13.38 16.67 -8.76 16.34 -4 16 C-4.33 15.01 -4.66 14.02 -5 13 C-3.68 13 -2.36 13 -1 13 C-1 13.66 -1 14.32 -1 15 C0.65 14.67 2.3 14.34 4 14 C4 13.34 4 12.68 4 12 C2.68 11.67 1.36 11.34 0 11 C0.66 8.69 1.32 6.38 2 4 C1.34 4 0.68 4 0 4 C0 2.68 0 1.36 0 0 Z " fill="#E4242A" transform="translate(463,161)"/>
<path d="M0 0 C1.03 -0 2.06 -0 3.12 -0 C4.19 -0 5.26 0 6.36 0.01 C7.41 0 8.47 0 9.55 -0 C20.99 0.01 20.99 0.01 26.54 1.13 C29.83 6.06 27.66 11.62 26.6 17.19 C26.21 19.13 25.81 21.07 25.42 23.01 C25.2 24.07 24.99 25.14 24.77 26.24 C23.46 32.69 22.13 39.14 20.8 45.59 C20.65 46.31 20.5 47.04 20.35 47.78 C20.2 48.5 20.05 49.23 19.89 49.98 C19.74 50.7 19.59 51.43 19.44 52.18 C19.13 53.65 18.83 55.11 18.53 56.58 C16.08 68.41 13.74 80.25 11.54 92.13 C11.21 92.13 10.88 92.13 10.54 92.13 C10.54 88.83 10.54 85.53 10.54 82.13 C11.2 82.13 11.86 82.13 12.54 82.13 C12.52 81.45 12.5 80.78 12.47 80.08 C12.34 73.49 12.99 67.53 14.54 61.13 C15.2 61.13 15.86 61.13 16.54 61.13 C16.54 57.17 16.54 53.21 16.54 49.13 C17.2 49.13 17.86 49.13 18.54 49.13 C18.52 47.83 18.5 46.53 18.48 45.2 C18.46 43.84 18.47 42.49 18.54 41.13 C18.87 40.8 19.2 40.47 19.54 40.13 C19.78 38.12 19.96 36.09 20.11 34.07 C20.19 32.97 20.27 31.86 20.36 30.72 C20.45 29.44 20.45 29.44 20.54 28.13 C21.2 28.13 21.86 28.13 22.54 28.13 C22.21 24.83 21.88 21.53 21.54 18.13 C22.2 18.13 22.86 18.13 23.54 18.13 C23.36 17.25 23.17 16.36 22.98 15.45 C22.56 12.28 22.74 10.18 23.54 7.13 C24.53 7.13 25.52 7.13 26.54 7.13 C26.05 4.66 26.05 4.66 25.54 2.13 C8.22 2.63 8.22 2.63 -9.46 3.13 C-9.46 5.44 -9.46 7.75 -9.46 10.13 C-9.7 12.24 -9.99 14.35 -10.33 16.45 C-10.58 17.99 -10.58 17.99 -10.82 19.56 C-11.46 22.13 -11.46 22.13 -13.46 24.13 C-13.34 21.24 -13.22 18.34 -13.08 15.45 C-13.05 14.63 -13.02 13.81 -12.99 12.97 C-12.57 4.42 -12.57 4.42 -10.46 1.13 C-6.95 0.17 -3.62 0 0 0 Z " fill="#D74E54" transform="translate(406.45703125,210.8671875)"/>
<path d="M0 0 C0.33 0 0.66 0 1 0 C1 8.25 1 16.5 1 25 C1.66 25.33 2.32 25.66 3 26 C3 26.66 3 27.32 3 28 C2.34 28 1.68 28 1 28 C0.67 28.99 0.34 29.98 0 31 C-0.33 31 -0.66 31 -1 31 C-1.5 35.95 -1.5 35.95 -2 41 C-2.66 41 -3.32 41 -4 41 C-3.99 41.82 -3.98 42.64 -3.96 43.48 C-3.96 44.56 -3.95 45.64 -3.94 46.75 C-3.93 47.82 -3.91 48.88 -3.9 49.98 C-4 53 -4 53 -4.49 54.89 C-5.05 57.22 -5.21 59.37 -5.32 61.77 C-5.36 62.66 -5.4 63.54 -5.44 64.46 C-5.48 65.38 -5.52 66.3 -5.56 67.25 C-5.61 68.19 -5.65 69.12 -5.69 70.09 C-5.8 72.39 -5.9 74.7 -6 77 C-6.66 77 -7.32 77 -8 77 C-7.67 83.27 -7.34 89.54 -7 96 C-9 95 -9 95 -10 94 C-10 99.94 -10 105.88 -10 112 C-9.34 112 -8.68 112 -8 112 C-7.51 111.01 -7.51 111.01 -7 110 C-7.33 112.64 -7.66 115.28 -8 118 C-10 117 -10 117 -11.11 114.3 C-14.15 103.05 -11.3 90.48 -9.79 79.15 C-9.06 73.61 -8.49 68.07 -8 62.5 C-6.1 41.57 -3.03 20.79 0 0 Z " fill="#D74B50" transform="translate(43,36)"/>
<path d="M0 0 C0 0.66 0 1.32 0 2 C0.66 2 1.32 2 2 2 C2 2.66 2 3.32 2 4 C2.66 4 3.32 4 4 4 C4 4.66 4 5.32 4 6 C2.68 5.67 1.36 5.34 0 5 C0 4.34 0 3.68 0 3 C-1.65 2.67 -3.3 2.34 -5 2 C-4.5 3.48 -4.5 3.48 -4 5 C-4.99 5 -5.98 5 -7 5 C-7.99 3.52 -7.99 3.52 -9 2 C-9.99 1.67 -10.98 1.34 -12 1 C-12 0.34 -12 -0.32 -12 -1 C-11.34 -1 -10.68 -1 -10 -1 C-10 -1.99 -10 -2.98 -10 -4 C-11.32 -4 -12.64 -4 -14 -4 C-14 -4.66 -14 -5.32 -14 -6 C-16.31 -6 -18.62 -6 -21 -6 C-21.33 -5.01 -21.66 -4.02 -22 -3 C-26 -3 -26 -3 -27.5 -4.44 C-28 -4.95 -28.49 -5.47 -29 -6 C-31.82 -6.92 -34.38 -7.12 -37.33 -7.1 C-38.53 -7.09 -38.53 -7.09 -39.75 -7.09 C-40.57 -7.08 -41.4 -7.07 -42.25 -7.06 C-43.09 -7.06 -43.93 -7.05 -44.8 -7.05 C-46.86 -7.04 -48.93 -7.02 -51 -7 C-51 -5.68 -51 -4.36 -51 -3 C-51.99 -3 -52.98 -3 -54 -3 C-54 -3.99 -54 -4.98 -54 -6 C-61.92 -6 -69.84 -6 -78 -6 C-78 -6.33 -78 -6.66 -78 -7 C-17.3 -14.65 -17.3 -14.65 0 0 Z " fill="#DC3E44" transform="translate(317,59)"/>
<path d="M0 0 C0.66 0 1.32 0 2 0 C2.33 5.61 2.66 11.22 3 17 C3.66 17 4.32 17 5 17 C5 18.32 5 19.64 5 21 C4.34 21 3.68 21 3 21 C3 24.96 3 28.92 3 33 C2.34 31.68 1.68 30.36 1 29 C-1.61 34.88 -1.18 40.71 -1 47 C-0.34 47.33 0.32 47.66 1 48 C0.67 48.99 0.34 49.98 0 51 C-0.66 51 -1.32 51 -2 51 C-2 53.31 -2 55.62 -2 58 C6.58 57.67 15.16 57.34 24 57 C21.35 59.65 20.1 59.26 16.41 59.27 C15.29 59.27 14.18 59.27 13.04 59.27 C11.87 59.27 10.7 59.26 9.5 59.25 C8.33 59.26 7.17 59.27 5.96 59.27 C4.85 59.27 3.74 59.27 2.59 59.27 C1.57 59.26 0.55 59.26 -0.51 59.26 C-3 59 -3 59 -5 57 C-5.17 54.9 -5.17 54.9 -5.05 52.3 C-4.99 50.87 -4.99 50.87 -4.92 49.41 C-4.84 47.88 -4.84 47.88 -4.75 46.31 C-4.7 45.27 -4.65 44.22 -4.59 43.14 C-4.22 36.29 -3.56 29.58 -2.54 22.79 C-1.87 18.06 -1.36 13.32 -0.88 8.56 C-0.79 7.71 -0.7 6.87 -0.61 5.99 C-0.4 3.99 -0.2 2 0 0 Z " fill="#DE3B43" transform="translate(391,251)"/>
<path d="M0 0 C0.99 0 1.98 0 3 0 C1.25 19.91 -1.27 39.58 -4.41 59.32 C-5.3 64.87 -6.15 70.44 -7 76 C-10.01 72.35 -10.01 72.35 -9.89 69.22 C-9.68 68.18 -9.47 67.14 -9.25 66.06 C-8.02 59.38 -7.42 52.77 -7 46 C-7.66 46 -8.32 46 -9 46 C-9 45.34 -9 44.68 -9 44 C-8.34 44 -7.68 44 -7 44 C-7.14 42.52 -7.29 41.04 -7.44 39.56 C-7.52 38.74 -7.6 37.92 -7.68 37.07 C-7.79 35.01 -7.79 35.01 -9 34 C-9.39 28.59 -8.91 23.33 -8 18 C-7.67 18 -7.34 18 -7 18 C-7 23.28 -7 28.56 -7 34 C-6.34 34 -5.68 34 -5 34 C-4.67 33.34 -4.34 32.68 -4 32 C-3.67 32.33 -3.34 32.66 -3 33 C-2.94 31.87 -2.88 30.74 -2.82 29.57 C-2.73 28.09 -2.65 26.61 -2.56 25.12 C-2.52 24.38 -2.48 23.63 -2.44 22.86 C-2.11 17.23 -2.11 17.23 -1 15 C-0.77 12.45 -0.58 9.93 -0.44 7.38 C-0.39 6.67 -0.35 5.96 -0.31 5.23 C-0.2 3.49 -0.1 1.74 0 0 Z " fill="#E12E34" transform="translate(397,47)"/>
<path d="M0 0 C0.33 0 0.66 0 1 0 C1.19 1.62 1.38 3.25 1.56 4.88 C1.67 5.78 1.77 6.68 1.88 7.62 C2 10 2 10 1 12 C0.01 12 -0.98 12 -2 12 C-2 12.66 -2 13.32 -2 14 C-2.66 14 -3.32 14 -4 14 C-3.67 15.32 -3.34 16.64 -3 18 C-2.67 17.67 -2.34 17.34 -2 17 C0.22 16.91 2.44 16.89 4.66 16.9 C5.66 16.9 5.66 16.9 6.67 16.91 C8.8 16.91 10.93 16.92 13.06 16.94 C14.5 16.94 15.94 16.95 17.38 16.95 C20.92 16.96 24.46 16.98 28 17 C28 17.66 28 18.32 28 19 C23.38 19.33 18.76 19.66 14 20 C14 20.33 14 20.66 14 21 C7.73 21 1.46 21 -5 21 C-5.33 22.65 -5.66 24.3 -6 26 C-5.04 25.99 -5.04 25.99 -4.06 25.98 C-1.1 25.96 1.85 25.95 4.81 25.94 C5.82 25.93 6.82 25.92 7.86 25.91 C14.63 25.89 21.27 26.26 28 27 C28 27.33 28 27.66 28 28 C23.03 28.02 18.07 28.04 13.1 28.05 C11.41 28.06 9.72 28.07 8.03 28.08 C5.6 28.09 3.18 28.09 0.75 28.1 C-0.39 28.11 -0.39 28.11 -1.55 28.11 C-3.37 28.11 -5.18 28.06 -7 28 C-8 27 -8 27 -8.5 23.38 C-8.49 17.03 -5.42 11.8 -2.63 6.26 C-0.96 3.1 -0.96 3.1 0 0 Z " fill="#E14148" transform="translate(35,321)"/>
<path d="M0 0 C0.99 0.66 1.98 1.32 3 2 C2.34 2 1.68 2 1 2 C1 2.99 1 3.98 1 5 C1.66 5.33 2.32 5.66 3 6 C2.34 7.65 1.68 9.3 1 11 C-0.32 11 -1.64 11 -3 11 C-2.89 16.27 -2.89 16.27 -0.44 20.56 C1 22 1 22 1.31 25.44 C1.03 28.62 0.69 30.36 -1 33 C-1.33 32.01 -1.66 31.02 -2 30 C-2.66 30 -3.32 30 -4 30 C-4 29.01 -4 28.02 -4 27 C-3.34 27 -2.68 27 -2 27 C-2.99 26.01 -3.98 25.02 -5 24 C-5.29 24.78 -5.58 25.57 -5.88 26.38 C-7 29 -7 29 -9 31 C-9.33 30.67 -9.66 30.34 -10 30 C-10.1 30.62 -10.21 31.24 -10.31 31.88 C-11 34 -11 34 -14 36 C-15.06 38.71 -15.85 41.45 -16.61 44.25 C-18.1 49.31 -19.33 52.09 -24 55 C-22.61 50.31 -20.66 46 -18.61 41.57 C-16.55 37 -14.59 32.37 -12.62 27.75 C-8.64 18.4 -4.55 9.1 0 0 Z " fill="#E22C34" transform="translate(60,266)"/>
<path d="M0 0 C0.7 0 1.39 0.01 2.11 0.01 C4.32 0.03 6.54 0.07 8.75 0.11 C10.24 0.12 11.73 0.13 13.22 0.14 C25.01 0.25 25.01 0.25 28.75 1.43 C29.05 9.63 28.19 17.35 26.75 25.43 C26.42 25.43 26.09 25.43 25.75 25.43 C25.72 23.84 25.7 22.26 25.69 20.68 C25.68 19.79 25.66 18.91 25.65 18 C25.79 12.8 26.32 7.61 26.75 2.43 C10.42 2.92 10.42 2.92 -6.25 3.43 C-5.92 4.09 -5.59 4.75 -5.25 5.43 C-6.57 5.43 -7.89 5.43 -9.25 5.43 C-9.15 6.25 -9.06 7.07 -8.96 7.91 C-8.85 8.99 -8.74 10.07 -8.62 11.18 C-8.51 12.24 -8.39 13.31 -8.27 14.41 C-8.25 17.61 -8.85 18.66 -10.25 21.43 C-10.35 24.78 -10.18 28.08 -10.03 31.43 C-10.25 34.43 -10.25 34.43 -11.63 36.33 C-13.25 37.43 -13.25 37.43 -15.25 37.43 C-13.51 17.47 -13.51 17.47 -12.38 9.36 C-12.25 8.49 -12.13 7.61 -12.01 6.7 C-9.95 0.51 -6.03 -0.07 0 0 Z " fill="#D64C50" transform="translate(376.25,4.57421875)"/>
<path d="M0 0 C0.33 0 0.66 0 1 0 C1.03 2.21 1.05 4.42 1.06 6.62 C1.07 7.85 1.09 9.08 1.1 10.35 C1.01 13.7 0.56 16.71 0 20 C-0.29 23.66 -0.44 27.32 -0.61 30.99 C-0.77 34.2 -0.98 36.93 -2 40 C4.93 40.33 11.86 40.66 19 41 C19 40.01 19 39.02 19 38 C19.55 38.14 20.1 38.29 20.67 38.43 C23.19 39.05 25.71 39.56 28.25 40.06 C29.14 40.24 30.03 40.42 30.95 40.6 C31.63 40.73 32.3 40.86 33 41 C33 39.02 33 37.04 33 35 C33.66 35 34.32 35 35 35 C34.99 33.94 34.98 32.88 34.96 31.79 C34.96 30.4 34.95 29.01 34.94 27.62 C34.93 26.93 34.92 26.23 34.91 25.51 C34.89 20.23 34.89 20.23 36 18 C36.66 18 37.32 18 38 18 C38.15 23.12 37.63 27.83 36.56 32.81 C36.43 33.48 36.29 34.15 36.15 34.83 C35.15 39.71 35.15 39.71 34 42 C32.18 42.43 32.18 42.43 29.8 42.67 C28.49 42.8 28.49 42.8 27.15 42.94 C25.75 43.06 25.75 43.06 24.31 43.19 C23.36 43.27 22.42 43.36 21.44 43.45 C13.02 44.14 4.12 44.71 -4 42 C-4.28 32.99 -3.18 24.28 -2 15.38 C-1.81 13.88 -1.61 12.38 -1.42 10.89 C-0.95 7.26 -0.48 3.63 0 0 Z " fill="#D73D42" transform="translate(348,129)"/>
<path d="M0 0 C0.5 1.49 0.5 1.49 1 3 C0.67 3.66 0.34 4.32 0 5 C1.32 4.67 2.64 4.34 4 4 C3.72 6.27 3.42 8.54 3.12 10.81 C2.96 12.08 2.8 13.34 2.63 14.64 C2 18 2 18 0 21 C-2.08 21.43 -2.08 21.43 -4.74 21.51 C-5.77 21.55 -6.79 21.58 -7.85 21.62 C-8.99 21.64 -10.14 21.66 -11.31 21.69 C-13.1 21.74 -13.1 21.74 -14.92 21.79 C-34.27 22.25 -53.64 22.08 -73 22 C-73 21.67 -73 21.34 -73 21 C-72.1 20.94 -71.19 20.88 -70.26 20.82 C-68.49 20.69 -68.49 20.69 -66.69 20.56 C-64.93 20.44 -64.93 20.44 -63.14 20.32 C-59.97 20.11 -59.97 20.11 -57 19 C-55.17 18.91 -53.35 18.88 -51.52 18.89 C-50.4 18.89 -49.28 18.89 -48.12 18.89 C-46.91 18.89 -45.7 18.9 -44.46 18.9 C-43.22 18.9 -41.98 18.91 -40.7 18.91 C-37.41 18.91 -34.12 18.92 -30.83 18.93 C-27.48 18.94 -24.12 18.95 -20.76 18.95 C-14.17 18.96 -7.59 18.98 -1 19 C-0.82 17.59 -0.64 16.19 -0.47 14.78 C-0.37 13.99 -0.27 13.21 -0.17 12.4 C-0 10.01 -0.16 7.93 -0.5 5.56 C-1 2 -1 2 0 0 Z " fill="#DF464A" transform="translate(136,150)"/>
<path d="M0 0 C0 0.66 0 1.32 0 2 C-0.93 2.02 -1.85 2.04 -2.81 2.06 C-6.28 2.14 -9.76 2.23 -13.23 2.32 C-14.73 2.36 -16.23 2.39 -17.72 2.42 C-19.89 2.47 -22.05 2.53 -24.22 2.59 C-26.17 2.63 -26.17 2.63 -28.15 2.68 C-32.33 3.03 -35.95 3.93 -40 5 C-42.81 4.97 -45.21 4.5 -48 4 C-47.67 4.66 -47.34 5.32 -47 6 C-44.47 6.66 -44.47 6.66 -42 7 C-42.33 8.65 -42.66 10.3 -43 12 C-44.65 12 -46.3 12 -48 12 C-48 11.01 -48 10.02 -48 9 C-51.3 8.67 -54.6 8.34 -58 8 C-58 6.68 -58 5.36 -58 4 C-61.63 4 -65.26 4 -69 4 C-69 3.67 -69 3.34 -69 3 C-45.96 0.81 -23.14 -0.2 0 0 Z " fill="#E13239" transform="translate(362,411)"/>
<path d="M0 0 C3.3 0 6.6 0 10 0 C9.67 1.32 9.34 2.64 9 4 C13.29 4.33 17.58 4.66 22 5 C22 5.33 22 5.66 22 6 C20.89 6.09 20.89 6.09 19.76 6.18 C-0.02 7.81 -19.63 10.19 -39.27 13.02 C-40.19 13.15 -41.11 13.28 -42.05 13.41 C-43.77 13.66 -45.49 13.91 -47.2 14.16 C-52.19 14.87 -56.96 15.11 -62 15 C-60 13 -60 13 -57.18 12.8 C-56.09 12.83 -55 12.85 -53.88 12.88 C-52.78 12.89 -51.68 12.91 -50.55 12.93 C-49.71 12.95 -48.87 12.98 -48 13 C-48 12.34 -48 11.68 -48 11 C-46.95 10.94 -45.9 10.88 -44.82 10.82 C-43.45 10.73 -42.07 10.65 -40.69 10.56 C-40 10.52 -39.31 10.48 -38.6 10.44 C-35.53 10.25 -32.93 9.98 -30 9 C-27.69 8.69 -25.38 8.4 -23.06 8.12 C-17.03 7.38 -11.26 6.21 -5.39 4.59 C-3 4 -3 4 0 4 C0 2.68 0 1.36 0 0 Z " fill="#E0363C" transform="translate(326,422)"/>
<path d="M0 0 C0.5 2.48 0.5 2.48 1 5 C-5.59 10.93 -13.51 12.31 -22 14 C-22.84 14.18 -23.67 14.36 -24.53 14.55 C-33.93 16.4 -43.22 16.23 -52.75 16.12 C-54.43 16.11 -56.11 16.11 -57.79 16.1 C-61.86 16.08 -65.93 16.04 -70 16 C-70 15.67 -70 15.34 -70 15 C-62.08 14.67 -54.16 14.34 -46 14 C-46 13.34 -46 12.68 -46 12 C-44 10 -44 10 -40.62 9.75 C-37 10 -37 10 -35.09 11 C-32.54 12.22 -30.69 12.23 -27.88 12.19 C-27.01 12.18 -26.14 12.17 -25.24 12.17 C-22.96 12.14 -22.96 12.14 -21 11 C-18.33 10.87 -15.68 10.96 -13 11 C-13.5 7.54 -13.5 7.54 -14 4 C-13.01 4 -12.02 4 -11 4 C-11 5.32 -11 6.64 -11 8 C-9.02 7.67 -7.04 7.34 -5 7 C-5 6.34 -5 5.68 -5 5 C-6.32 4.67 -7.64 4.34 -9 4 C-2.25 0 -2.25 0 0 0 Z " fill="#DD3D43" transform="translate(353,336)"/>
<path d="M0 0 C0.66 0 1.32 0 2 0 C2 1.98 2 3.96 2 6 C2.66 6 3.32 6 4 6 C4 6.99 4 7.98 4 9 C5.65 9.33 7.3 9.66 9 10 C9 9.34 9 8.68 9 8 C9.99 7.67 10.98 7.34 12 7 C12 7.66 12 8.32 12 9 C12.66 9 13.32 9 14 9 C14 9.66 14 10.32 14 11 C14.99 11 15.98 11 17 11 C16.34 13.97 15.68 16.94 15 20 C15.66 20 16.32 20 17 20 C17 20.99 17 21.98 17 23 C18.32 23.66 19.64 24.32 21 25 C21 25.66 21 26.32 21 27 C22.07 27.14 23.14 27.29 24.25 27.44 C26.92 27.84 29.41 28.28 32 29 C32 29.66 32 30.32 32 31 C20.93 29.14 12.68 25.53 5.97 16.17 C-0.14 6.61 -0.14 6.61 0 0 Z " fill="#E5252B" transform="translate(251,320)"/>
<path d="M0 0 C2.98 4.48 3.55 9.04 2.57 14.34 C0.1 22.47 -3.18 27.33 -10.75 31.38 C-17.62 34.51 -23.21 36.2 -30.5 33.69 C-34 32 -34 32 -35 30 C-30.38 30.99 -25.76 31.98 -21 33 C-21 32.34 -21 31.68 -21 31 C-20.01 31 -19.02 31 -18 31 C-18 30.34 -18 29.68 -18 29 C-18.99 28.67 -19.98 28.34 -21 28 C-20.05 28.02 -19.1 28.04 -18.12 28.06 C-15.09 28.23 -15.09 28.23 -13 27 C-12.67 26.01 -12.34 25.02 -12 24 C-11.34 24.33 -10.68 24.66 -10 25 C-10 25.66 -10 26.32 -10 27 C-9.34 26.67 -8.68 26.34 -8 26 C-8.33 25.01 -8.66 24.02 -9 23 C-10.98 22.67 -12.96 22.34 -15 22 C-15 20.68 -15 19.36 -15 18 C-12.36 18 -9.72 18 -7 18 C-6.67 19.98 -6.34 21.96 -6 24 C-5.34 24 -4.68 24 -4 24 C-4.5 21.52 -4.5 21.52 -5 19 C-4.01 19 -3.02 19 -2 19 C-2.5 17.52 -2.5 17.52 -3 16 C-2.34 15.67 -1.68 15.34 -1 15 C-0.53 12.55 -0.53 12.55 -0.38 9.69 C-0.3 8.72 -0.23 7.76 -0.15 6.76 C-0.03 4.51 0 2.25 0 0 Z " fill="#E4252B" transform="translate(209,8)"/>
<path d="M0 0 C0 0.33 0 0.66 0 1 C-1.04 1.2 -2.08 1.39 -3.14 1.59 C-14.73 3.83 -26.25 6.37 -37.75 9 C-38.48 9.17 -39.22 9.33 -39.97 9.51 C-49.69 11.72 -49.69 11.72 -59.36 14.11 C-60.07 14.29 -60.78 14.47 -61.51 14.65 C-63.45 15.15 -65.39 15.66 -67.33 16.17 C-77.88 18.56 -77.88 18.56 -81 17 C-81 16.34 -81 15.68 -81 15 C-72.59 14.5 -72.59 14.5 -64 14 C-64 12.68 -64 11.36 -64 10 C-62.92 9.89 -61.85 9.78 -60.74 9.67 C-52.54 8.79 -44.64 7.66 -36.64 5.59 C-34 5 -34 5 -30 5 C-30 4.34 -30 3.68 -30 3 C-25.71 3 -21.42 3 -17 3 C-17 2.34 -17 1.68 -17 1 C-11.28 0.17 -5.78 -0.12 0 0 Z " fill="#D8444B" transform="translate(132,460)"/>
<path d="M0 0 C7.8 6.84 9.8 19.33 10.86 29.2 C11.4 39.44 10.03 49.82 9 60 C8.67 60 8.34 60 8 60 C7.99 59.08 7.97 58.15 7.96 57.2 C7.89 53.77 7.82 50.35 7.74 46.92 C7.7 45.44 7.68 43.95 7.65 42.47 C7.62 40.34 7.57 38.21 7.51 36.07 C7.49 34.79 7.46 33.51 7.43 32.19 C6.97 28.79 6.58 28.06 4 26 C3.08 23.08 2.91 21.37 3.62 18.38 C3.75 17.59 3.87 16.81 4 16 C3.51 15.55 3.01 15.11 2.5 14.64 C1 13 1 13 0.93 10.74 C1.05 9.94 1.18 9.14 1.31 8.31 C1.43 7.5 1.55 6.7 1.68 5.86 C1.78 5.25 1.89 4.63 2 4 C1.01 3.67 0.02 3.34 -1 3 C-0.67 2.01 -0.34 1.02 0 0 Z " fill="#DB3E44" transform="translate(321,65)"/>
<path d="M0 0 C1.21 0.25 1.21 0.25 2.44 0.5 C4.73 1.03 4.73 1.03 6 1 C6.33 1.66 6.66 2.32 7 3 C7.66 3 8.32 3 9 3 C9 2.34 9 1.68 9 1 C10.65 1 12.3 1 14 1 C14 1.66 14 2.32 14 3 C16.15 2.69 18.29 2.38 20.44 2.06 C21.63 1.89 22.83 1.71 24.06 1.54 C26.88 1.31 26.88 1.31 28 0 C29.67 -0.04 31.33 -0.04 33 0 C33.5 0.99 33.5 0.99 34 2 C20.52 4.71 7.07 6.91 -6.56 8.68 C-11.72 9.36 -16.86 10.18 -22 11 C-22 10.34 -22 9.68 -22 9 C-18.53 8.5 -18.53 8.5 -15 8 C-15.33 6.68 -15.66 5.36 -16 4 C-15.01 3.67 -14.02 3.34 -13 3 C-12.67 3.33 -12.34 3.66 -12 4 C-11.01 4 -10.02 4 -9 4 C-9.33 4.66 -9.66 5.32 -10 6 C-6.7 5.34 -3.4 4.68 0 4 C0 2.68 0 1.36 0 0 Z " fill="#E72931" transform="translate(208,439)"/>
<path d="M0 0 C0.66 0 1.32 0 2 0 C2 1.98 2 3.96 2 6 C2.99 6 3.98 6 5 6 C4.67 6.66 4.34 7.32 4 8 C3.34 7.67 2.68 7.34 2 7 C2 8.98 2 10.96 2 13 C1.34 13 0.68 13 0 13 C0.06 14.33 0.06 14.33 0.12 15.69 C0 18.97 -0.61 21.05 -2 24 C-1.01 24 -0.02 24 1 24 C1.33 23.01 1.66 22.02 2 21 C2.66 21.33 3.32 21.66 4 22 C4.66 20.35 5.32 18.7 6 17 C6.33 17 6.66 17 7 17 C7 18.98 7 20.96 7 23 C13.93 23 20.86 23 28 23 C28 23.66 28 24.32 28 25 C27.25 24.98 26.5 24.95 25.73 24.93 C16.33 24.76 8.35 25.43 0 30 C-2.38 30.69 -2.38 30.69 -4 31 C-4.26 24.12 -3.25 17.75 -2 11 C-1.71 9.41 -1.71 9.41 -1.42 7.79 C-0.95 5.19 -0.48 2.59 0 0 Z " fill="#DE353C" transform="translate(215,138)"/>
<path d="M0 0 C0.99 0 1.98 0 3 0 C2.82 1.24 2.64 2.47 2.45 3.75 C2.19 5.5 1.94 7.25 1.69 9 C1.55 9.93 1.42 10.86 1.28 11.81 C0.53 17.05 -0.17 22.28 -0.8 27.53 C-0.93 28.6 -1.05 29.67 -1.19 30.77 C-1.43 32.85 -1.67 34.92 -1.91 37 C-2.49 41.9 -3.18 46.37 -5 51 C-7.17 50.49 -9 50 -11 49 C-11 48.34 -11 47.68 -11 47 C-9.68 47 -8.36 47 -7 47 C-7.33 45.02 -7.66 43.04 -8 41 C-7.34 41 -6.68 41 -6 41 C-6.02 39.75 -6.05 38.49 -6.07 37.2 C-6.09 35.55 -6.11 33.9 -6.12 32.25 C-6.14 31.43 -6.16 30.6 -6.18 29.75 C-6.18 28.95 -6.19 28.15 -6.2 27.33 C-6.21 26.59 -6.22 25.86 -6.23 25.11 C-5.97 22.7 -5.19 21.09 -4 19 C-3.34 19 -2.68 19 -2 19 C-1.34 12.73 -0.68 6.46 0 0 Z " fill="#DB3B42" transform="translate(255,116)"/>
<path d="M0 0 C9.06 -0.15 17.98 0.31 27 1 C27.33 1.99 27.66 2.98 28 4 C26.45 6.35 26.45 6.35 24.12 9.06 C23.3 10.03 22.48 11 21.63 12 C18.38 15.71 15.09 19.38 11.75 23 C9.95 24.88 9.95 24.88 9 27 C8.34 27 7.68 27 7 27 C6.34 28.32 5.68 29.64 5 31 C4.67 31 4.34 31 4 31 C3.67 28.36 3.34 25.72 3 23 C3.66 23 4.32 23 5 23 C5 23.66 5 24.32 5 25 C5.66 25 6.32 25 7 25 C7 23.02 7 21.04 7 19 C7.66 18.67 8.32 18.34 9 18 C9 18.66 9 19.32 9 20 C10.32 20 11.64 20 13 20 C12.67 18.02 12.34 16.04 12 14 C12.66 14 13.32 14 14 14 C14 14.66 14 15.32 14 16 C14.66 15.67 15.32 15.34 16 15 C16.33 14.01 16.66 13.02 17 12 C16.34 12 15.68 12 15 12 C15 11.01 15 10.02 15 9 C16.65 9 18.3 9 20 9 C19.67 7.68 19.34 6.36 19 5 C20.98 5 22.96 5 25 5 C25 4.01 25 3.02 25 2 C16.75 2 8.5 2 0 2 C0 1.34 0 0.68 0 0 Z " fill="#DF4348" transform="translate(451,53)"/>
<path d="M0 0 C1.19 -0 1.19 -0 2.39 -0.01 C4.06 -0.01 5.73 -0 7.4 0 C9.96 0.02 12.52 0 15.08 -0.01 C16.7 -0.01 18.32 -0 19.94 0 C20.71 -0 21.47 -0.01 22.26 -0.01 C27.67 0.04 27.67 0.04 29.9 2.27 C30.1 4.43 30.1 4.43 30.03 6.89 C30.01 7.71 29.99 8.53 29.97 9.37 C29.95 9.99 29.93 10.62 29.9 11.27 C28.4 9.89 28.4 9.89 26.9 8.27 C26.9 7.61 26.9 6.95 26.9 6.27 C26.24 6.27 25.58 6.27 24.9 6.27 C24.57 6.93 24.24 7.59 23.9 8.27 C23.41 5.3 23.41 5.3 22.9 2.27 C19.38 2.27 15.86 2.51 12.34 2.7 C11.55 2.74 10.75 2.78 9.94 2.82 C6.1 2.68 6.1 2.68 2.9 4.27 C-1.41 4.65 -5.01 3.55 -9.1 2.27 C-9.06 3.11 -9.02 3.96 -8.97 4.83 C-9.11 8.69 -9.93 11.6 -11.1 15.27 C-11.76 14.94 -12.42 14.61 -13.1 14.27 C-12.84 12.31 -12.57 10.35 -12.29 8.39 C-12.13 7.3 -11.98 6.21 -11.83 5.09 C-10.27 -0.94 -5.17 -0.03 0 0 Z " fill="#D93B3F" transform="translate(58.09765625,11.734375)"/>
<path d="M0 0 C0.7 -0 1.41 -0 2.13 -0.01 C3.62 -0.01 5.1 -0 6.59 0 C8.87 0.02 11.14 0 13.42 -0.01 C14.86 -0.01 16.31 -0 17.75 0 C19.07 0 20.38 0 21.74 0.01 C24.88 0.27 24.88 0.27 26.88 2.27 C27.07 4.87 27.07 4.87 27 7.89 C26.98 8.89 26.96 9.9 26.95 10.93 C26.92 11.7 26.9 12.47 26.88 13.27 C25.88 12.94 24.9 12.61 23.88 12.27 C23.88 10.95 23.88 9.63 23.88 8.27 C23.22 7.94 22.56 7.61 21.88 7.27 C22.87 7.27 23.85 7.27 24.88 7.27 C24.88 5.95 24.88 4.63 24.88 3.27 C15.97 2.94 7.06 2.61 -2.12 2.27 C-2.12 2.93 -2.12 3.59 -2.12 4.27 C-1.14 4.24 -0.15 4.22 0.87 4.2 C2.15 4.18 3.43 4.16 4.75 4.14 C6.66 4.11 6.66 4.11 8.62 4.07 C11.88 4.27 11.88 4.27 13.88 6.27 C8.59 6.27 3.31 6.27 -2.12 6.27 C-2.46 5.28 -2.78 4.29 -3.12 3.27 C-5.12 4.06 -5.12 4.06 -7.12 5.27 C-7.46 6.26 -7.78 7.25 -8.12 8.27 C-9.12 8.27 -10.1 8.27 -11.12 8.27 C-8.91 0.98 -7.64 0.01 0 0 Z " fill="#E1555B" transform="translate(211.125,228.734375)"/>
<path d="M0 0 C0.66 0.66 1.32 1.32 2 2 C1.62 4.62 1.62 4.62 1 7 C-3.85 8.57 -7.88 9.24 -13.03 9.2 C-14.96 9.19 -14.96 9.19 -16.92 9.18 C-18.26 9.16 -19.6 9.14 -20.94 9.12 C-22.3 9.11 -23.67 9.11 -25.03 9.1 C-28.36 9.07 -31.68 9.04 -35 9 C-35.33 8.01 -35.66 7.02 -36 6 C-32.7 6.33 -29.4 6.66 -26 7 C-26 6.34 -26 5.68 -26 5 C-26.99 4.67 -27.98 4.34 -29 4 C-27.02 4 -25.04 4 -23 4 C-23 3.34 -23 2.68 -23 2 C-22.34 2.33 -21.68 2.66 -21 3 C-21.33 3.66 -21.66 4.32 -22 5 C-14.74 5.33 -7.48 5.66 0 6 C0 4.02 0 2.04 0 0 Z " fill="#D5353D" transform="translate(472,183)"/>
<path d="M0 0 C0 0.66 0 1.32 0 2 C-1.65 2.33 -3.3 2.66 -5 3 C-5.33 5.31 -5.66 7.62 -6 10 C-6.66 10 -7.32 10 -8 10 C-8 9.34 -8 8.68 -8 8 C-8.99 8 -9.98 8 -11 8 C-11 8.66 -11 9.32 -11 10 C-11.66 10 -12.32 10 -13 10 C-13 11.32 -13 12.64 -13 14 C-13.66 14 -14.32 14 -15 14 C-14.67 15.65 -14.34 17.3 -14 19 C-14.99 19.33 -15.98 19.66 -17 20 C-16.84 20.78 -16.67 21.57 -16.5 22.38 C-15.87 26.94 -15.92 31.4 -16 36 C-19.25 33.18 -19.76 30.94 -20.27 26.77 C-20.61 18.87 -18.45 12.76 -13.06 6.89 C-9.27 3.41 -5.39 0 0 0 Z " fill="#DA3B43" transform="translate(188,0)"/>
<path d="M0 0 C0.33 0 0.66 0 1 0 C1.06 0.7 1.12 1.4 1.18 2.12 C1.27 3.03 1.35 3.94 1.44 4.88 C1.52 5.78 1.6 6.68 1.68 7.62 C1.87 10.01 1.87 10.01 3 12 C2.91 13.55 2.76 15.09 2.56 16.62 C2.46 17.44 2.36 18.26 2.25 19.1 C2.17 19.73 2.09 20.35 2 21 C1.34 21 0.68 21 0 21 C0.66 24.63 1.32 28.26 2 32 C1.34 32 0.68 32 0 32 C-1.16 35.47 -1.33 38.54 -1.56 42.19 C-1.69 44.1 -1.69 44.1 -1.82 46.04 C-1.91 47.51 -1.91 47.51 -2 49 C-2.66 49 -3.32 49 -4 49 C-5.31 41.22 -4.43 34.49 -3.12 26.75 C-1.66 17.84 -0.55 9.02 0 0 Z " fill="#DA3C41" transform="translate(155,112)"/>
<path d="M0 0 C0 0.66 0 1.32 0 2 C-9.97 4.01 -19.87 4.57 -30 5 C-30 5.66 -30 6.32 -30 7 C-31.65 7.66 -33.3 8.32 -35 9 C-35.33 8.01 -35.66 7.02 -36 6 C-41.94 6 -47.88 6 -54 6 C-51 4 -50.05 3.7 -46.62 3.41 C-45.74 3.33 -44.86 3.25 -43.95 3.16 C-43 3.09 -42.05 3.01 -41.07 2.93 C-40.09 2.84 -39.11 2.76 -38.1 2.67 C-36.03 2.49 -33.95 2.31 -31.88 2.14 C-28.71 1.88 -25.54 1.6 -22.38 1.32 C-20.36 1.15 -18.34 0.98 -16.32 0.8 C-15.38 0.72 -14.44 0.64 -13.46 0.56 C-8.96 0.19 -4.52 -0.1 0 0 Z " fill="#D8494E" transform="translate(291,415)"/>
<path d="M0 0 C0 0.66 0 1.32 0 2 C-4.95 2 -9.9 2 -15 2 C-15 2.66 -15 3.32 -15 4 C-16.32 4 -17.64 4 -19 4 C-19 4.66 -19 5.32 -19 6 C-19.58 6.08 -20.16 6.17 -20.75 6.25 C-23.61 7.2 -24.93 8.86 -27 11 C-27.66 11 -28.32 11 -29 11 C-28.67 9.35 -28.34 7.7 -28 6 C-29.95 6.07 -31.91 6.13 -33.86 6.2 C-36.3 5.97 -37.89 5.21 -40 4 C-39.16 3.89 -38.32 3.78 -37.46 3.67 C-36.25 3.51 -35.05 3.35 -33.81 3.19 C-33.16 3.1 -32.51 3.02 -31.83 2.93 C-27.7 2.38 -23.59 1.79 -19.47 1.16 C-18.53 1.02 -17.59 0.88 -16.63 0.74 C-14.77 0.46 -12.92 0.17 -11.06 -0.12 C-10.2 -0.25 -9.34 -0.38 -8.46 -0.51 C-7.69 -0.63 -6.93 -0.75 -6.14 -0.87 C-3.87 -1.01 -2.16 -0.67 0 0 Z " fill="#DE383E" transform="translate(158,431)"/>
<path d="M0 0 C5.94 0 11.88 0 18 0 C18 0.33 18 0.66 18 1 C17.42 1.04 16.84 1.07 16.24 1.11 C9.19 1.71 4.46 3.25 -0.62 8.38 C-6.53 15.46 -8.29 25 -9 34 C-9.66 33.34 -10.32 32.68 -11 32 C-10.97 29.27 -10.44 26.7 -10 24 C-10.66 24 -11.32 24 -12 24 C-12 23.01 -12 22.02 -12 21 C-11.01 21 -10.02 21 -9 21 C-8.67 19.02 -8.34 17.04 -8 15 C-7.34 15 -6.68 15 -6 15 C-5.67 12.69 -5.34 10.38 -5 8 C-5.66 7.67 -6.32 7.34 -7 7 C-6.34 7 -5.68 7 -5 7 C-4.67 6.34 -4.34 5.68 -4 5 C-2.68 5.33 -1.36 5.66 0 6 C0 4.02 0 2.04 0 0 Z " fill="#DE424A" transform="translate(299,261)"/>
<path d="M0 0 C1.02 0.01 1.02 0.01 2.06 0.02 C4.22 0.04 6.38 0.09 8.54 0.14 C10.01 0.16 11.48 0.18 12.96 0.2 C16.55 0.24 20.14 0.31 23.73 0.39 C23.73 0.72 23.73 1.05 23.73 1.39 C10.37 1.89 10.37 1.89 -3.27 2.39 C-3.27 3.05 -3.27 3.71 -3.27 4.39 C-5.25 4.39 -7.23 4.39 -9.27 4.39 C-9.33 5.68 -9.39 6.97 -9.45 8.29 C-9.54 9.97 -9.62 11.65 -9.71 13.33 C-9.75 14.18 -9.79 15.03 -9.83 15.9 C-9.87 16.71 -9.91 17.52 -9.95 18.36 C-10.01 19.48 -10.01 19.48 -10.06 20.62 C-10.27 22.39 -10.27 22.39 -11.27 23.39 C-12.33 28.94 -12.33 28.94 -11.27 34.39 C-11.93 34.39 -12.59 34.39 -13.27 34.39 C-13.27 33.73 -13.27 33.07 -13.27 32.39 C-13.93 32.39 -14.59 32.39 -15.27 32.39 C-14.96 28.47 -14.63 24.56 -14.26 20.65 C-14.08 18.66 -13.93 16.68 -13.78 14.7 C-13.66 13.44 -13.54 12.19 -13.41 10.91 C-13.31 9.75 -13.22 8.6 -13.11 7.42 C-12.27 4.39 -12.27 4.39 -10.15 2.01 C-6.52 -0.03 -4.15 -0.07 0 0 Z " fill="#D84F56" transform="translate(175.26953125,51.609375)"/>
<path d="M0 0 C0.33 0.99 0.66 1.98 1 3 C-0.32 3 -1.64 3 -3 3 C-3 3.66 -3 4.32 -3 5 C-3.66 5 -4.32 5 -5 5 C-5 5.66 -5 6.32 -5 7 C-5.99 7 -6.98 7 -8 7 C-8 7.66 -8 8.32 -8 9 C-8.66 9 -9.32 9 -10 9 C-9.67 10.65 -9.34 12.3 -9 14 C-8.34 12.35 -7.68 10.7 -7 9 C-6.34 9 -5.68 9 -5 9 C-5.59 12.02 -6.23 15.02 -7 18 C-7.19 18.74 -7.37 19.48 -7.56 20.25 C-7.71 20.83 -7.85 21.41 -8 22 C-8.33 20.68 -8.66 19.36 -9 18 C-9.66 18 -10.32 18 -11 18 C-11.33 19.98 -11.66 21.96 -12 24 C-12.66 24 -13.32 24 -14 24 C-13.94 25.92 -13.94 25.92 -13.88 27.88 C-13.8 30.05 -13.8 30.05 -14 32 C-14.66 32.66 -15.32 33.32 -16 34 C-15.6 24.56 -14.87 10.2 -7.94 3.06 C-5.19 1.13 -3.39 0 0 0 Z " fill="#DC3D45" transform="translate(239,53)"/>
<path d="M0 0 C8.25 0 16.5 0 25 0 C25 0.33 25 0.66 25 1 C24.03 1.08 23.07 1.16 22.07 1.24 C18.4 1.55 14.74 1.86 11.07 2.17 C9.44 2.31 7.82 2.44 6.19 2.58 C-2.73 3.33 -11.62 4.13 -20.5 5.25 C-26.79 6.03 -32.73 6.02 -39 5 C-39 4.67 -39 4.34 -39 4 C-34.05 4 -29.1 4 -24 4 C-24 3.34 -24 2.68 -24 2 C-16.08 2 -8.16 2 0 2 C0 1.34 0 0.68 0 0 Z " fill="#D94E53" transform="translate(383,421)"/>
<path d="M0 0 C3.76 2.51 3.99 3.64 5 8 C5.66 14.68 5.02 20.93 2 27 C1.34 27.33 0.68 27.66 0 28 C-0.22 25.96 -0.43 23.92 -0.62 21.88 C-0.74 20.74 -0.86 19.6 -0.98 18.43 C-1 14.83 -0.32 12.32 1 9 C0.67 8.67 0.34 8.34 0 8 C-0.14 5.33 -0.04 2.68 0 0 Z " fill="#DE3338" transform="translate(242,181)"/>
<path d="M0 0 C0.33 0 0.66 0 1 0 C0.99 1.18 0.99 1.18 0.98 2.38 C0.96 5.96 0.95 9.54 0.94 13.12 C0.93 14.36 0.92 15.6 0.91 16.88 C0.91 18.07 0.91 19.27 0.9 20.51 C0.89 22.16 0.89 22.16 0.89 23.84 C0.93 27.03 0.93 27.03 1.59 30.23 C2 33 2 33 0.69 35.88 C0.13 36.58 -0.43 37.28 -1 38 C-1.66 38 -2.32 38 -3 38 C-3 39.98 -3 41.96 -3 44 C-3.66 44 -4.32 44 -5 44 C-4.92 43.31 -4.84 42.61 -4.76 41.9 C-3.14 27.94 -1.53 13.97 0 0 Z " fill="#D94046" transform="translate(356,70)"/>
<path d="M0 0 C0.99 0.33 1.98 0.66 3 1 C3 1.99 3 2.98 3 4 C3.99 4 4.98 4 6 4 C6.33 6.97 6.66 9.94 7 13 C9.97 13.5 9.97 13.5 13 14 C13 17.96 13 21.92 13 26 C13.66 26 14.32 26 15 26 C15.33 25.34 15.66 24.68 16 24 C15.67 26.97 15.34 29.94 15 33 C12.57 30.57 11.83 28.38 10.56 25.19 C8.98 21.2 7.23 17.65 5 14 C4.44 12.7 3.91 11.39 3.44 10.06 C3.19 9.38 2.95 8.7 2.7 8 C1.77 5.34 0.87 2.68 0 0 Z " fill="#DD454B" transform="translate(414,143)"/>
<path d="M0 0 C1.38 2.66 2.37 5.06 3 8 C3.66 8 4.32 8 5 8 C5 9.65 5 11.3 5 13 C6.65 13.33 8.3 13.66 10 14 C9.01 14.66 8.02 15.32 7 16 C8.32 16.66 9.64 17.32 11 18 C11 18.66 11 19.32 11 20 C16.28 20.33 21.56 20.66 27 21 C21.44 23.78 17.16 23.47 11.25 22.19 C8.28 21.1 6.27 20.18 4 18 C4 17.34 4 16.68 4 16 C3.34 16 2.68 16 2 16 C-0.14 12.52 -0.21 9.79 -0.12 5.75 C-0.11 4.67 -0.09 3.59 -0.07 2.48 C-0.05 1.66 -0.02 0.84 0 0 Z " fill="#DB4851" transform="translate(203,197)"/>
<path d="M0 0 C0.33 0 0.66 0 1 0 C2.84 11.89 0.89 23.04 -0.94 34.81 C-1.23 36.78 -1.53 38.74 -1.82 40.71 C-2.53 45.47 -3.26 50.24 -4 55 C-4.33 55 -4.66 55 -5 55 C-6.03 47.01 -6.14 39.83 -4 32 C-3.67 31.67 -3.34 31.34 -3 31 C-2.93 28.14 -2.91 25.3 -2.94 22.44 C-2.94 21.63 -2.95 20.82 -2.95 19.99 C-2.96 18 -2.98 16 -3 14 C-2.34 14.33 -1.68 14.66 -1 15 C-0.67 10.05 -0.34 5.1 0 0 Z " fill="#D64246" transform="translate(235,244)"/>
<path d="M0 0 C0.33 0.66 0.66 1.32 1 2 C0.67 2.66 0.34 3.32 0 4 C-0.66 4 -1.32 4 -2 4 C-2.66 6.31 -3.32 8.62 -4 11 C-3.34 11 -2.68 11 -2 11 C-2 11.66 -2 12.32 -2 13 C-2.99 13.33 -3.98 13.66 -5 14 C-5.66 13.67 -6.32 13.34 -7 13 C-6.67 14.65 -6.34 16.3 -6 18 C-5.34 17.67 -4.68 17.34 -4 17 C-4.33 18.32 -4.66 19.64 -5 21 C-7.48 20.01 -7.48 20.01 -10 19 C-10.06 19.85 -10.12 20.71 -10.18 21.59 C-10.27 22.69 -10.35 23.8 -10.44 24.94 C-10.52 26.04 -10.6 27.14 -10.68 28.28 C-11 31 -11 31 -12 32 C-12.22 33.73 -12.22 33.73 -12.44 35.5 C-12.62 36.65 -12.81 37.81 -13 39 C-13.99 39.5 -13.99 39.5 -15 40 C-15.42 26.32 -10.7 11.32 -1.25 1.11 C-0.84 0.75 -0.43 0.38 0 0 Z " fill="#DA464E" transform="translate(264,249)"/>
<path d="M0 0 C0.55 2.08 1 3.84 1 6 C2.65 5.67 4.3 5.34 6 5 C5.34 6.32 4.68 7.64 4 9 C2.68 8.67 1.36 8.34 0 8 C-1.74 11.23 -2.89 14.51 -4 18 C-4.66 18 -5.32 18 -6 18 C-6 19.32 -6 20.64 -6 22 C-6.99 22 -7.98 22 -9 22 C-9.33 24.31 -9.66 26.62 -10 29 C-10.66 29 -11.32 29 -12 29 C-12.33 31.97 -12.66 34.94 -13 38 C-13.33 37.34 -13.66 36.68 -14 36 C-14.66 35.67 -15.32 35.34 -16 35 C-15.07 32.77 -14.13 30.54 -13.19 28.31 C-12.8 27.37 -12.8 27.37 -12.4 26.42 C-10.84 22.75 -9.06 19.4 -7 16 C-6.3 14.37 -5.63 12.72 -5 11.06 C-3.52 7.25 -1.91 3.62 0 0 Z " fill="#DC4C51" transform="translate(81,221)"/>
<path d="M0 0 C0.33 0 0.66 0 1 0 C1.19 0.61 1.39 1.23 1.59 1.86 C1.85 2.67 2.11 3.48 2.38 4.31 C2.63 5.11 2.89 5.91 3.15 6.74 C4.29 9.78 5.3 11.63 8.22 13.16 C11.41 14.12 14.17 14.34 17.5 14.38 C18.6 14.4 19.71 14.43 20.84 14.46 C24.62 13.91 26.26 12.59 29 10 C29.66 11.65 30.32 13.3 31 15 C25.83 17.06 21.11 17.42 15.62 17.62 C14.79 17.66 13.96 17.7 13.11 17.74 C11.07 17.84 9.04 17.92 7 18 C7 17.34 7 16.68 7 16 C6.34 15.67 5.68 15.34 5 15 C5 14.34 5 13.68 5 13 C3.68 12.67 2.36 12.34 1 12 C-0.47 7.59 -1.37 4.52 0 0 Z " fill="#D8484F" transform="translate(289,302)"/>
<path d="M0 0 C0.66 0 1.32 0 2 0 C1.34 1.98 0.68 3.96 0 6 C3.47 5.5 3.47 5.5 7 5 C5.61 8.36 4.08 10.07 1 12 C0.34 12 -0.32 12 -1 12 C-1 12.66 -1 13.32 -1 14 C-2.27 14.67 -3.54 15.34 -4.81 16 C-5.52 16.37 -6.23 16.74 -6.96 17.12 C-9 18 -9 18 -12 18 C-12 17.34 -12 16.68 -12 16 C-12.66 15.67 -13.32 15.34 -14 15 C-11.69 15 -9.38 15 -7 15 C-7 14.34 -7 13.68 -7 13 C-6.01 12.67 -5.02 12.34 -4 12 C-3.27 9.98 -3.27 9.98 -3 8 C-3.99 8 -4.98 8 -6 8 C-6 7.34 -6 6.68 -6 6 C-5.01 6 -4.02 6 -3 6 C-3 4.68 -3 3.36 -3 2 C-2.01 2 -1.02 2 0 2 C0 1.34 0 0.68 0 0 Z " fill="#E0343B" transform="translate(198,374)"/>
<path d="M0 0 C0.66 0 1.32 0 2 0 C2 7.26 2 14.52 2 22 C2.99 22.33 3.98 22.66 5 23 C5 30.59 5 38.18 5 46 C3.37 42.74 2.68 41.06 2.18 37.65 C2.06 36.81 1.94 35.96 1.81 35.09 C1.69 34.2 1.56 33.3 1.44 32.38 C1.24 30.99 1.24 30.99 1.05 29.57 C0.22 23.35 -0.39 17.14 -0.75 10.88 C-0.79 10.12 -0.84 9.37 -0.89 8.6 C-1.04 5.41 -1.02 3.06 0 0 Z " fill="#D9474D" transform="translate(115,238)"/>
<path d="M0 0 C0 0.33 0 0.66 0 1 C-1.11 1.14 -2.22 1.28 -3.36 1.43 C-7.54 1.96 -11.72 2.49 -15.89 3.03 C-17.69 3.26 -19.49 3.48 -21.28 3.71 C-23.89 4.04 -26.49 4.38 -29.1 4.71 C-29.95 4.82 -30.8 4.93 -31.68 5.04 C-37.86 5.84 -44.02 6.71 -50.18 7.64 C-53.83 8.11 -57.32 8.15 -61 8 C-59 6 -59 6 -56.18 5.8 C-55.09 5.83 -54 5.85 -52.88 5.88 C-51.78 5.89 -50.68 5.91 -49.55 5.93 C-48.71 5.95 -47.87 5.98 -47 6 C-47 5.34 -47 4.68 -47 4 C-45.95 3.94 -44.9 3.88 -43.82 3.82 C-42.45 3.73 -41.07 3.65 -39.69 3.56 C-39 3.52 -38.31 3.48 -37.6 3.44 C-34.53 3.25 -31.93 2.98 -29 2 C-19.25 0.31 -9.89 -0.27 0 0 Z " fill="#D6565B" transform="translate(325,429)"/>
<path d="M0 0 C1.31 -0.01 2.63 -0.02 3.98 -0.04 C5.24 -0.04 6.5 -0.04 7.8 -0.04 C8.94 -0.05 10.08 -0.05 11.26 -0.06 C14.25 0.19 14.25 0.19 18.25 2.19 C5.38 2.52 -7.49 2.85 -20.75 3.19 C-21.08 3.85 -21.41 4.51 -21.75 5.19 C-22.39 5.31 -23.03 5.44 -23.69 5.56 C-25.95 6 -25.95 6 -27 8.25 C-27.25 8.89 -27.5 9.53 -27.75 10.19 C-28.41 10.19 -29.07 10.19 -29.75 10.19 C-28.4 5.75 -26.72 3.6 -22.75 1.19 C-15.23 -0.19 -7.62 0 0 0 Z " fill="#DF595C" transform="translate(121.75,189.8125)"/>
<path d="M0 0 C0 0.66 0 1.32 0 2 C-0.93 2.02 -1.85 2.04 -2.81 2.06 C-6.28 2.14 -9.76 2.23 -13.23 2.32 C-14.73 2.36 -16.23 2.39 -17.72 2.42 C-19.89 2.47 -22.05 2.53 -24.22 2.59 C-26.17 2.63 -26.17 2.63 -28.15 2.68 C-31.13 2.93 -33.52 3.33 -36.36 4.09 C-40 5 -40 5 -42 4 C-42 3.34 -42 2.68 -42 2 C-43.32 1.67 -44.64 1.34 -46 1 C-30.65 0.15 -15.37 -0.13 0 0 Z " fill="#DA5557" transform="translate(362,411)"/>
<path d="M0 0 C0.33 0 0.66 0 1 0 C1.06 0.74 1.12 1.47 1.18 2.23 C1.27 3.21 1.35 4.18 1.44 5.19 C1.52 6.15 1.6 7.11 1.68 8.11 C1.94 10.99 1.94 10.99 2.66 13.74 C2.77 14.48 2.88 15.23 3 16 C2.34 16.66 1.68 17.32 1 18 C1 17.34 1 16.68 1 16 C0.34 16 -0.32 16 -1 16 C-1.06 16.99 -1.12 17.97 -1.18 18.99 C-1.27 20.27 -1.35 21.55 -1.44 22.88 C-1.52 24.15 -1.6 25.43 -1.68 26.74 C-2 30 -2 30 -3 32 C-3.22 33.54 -3.41 35.08 -3.56 36.62 C-3.65 37.44 -3.73 38.26 -3.82 39.1 C-3.88 39.73 -3.94 40.35 -4 41 C-4.99 41 -5.98 41 -7 41 C-6.38 36.37 -5.59 31.82 -4.62 27.25 C-2.78 18.21 -1.38 9.12 0 0 Z " fill="#DA474F" transform="translate(325,271)"/>
<path d="M0 0 C2.57 2.94 3.76 5.92 5.04 9.58 C6.63 13.59 8.69 17.36 10.7 21.17 C11.92 23.83 12.57 26.12 13 29 C12.34 29 11.68 29 11 29 C11 28.01 11 27.02 11 26 C10.34 26 9.68 26 9 26 C8.71 24.87 8.42 23.73 8.12 22.56 C7.75 21.39 7.38 20.21 7 19 C6.34 18.67 5.68 18.34 5 18 C4.34 19.32 3.68 20.64 3 22 C2 20 1 18 0 16 C0.33 15.34 0.66 14.68 1 14 C1.66 14 2.32 14 3 14 C2.78 13.32 2.57 12.65 2.34 11.95 C2.07 11.06 1.79 10.17 1.5 9.25 C1.22 8.37 0.94 7.49 0.66 6.58 C0 4 0 4 0 0 Z " fill="#E1242B" transform="translate(450,132)"/>
<path d="M0 0 C1.25 -0.01 1.25 -0.01 2.53 -0.01 C3.43 -0 4.33 0.01 5.25 0.02 C6.18 0.02 7.1 0.03 8.05 0.03 C14.71 0.12 21.31 0.51 27.94 1.14 C29.21 1.26 29.21 1.26 30.51 1.38 C34.29 1.78 36.6 2.12 39.82 4.27 C35.53 4.27 31.24 4.27 26.82 4.27 C26.82 3.61 26.82 2.95 26.82 2.27 C15.6 2.27 4.38 2.27 -7.18 2.27 C-4.11 0.22 -3.47 0.01 0 0 Z " fill="#D35E62" transform="translate(480.18359375,410.734375)"/>
<path d="M0 0 C0.66 0 1.32 0 2 0 C2.33 2.31 2.66 4.62 3 7 C4.65 6.67 6.3 6.34 8 6 C8.33 5.01 8.66 4.02 9 3 C8.34 3 7.68 3 7 3 C6.67 2.01 6.34 1.02 6 0 C7.65 0 9.3 0 11 0 C11.33 1.32 11.66 2.64 12 4 C14.64 4.33 17.28 4.66 20 5 C20 4.34 20 3.68 20 3 C22.31 3 24.62 3 27 3 C18.57 7.33 11.49 8.43 2 8 C0 2.25 0 2.25 0 0 Z " fill="#DC4347" transform="translate(158,390)"/>
<path d="M0 0 C3.87 -0.03 7.75 -0.05 11.62 -0.06 C12.72 -0.07 13.81 -0.08 14.94 -0.09 C16.54 -0.09 16.54 -0.09 18.16 -0.1 C19.63 -0.11 19.63 -0.11 21.12 -0.11 C24.15 0.01 27.02 0.44 30 1 C30 1.33 30 1.66 30 2 C29.1 2.04 29.1 2.04 28.17 2.08 C15.11 2.62 2.05 3.23 -11 4 C-11.33 3.34 -11.66 2.68 -12 2 C-8.04 2 -4.08 2 0 2 C0 1.34 0 0.68 0 0 Z " fill="#D44E54" transform="translate(456,415)"/>
<path d="M0 0 C1.16 3.48 0.71 5.46 0 9 C1.65 9 3.3 9 5 9 C5 9.66 5 10.32 5 11 C5.99 11 6.98 11 8 11 C8 12.32 8 13.64 8 15 C7.34 15 6.68 15 6 15 C6.33 15.99 6.66 16.98 7 18 C6.01 18.99 5.02 19.98 4 21 C3.76 20.37 3.52 19.74 3.27 19.09 C1.1 13.57 -1.27 8.27 -4 3 C-2.68 2.01 -1.36 1.02 0 0 Z " fill="#DF262C" transform="translate(409,122)"/>
<path d="M0 0 C0.33 0 0.66 0 1 0 C1.33 4.62 1.66 9.24 2 14 C2.66 14 3.32 14 4 14 C4 14.99 4 15.98 4 17 C4.99 16.67 5.98 16.34 7 16 C7.12 16.64 7.25 17.28 7.38 17.94 C7.58 18.62 7.79 19.3 8 20 C10.89 21.44 13.6 21.31 16.81 21.5 C20.97 21.75 24.94 22.07 29 23 C29 23.33 29 23.66 29 24 C21.23 25.05 13.9 25.91 6.69 22.38 C2.23 18.44 0.19 15.56 -0.24 9.66 C-0.25 6.43 -0.17 3.22 0 0 Z " fill="#D7595F" transform="translate(375,341)"/>
<path d="M0 0 C2 2 2 2 2.12 4.62 C2.08 5.41 2.04 6.19 2 7 C5.37 8.12 8.09 8.21 11.64 8.32 C12.94 8.36 14.23 8.4 15.57 8.44 C16.94 8.48 18.32 8.52 19.69 8.56 C21.07 8.61 22.45 8.65 23.84 8.69 C27.23 8.8 30.61 8.9 34 9 C34 9.33 34 9.66 34 10 C28.33 11.29 22.79 11.18 17 11.19 C15.92 11.2 14.84 11.21 13.73 11.22 C12.16 11.23 12.16 11.23 10.56 11.23 C9.62 11.23 8.67 11.24 7.69 11.24 C4.8 10.98 2.63 10.2 0 9 C0 6.03 0 3.06 0 0 Z " fill="#DD7679" transform="translate(149,160)"/>
<path d="M0 0 C6.23 -0.03 12.46 -0.04 18.69 -0.05 C20.81 -0.06 22.93 -0.07 25.05 -0.08 C28.09 -0.09 31.14 -0.09 34.18 -0.1 C35.13 -0.1 36.08 -0.11 37.06 -0.11 C37.95 -0.11 38.83 -0.11 39.73 -0.11 C40.9 -0.12 40.9 -0.12 42.09 -0.12 C44 0 44 0 46 1 C46 6.61 46 12.22 46 18 C45.67 18 45.34 18 45 18 C44.01 10.57 44.01 10.57 43 3 C39.71 2.34 37.18 1.87 33.94 1.79 C33.18 1.77 32.42 1.75 31.64 1.73 C30.43 1.71 30.43 1.71 29.2 1.68 C27.94 1.65 27.94 1.65 26.66 1.62 C24.01 1.56 21.35 1.5 18.69 1.44 C16.88 1.39 15.07 1.35 13.26 1.31 C8.84 1.2 4.42 1.1 0 1 C0 0.67 0 0.34 0 0 Z " fill="#D7585F" transform="translate(95,134)"/>
<path d="M0 0 C1.65 0 3.3 0 5 0 C4.34 2.64 3.68 5.28 3 8 C3.99 7.67 4.98 7.34 6 7 C7.7 6.92 9.4 6.89 11.11 6.9 C12.09 6.91 13.07 6.91 14.08 6.91 C15.62 6.92 15.62 6.92 17.19 6.94 C18.74 6.94 18.74 6.94 20.33 6.95 C22.88 6.96 25.44 6.98 28 7 C28 7.33 28 7.66 28 8 C24.37 8 20.74 8 17 8 C17 8.66 17 9.32 17 10 C11.72 10 6.44 10 1 10 C1 7.36 1 4.72 1 2 C0.67 1.34 0.34 0.68 0 0 Z " fill="#D6474D" transform="translate(91,277)"/>
<path d="M0 0 C0.5 1.98 0.5 1.98 1 4 C-2.68 6.45 -4.52 6.26 -8.9 6.27 C-9.57 6.27 -10.24 6.27 -10.93 6.27 C-12.36 6.27 -13.78 6.27 -15.2 6.26 C-17.36 6.25 -19.52 6.26 -21.69 6.27 C-23.07 6.27 -24.45 6.27 -25.84 6.27 C-27.09 6.26 -28.34 6.26 -29.63 6.26 C-32.86 6.01 -35.1 5.39 -38 4 C-38 3.34 -38 2.68 -38 2 C-31.38 1.75 -31.38 1.75 -28 4 C-25.63 4.31 -25.63 4.31 -23 4.27 C-22.03 4.27 -21.06 4.27 -20.06 4.27 C-19.05 4.27 -18.04 4.26 -17 4.25 C-15.99 4.26 -14.98 4.27 -13.94 4.27 C-12.48 4.27 -12.48 4.27 -11 4.27 C-10.11 4.26 -9.23 4.26 -8.31 4.26 C-5.73 4.15 -5.73 4.15 -3 2 C-2.01 2 -1.02 2 0 2 C0 1.34 0 0.68 0 0 Z " fill="#CE383F" transform="translate(322,164)"/>
<path d="M0 0 C1.32 0 2.64 0 4 0 C4 0.66 4 1.32 4 2 C4.66 2 5.32 2 6 2 C5.31 7.1 3.23 11.57 1.19 16.25 C0.84 17.08 0.5 17.91 0.15 18.76 C-0.2 19.54 -0.54 20.33 -0.89 21.14 C-1.2 21.86 -1.51 22.57 -1.83 23.31 C-3 25 -3 25 -5.13 25.74 C-5.75 25.83 -6.36 25.91 -7 26 C-7.33 25.01 -7.66 24.02 -8 23 C-6.68 23 -5.36 23 -4 23 C-3.67 21.02 -3.34 19.04 -3 17 C-2.34 17 -1.68 17 -1 17 C-1 16.07 -1 15.14 -1 14.19 C-1 12.12 -1 10.06 -1 8 C0.32 8 1.64 8 3 8 C3 5.69 3 3.38 3 1 C2.01 0.67 1.02 0.34 0 0 Z " fill="#DC4850" transform="translate(70,322)"/>
<path d="M0 0 C8.08 6.5 8.08 6.5 8.81 12.69 C9.33 18.92 7.7 23.28 4.44 28.5 C3.96 29 3.49 29.49 3 30 C2.34 30 1.68 30 1 30 C1 29.34 1 28.68 1 28 C1.66 28 2.32 28 3 28 C3 25.69 3 23.38 3 21 C3.99 21 4.98 21 6 21 C6.18 15.78 5.97 11.93 4 7 C3.34 7 2.68 7 2 7 C1.34 4.69 0.68 2.38 0 0 Z " fill="#DC636C" transform="translate(412,327)"/>
<path d="M0 0 C0.33 0 0.66 0 1 0 C1.67 4.21 2.34 8.42 3 12.62 C3.19 13.81 3.38 15 3.58 16.23 C3.76 17.38 3.94 18.54 4.12 19.73 C4.29 20.78 4.46 21.84 4.63 22.93 C5 25.99 5.06 28.93 5 32 C4.34 31.67 3.68 31.34 3 31 C2.59 28.28 2.59 28.28 2.38 24.94 C2.3 23.83 2.23 22.73 2.15 21.59 C2.1 20.74 2.05 19.88 2 19 C1.34 19 0.68 19 0 19 C-0.04 18.24 -0.07 17.48 -0.11 16.7 C-0.18 15.71 -0.24 14.71 -0.31 13.69 C-0.37 12.7 -0.43 11.72 -0.49 10.7 C-1.06 7.67 -1.8 7.01 -4 5 C-4 4.01 -4 3.02 -4 2 C-3.01 2 -2.02 2 -1 2 C-0.67 1.34 -0.34 0.68 0 0 Z " fill="#DA4C52" transform="translate(155,265)"/>
<path d="M0 0 C0.33 0 0.66 0 1 0 C0.86 1.09 0.71 2.19 0.56 3.31 C0.12 6.75 -0.17 10.17 -0.44 13.62 C-0.81 17.66 -1.16 21.33 -3 25 C-5.12 25.88 -5.12 25.88 -7 26 C-7.33 25.34 -7.66 24.68 -8 24 C-7.01 24 -6.02 24 -5 24 C-5 19.38 -5 14.76 -5 10 C-4.34 10 -3.68 10 -3 10 C-2.87 9.36 -2.73 8.72 -2.6 8.07 C-2.42 7.24 -2.24 6.41 -2.06 5.56 C-1.89 4.74 -1.71 3.92 -1.54 3.07 C-1 1 -1 1 0 0 Z " fill="#D9424A" transform="translate(190,144)"/>
<path d="M0 0 C3.96 0.33 7.92 0.66 12 1 C12 1.33 12 1.66 12 2 C10.15 2.29 10.15 2.29 8.27 2.59 C-0.83 4.02 -9.92 5.46 -19 7 C-19.66 6.01 -20.32 5.02 -21 4 C-19.93 3.86 -18.85 3.71 -17.75 3.56 C-12.7 2.81 -12.7 2.81 -8 1 C-5.3 1.17 -2.68 1.61 0 2 C0 1.34 0 0.68 0 0 Z " fill="#DA474B" transform="translate(162,451)"/>
<path d="M0 0 C0.33 0 0.66 0 1 0 C1.65 3.44 2.3 6.87 2.94 10.31 C3.12 11.27 3.3 12.23 3.49 13.21 C4.57 19.02 5.34 24.76 5.8 30.64 C6.04 33.46 6.47 36.22 7 39 C5 38 5 38 3.91 35.82 C2.92 32.75 2.63 30.04 2.44 26.81 C2.29 22.75 2.29 22.75 1 19 C-0.1 12.7 -0.12 6.37 0 0 Z " fill="#D74F53" transform="translate(144,202)"/>
<path d="M0 0 C3.37 2.69 4.3 6 5.69 10 C6.12 11.24 6.56 12.47 7.01 13.75 C8 17 8 17 8 20 C7.34 18.68 6.68 17.36 6 16 C5.3 16.39 4.6 16.78 3.88 17.19 C1 18 1 18 -2.31 16.62 C-3.2 16.09 -4.09 15.55 -5 15 C-5 14.34 -5 13.68 -5 13 C-3.68 13 -2.36 13 -1 13 C-1 13.66 -1 14.32 -1 15 C0.65 14.67 2.3 14.34 4 14 C4 13.34 4 12.68 4 12 C2.68 11.67 1.36 11.34 0 11 C0.66 8.69 1.32 6.38 2 4 C1.34 4 0.68 4 0 4 C0 2.68 0 1.36 0 0 Z " fill="#E33B42" transform="translate(463,161)"/>
<path d="M0 0 C0.99 0 1.98 0 3 0 C2.57 8.51 2.01 16.69 0 25 C-0.33 25 -0.66 25 -1 25 C-0.99 24.02 -0.98 23.05 -0.96 22.04 C-0.96 20.77 -0.95 19.5 -0.94 18.19 C-0.93 16.92 -0.91 15.66 -0.9 14.36 C-0.84 11 -0.84 11 -2 8 C-1.64 5.08 -1.32 2.64 0 0 Z " fill="#DD3841" transform="translate(355,312)"/>
<path d="M0 0 C0.66 1.32 1.32 2.64 2 4 C1.01 4.33 0.02 4.66 -1 5 C-0.94 6.11 -0.88 7.23 -0.81 8.38 C-0.87 9.57 -0.94 10.77 -1 12 C-1.99 12.66 -2.98 13.32 -4 14 C-5.06 16.71 -5.85 19.45 -6.61 22.25 C-8.1 27.31 -9.33 30.09 -14 33 C-12.58 28.22 -10.59 23.81 -8.51 19.3 C-6.69 15.32 -4.94 11.32 -3.19 7.31 C-2.87 6.59 -2.56 5.87 -2.24 5.13 C-1.49 3.42 -0.74 1.71 0 0 Z " fill="#D7575D" transform="translate(50,288)"/>
<path d="M0 0 C2 0.31 2 0.31 4 1 C7.36 7.72 4.21 17.98 3 25 C2.34 24.67 1.68 24.34 1 24 C1 22.35 1 20.7 1 19 C0.34 19 -0.32 19 -1 19 C-1 17.68 -1 16.36 -1 15 C-0.01 15 0.98 15 2 15 C2.33 10.71 2.66 6.42 3 2 C1.68 1.67 0.36 1.34 -1 1 C-0.67 0.67 -0.34 0.34 0 0 Z " fill="#DA454B" transform="translate(200,53)"/>
<path d="M0 0 C0.99 0 1.98 0 3 0 C2 9 1 18 0 27 C-0.33 27 -0.66 27 -1 27 C-1.12 25.93 -1.25 24.86 -1.38 23.75 C-1.9 20.62 -2.4 18.67 -4 16 C-3.52 15.47 -3.04 14.94 -2.54 14.39 C-0.62 11.41 -0.5 9.28 -0.31 5.75 C-0.25 4.67 -0.18 3.59 -0.11 2.48 C-0.08 1.66 -0.04 0.84 0 0 Z " fill="#DC4149" transform="translate(359,284)"/>
<path d="M0 0 C0.33 0 0.66 0 1 0 C1.33 6.93 1.66 13.86 2 21 C1.34 21.33 0.68 21.66 0 22 C-0.47 23.9 -0.47 23.9 -0.62 26.06 C-0.75 27.36 -0.87 28.66 -1 30 C-3.76 26.09 -2.84 22.27 -2.19 17.81 C-1.99 16.29 -1.78 14.77 -1.58 13.24 C-1.48 12.51 -1.38 11.78 -1.28 11.03 C-0.93 8.5 -0.65 5.97 -0.38 3.44 C-0.25 2.3 -0.13 1.17 0 0 Z " fill="#DB464B" transform="translate(360,43)"/>
<path d="M0 0 C0.33 0 0.66 0 1 0 C1 4.62 1 9.24 1 14 C0.34 14 -0.32 14 -1 14 C-1.04 14.61 -1.07 15.23 -1.11 15.86 C-1.18 16.67 -1.24 17.48 -1.31 18.31 C-1.37 19.11 -1.43 19.91 -1.49 20.74 C-2.09 23.4 -2.87 24.33 -5 26 C-7.19 26.69 -7.19 26.69 -9 27 C-8.59 26.22 -8.18 25.43 -7.75 24.62 C-3.78 16.59 -1.28 8.89 0 0 Z " fill="#DB5157" transform="translate(186,327)"/>
<path d="M0 0 C0.99 0 1.98 0 3 0 C2.62 4.22 2.23 8.44 1.83 12.65 C1.69 14.09 1.56 15.52 1.43 16.96 C1.25 19.02 1.05 21.08 0.85 23.14 C0.74 24.39 0.62 25.63 0.5 26.91 C0 30 0 30 -2 33 C-2.03 30.37 -2.05 27.75 -2.06 25.12 C-2.07 24.38 -2.08 23.63 -2.09 22.86 C-2.11 17.23 -2.11 17.23 -1 15 C-0.77 12.45 -0.58 9.93 -0.44 7.38 C-0.39 6.67 -0.35 5.96 -0.31 5.23 C-0.2 3.49 -0.1 1.74 0 0 Z " fill="#D55158" transform="translate(397,47)"/>
<path d="M0 0 C0.33 0 0.66 0 1 0 C1.9 5.44 2.21 10.74 2.25 16.25 C2.27 17.05 2.29 17.85 2.31 18.68 C2.35 24.56 2.35 24.56 0.6 26.75 C-1 28 -1 28 -3 28 C-2.69 24.65 -2.38 21.29 -2.06 17.94 C-1.98 16.99 -1.89 16.05 -1.8 15.08 C-1.32 10.03 -0.77 5.02 0 0 Z " fill="#DB4D54" transform="translate(364,14)"/>
<path d="M0 0 C4.96 1.24 7.12 2.79 10 7 C9.01 7.5 9.01 7.5 8 8 C8.33 9.32 8.66 10.64 9 12 C8.34 12 7.68 12 7 12 C7 11.34 7 10.68 7 10 C6.4 10.16 5.8 10.33 5.19 10.5 C3 11 3 11 0 11 C0 10.01 0 9.02 0 8 C0.64 7.71 1.28 7.42 1.94 7.12 C4.15 6.17 4.15 6.17 5 4 C3.02 4 1.04 4 -1 4 C-0.67 2.68 -0.34 1.36 0 0 Z " fill="#E33337" transform="translate(199,0)"/>
<path d="M0 0 C2.48 0.5 2.48 0.5 5 1 C5 2.32 5 3.64 5 5 C6.65 4.67 8.3 4.34 10 4 C10 5.65 10 7.3 10 9 C10.99 9 11.98 9 13 9 C13 9.66 13 10.32 13 11 C14.32 11.33 15.64 11.66 17 12 C15.28 12.67 15.28 12.67 13 13 C8.25 10.7 3.29 7.15 0 3 C0 2.01 0 1.02 0 0 Z " fill="#DB4D56" transform="translate(35,154)"/>
<path d="M0 0 C2.98 4.48 3.55 9.04 2.57 14.34 C0.95 19.66 -1.58 23.65 -5 28 C-5.33 26.68 -5.66 25.36 -6 24 C-5.34 24 -4.68 24 -4 24 C-4.33 22.35 -4.66 20.7 -5 19 C-4.01 19 -3.02 19 -2 19 C-2.33 18.01 -2.66 17.02 -3 16 C-2.34 15.67 -1.68 15.34 -1 15 C-0.53 12.55 -0.53 12.55 -0.38 9.69 C-0.3 8.72 -0.23 7.76 -0.15 6.76 C-0.03 4.51 0 2.25 0 0 Z " fill="#DA525E" transform="translate(209,8)"/>
<path d="M0 0 C0.99 0 1.98 0 3 0 C2.48 7.13 1.56 14.02 0 21 C-0.33 21 -0.66 21 -1 21 C-1.8 17.45 -2.16 14.14 -2.19 10.5 C-2.2 9.58 -2.22 8.66 -2.23 7.72 C-1.98 4.8 -1.21 2.65 0 0 Z " fill="#DC3740" transform="translate(225,320)"/>
<path d="M0 0 C0.33 0.99 0.66 1.98 1 3 C0.67 3.66 0.34 4.32 0 5 C1.32 4.67 2.64 4.34 4 4 C3.72 6.27 3.42 8.54 3.12 10.81 C2.96 12.08 2.8 13.34 2.63 14.64 C2 18 2 18 0 21 C-2.31 20.67 -4.62 20.34 -7 20 C-7 19.67 -7 19.34 -7 19 C-5.02 19 -3.04 19 -1 19 C-0.31 14.42 0.17 10.17 -0.5 5.56 C-1 2 -1 2 0 0 Z " fill="#DB444A" transform="translate(136,150)"/>
<path d="M0 0 C0.33 0 0.66 0 1 0 C1.33 4.95 1.66 9.9 2 15 C1.01 15.5 1.01 15.5 0 16 C-0.43 19.17 -0.43 19.17 -0.56 22.88 C-0.91 29.72 -0.91 29.72 -2 33 C-2.66 32.67 -3.32 32.34 -4 32 C-2 10.47 -2 10.47 0 0 Z " fill="#D5454A" transform="translate(222,87)"/>
<path d="M0 0 C0.66 0 1.32 0 2 0 C2 1.65 2 3.3 2 5 C3.65 5 5.3 5 7 5 C7.33 3.68 7.66 2.36 8 1 C8.33 2.32 8.66 3.64 9 5 C4.66 9.34 0.86 9.74 -5 10 C-3.68 9.67 -2.36 9.34 -1 9 C-1.33 7.02 -1.66 5.04 -2 3 C-1.34 3 -0.68 3 0 3 C0 2.01 0 1.02 0 0 Z " fill="#DD373E" transform="translate(404,354)"/>
<path d="M0 0 C1.32 0.33 2.64 0.66 4 1 C3.34 1 2.68 1 2 1 C2 1.66 2 2.32 2 3 C2.76 2.98 3.52 2.95 4.3 2.93 C5.29 2.91 6.29 2.89 7.31 2.88 C8.3 2.85 9.28 2.83 10.3 2.8 C13 3 13 3 16 5 C12.79 5.09 9.58 5.14 6.38 5.19 C5.47 5.21 4.57 5.24 3.64 5.26 C-1.71 5.32 -5.34 4.95 -10 2 C-7.45 0.73 -6.57 1.2 -3.88 1.94 C-3.15 2.13 -2.43 2.33 -1.68 2.53 C-1.13 2.68 -0.57 2.84 0 3 C0 2.01 0 1.02 0 0 Z " fill="#DA3A41" transform="translate(60,166)"/>
<path d="M0 0 C0.33 0 0.66 0 1 0 C1.03 2.21 1.05 4.42 1.06 6.62 C1.07 7.85 1.09 9.08 1.1 10.35 C1.01 13.68 0.59 16.73 0 20 C-0.04 22 -0.05 24 0 26 C-0.66 26 -1.32 26 -2 26 C-2 29.3 -2 32.6 -2 36 C-2.66 36 -3.32 36 -4 36 C-2.67 24 -1.33 12 0 0 Z " fill="#D94C53" transform="translate(348,129)"/>
<path d="M0 0 C2.64 0.04 5.24 0.14 7.88 0.31 C9.02 0.38 9.02 0.38 10.2 0.45 C16.23 0.86 22.09 1.69 28 3 C28 3.33 28 3.66 28 4 C21.85 4.88 21.85 4.88 20 5 C19.67 4.67 19.34 4.34 19 4 C15.42 3.76 11.84 3.6 8.26 3.48 C4.39 3.31 2.29 3.19 -1 1 C-0.67 0.67 -0.34 0.34 0 0 Z " fill="#D9484E" transform="translate(327,228)"/>
<path d="M0 0 C-6.8 3.85 -13.35 7.35 -21.3 5.45 C-26.71 3.57 -26.71 3.57 -28 1 C-23.38 1.99 -18.76 2.98 -14 4 C-14 3.34 -14 2.68 -14 2 C-11.36 2 -8.72 2 -6 2 C-6 1.34 -6 0.68 -6 0 C-2.25 -1.12 -2.25 -1.12 0 0 Z " fill="#D85B61" transform="translate(202,37)"/>
<path d="M0 0 C-4.95 4.95 -12.47 4.04 -18.99 4.06 C-21.99 4.06 -25 4.04 -28 4 C-25.19 1.19 -22.39 1.58 -18.62 1.44 C-12.3 1.15 -6.33 -0.12 0 0 Z " fill="#D44E53" transform="translate(198,425)"/>
<path d="M0 0 C0.66 0 1.32 0 2 0 C2.03 1.48 2.05 2.96 2.06 4.44 C2.07 5.26 2.09 6.08 2.1 6.93 C2 9 2 9 1 10 C0.77 11.48 0.61 12.98 0.46 14.47 C0.38 15.37 0.29 16.27 0.2 17.2 C0.11 18.14 0.03 19.09 -0.06 20.06 C-0.15 21.01 -0.24 21.96 -0.34 22.94 C-0.56 25.29 -0.78 27.65 -1 30 C-1.66 30 -2.32 30 -3 30 C-2.69 26.12 -2.38 22.25 -2.06 18.38 C-1.98 17.28 -1.89 16.19 -1.8 15.06 C-1.71 14 -1.62 12.93 -1.54 11.84 C-1.46 10.86 -1.38 9.89 -1.3 8.88 C-0.99 5.89 -0.52 2.96 0 0 Z " fill="#D3454B" transform="translate(391,251)"/>
<path d="M0 0 C0.33 0 0.66 0 1 0 C1 3.3 1 6.6 1 10 C-0.32 10.33 -1.64 10.66 -3 11 C-4.3 14 -4.3 14 -5 17 C-4.01 17.33 -3.02 17.66 -2 18 C-4.49 19.25 -5.41 18.78 -8 18 C-6.1 11.48 -3.48 5.82 0 0 Z " fill="#DE4B4F" transform="translate(90,203)"/>
<path d="M0 0 C9.06 -0.15 17.98 0.31 27 1 C27.33 1.99 27.66 2.98 28 4 C27.01 4.99 26.02 5.98 25 7 C25 5.35 25 3.7 25 2 C16.75 2 8.5 2 0 2 C0 1.34 0 0.68 0 0 Z " fill="#D65357" transform="translate(451,53)"/>
<path d="M0 0 C2 1.81 2 1.81 4 4 C4 4.99 4 5.98 4 7 C4.77 6.99 5.55 6.98 6.34 6.96 C12.34 6.91 18.07 7.09 24 8 C24 8.33 24 8.66 24 9 C20.75 9.12 17.5 9.19 14.25 9.25 C12.87 9.3 12.87 9.3 11.46 9.35 C4.64 9.45 4.64 9.45 1.38 7.16 C-0.28 4.57 -0.34 3.02 0 0 Z " fill="#DA656A" transform="translate(125,340)"/>
<path d="M0 0 C2.42 3.23 3.72 5.36 5.12 9 C5.46 9.85 5.79 10.69 6.13 11.56 C6.89 13.7 7.5 15.79 8 18 C7.01 18 6.02 18 5 18 C5 16.68 5 15.36 5 14 C2.52 13.01 2.52 13.01 0 12 C0 8.04 0 4.08 0 0 Z " fill="#DE3D44" transform="translate(442,114)"/>
<path d="M0 0 C8.25 0 16.5 0 25 0 C25 0.33 25 0.66 25 1 C2.2 3.39 2.2 3.39 -7 3 C-7 2.67 -7 2.34 -7 2 C-4.69 2 -2.38 2 0 2 C0 1.34 0 0.68 0 0 Z " fill="#DC696D" transform="translate(383,421)"/>
<path d="M0 0 C0.98 3.05 0.98 4.95 0 8 C-1.32 8 -2.64 8 -4 8 C-4 9.32 -4 10.64 -4 12 C-3.01 12.33 -2.02 12.66 -1 13 C-2.09 12.92 -3.19 12.84 -4.31 12.75 C-8.03 12.59 -8.03 12.59 -9.94 15 C-10.29 15.66 -10.64 16.32 -11 17 C-11.66 16.67 -12.32 16.34 -13 16 C-12.31 15.26 -11.63 14.53 -10.92 13.77 C-10.01 12.78 -9.1 11.8 -8.19 10.81 C-7.29 9.85 -6.4 8.89 -5.48 7.89 C-3.3 5.35 -1.61 2.92 0 0 Z " fill="#DC4D52" transform="translate(429,61)"/>
<path d="M0 0 C0.04 2.33 0.04 4.67 0 7 C-1 8 -1 8 -3.29 8.1 C-4.66 8.08 -4.66 8.08 -6.06 8.06 C-6.98 8.05 -7.9 8.04 -8.85 8.04 C-9.56 8.02 -10.27 8.01 -11 8 C-11 7.01 -11 6.02 -11 5 C-4.25 3.88 -4.25 3.88 -2 5 C-2.33 3.68 -2.66 2.36 -3 1 C-1 0 -1 0 0 0 Z " fill="#DC3B42" transform="translate(168,340)"/>
<path d="M0 0 C0.33 0 0.66 0 1 0 C2.7 14.78 2.7 14.78 -1 21 C-1.66 21 -2.32 21 -3 21 C-2.69 18.25 -2.38 15.5 -2.06 12.75 C-1.98 11.97 -1.89 11.2 -1.8 10.39 C-1.71 9.64 -1.62 8.89 -1.54 8.11 C-1.46 7.42 -1.38 6.73 -1.3 6.01 C-0.99 3.96 -0.54 2 0 0 Z " fill="#DC4D52" transform="translate(194,276)"/>
<path d="M0 0 C0.33 0.66 0.66 1.32 1 2 C7.27 2.33 13.54 2.66 20 3 C20 3.33 20 3.66 20 4 C10.43 4 0.86 4 -9 4 C-9.33 3.01 -9.66 2.02 -10 1 C-6.7 1.33 -3.4 1.66 0 2 C0 1.34 0 0.68 0 0 Z " fill="#E67F83" transform="translate(446,188)"/>
<path d="M0 0 C0.33 0 0.66 0 1 0 C0.42 8.42 -0.62 16.68 -2 25 C-4.33 22.57 -5.01 21.47 -4.96 18.05 C-3.84 11.71 -2.55 5.91 0 0 Z " fill="#D84951" transform="translate(392,98)"/>
<path d="M0 0 C4.95 0 9.9 0 15 0 C14.67 0.99 14.34 1.98 14 3 C9.05 3 4.1 3 -1 3 C-0.67 2.01 -0.34 1.02 0 0 Z " fill="#DD4346" transform="translate(492,413)"/>
<path d="M0 0 C6.93 0 13.86 0 21 0 C21 0.66 21 1.32 21 2 C20.28 1.98 19.57 1.95 18.83 1.93 C11.03 1.79 3.67 2.61 -4 4 C-4 3.34 -4 2.68 -4 2 C-2.68 2 -1.36 2 0 2 C0 1.34 0 0.68 0 0 Z " fill="#D4565B" transform="translate(222,161)"/>
<path d="M0 0 C1.93 0.02 1.93 0.02 3.9 0.04 C5.19 0.04 6.48 0.05 7.81 0.06 C8.81 0.07 9.81 0.09 10.84 0.1 C10.84 0.76 10.84 1.42 10.84 2.1 C6.22 2.43 1.6 2.76 -3.16 3.1 C-3.49 4.42 -3.82 5.74 -4.16 7.1 C-5.81 7.43 -7.46 7.76 -9.16 8.1 C-9.16 6.1 -9.16 6.1 -6.72 3.54 C-5.88 2.73 -5.03 1.93 -4.16 1.1 C-3.16 0.1 -3.16 0.1 0 0 Z " fill="#C22B2F" transform="translate(440.16015625,52.90234375)"/>
<path d="M0 0 C3.44 0.81 3.44 0.81 7 2 C7.33 2.99 7.66 3.98 8 5 C9.07 5.14 10.14 5.29 11.25 5.44 C13.92 5.84 16.41 6.28 19 7 C19 7.66 19 8.32 19 9 C5.32 6.7 5.32 6.7 1.12 1.81 C0.75 1.21 0.38 0.62 0 0 Z " fill="#D75157" transform="translate(264,342)"/>
<path d="M0 0 C1.88 3.14 2.18 5.08 1.69 8.69 C1.59 9.48 1.49 10.26 1.39 11.07 C1 13 1 13 0 14 C-0.28 17.36 -0.45 20.72 -0.62 24.09 C-0.75 25.05 -0.87 26.01 -1 27 C-1.66 27.33 -2.32 27.66 -3 28 C-2.54 18.54 -1.82 9.32 0 0 Z " fill="#D7595D" transform="translate(190,299)"/>
<path d="M0 0 C1.65 0 3.3 0 5 0 C4.29 4.28 2.93 8.25 1.44 12.31 C1.2 12.96 0.97 13.6 0.73 14.27 C0.16 15.85 -0.42 17.42 -1 19 C-2.17 14.9 -2.07 11.25 -2 7 C-0.68 7 0.64 7 2 7 C1.34 4.69 0.68 2.38 0 0 Z " fill="#DA4F57" transform="translate(100,253)"/>
<path d="M0 0 C0.33 0.66 0.66 1.32 1 2 C0.67 2.66 0.34 3.32 0 4 C-0.66 4 -1.32 4 -2 4 C-2.15 5.14 -2.15 5.14 -2.31 6.31 C-3.05 9.2 -3.62 10.26 -6 12 C-6.99 12 -7.98 12 -9 12 C-8.67 13.32 -8.34 14.64 -8 16 C-8.99 16 -9.98 16 -11 16 C-9.35 9.39 -5.67 3.78 0 0 Z " fill="#D94E54" transform="translate(215,181)"/>
<path d="M0 0 C0 0.66 0 1.32 0 2 C-4.95 2 -9.9 2 -15 2 C-15.33 2.66 -15.66 3.32 -16 4 C-18.97 3.67 -21.94 3.34 -25 3 C-25 2.67 -25 2.34 -25 2 C-21.59 1.47 -18.17 0.95 -14.75 0.44 C-13.78 0.29 -12.81 0.13 -11.82 -0.02 C-10.88 -0.16 -9.95 -0.3 -8.98 -0.44 C-8.13 -0.57 -7.27 -0.7 -6.38 -0.84 C-3.99 -1 -2.27 -0.72 0 0 Z " fill="#D95459" transform="translate(158,431)"/>
<path d="M0 0 C0 3 0 3 -1 5 C-1.99 5 -2.98 5 -4 5 C-4 5.66 -4 6.32 -4 7 C-4.66 7 -5.32 7 -6 7 C-6 7.66 -6 8.32 -6 9 C-6.99 9 -7.98 9 -9 9 C-9.33 9.99 -9.66 10.98 -10 12 C-12.64 12 -15.28 12 -18 12 C-17 10 -17 10 -13.5 8.81 C-8.2 6.97 -4.25 3.59 0 0 Z " fill="#D94F53" transform="translate(176,354)"/>
<path d="M0 0 C0.66 0 1.32 0 2 0 C2 0.66 2 1.32 2 2 C3.65 2.33 5.3 2.66 7 3 C7 3.99 7 4.98 7 6 C7.32 8.34 7.65 10.67 8 13 C7.01 13 6.02 13 5 13 C4.16 11.4 3.33 9.79 2.5 8.19 C1.8 6.85 1.8 6.85 1.09 5.48 C0 3 0 3 0 0 Z " fill="#DE4851" transform="translate(429,176)"/>
<path d="M0 0 C4.95 0 9.9 0 15 0 C12.26 2.74 9.44 2.69 5.75 3.12 C4.45 3.29 3.14 3.46 1.8 3.63 C-1.5 3.95 -4.69 4.07 -8 4 C-4.77 1.85 -3.72 1.8 0 2 C0 1.34 0 0.68 0 0 Z " fill="#D5575E" transform="translate(208,443)"/>
<path d="M0 0 C0.66 0.33 1.32 0.66 2 1 C1.55 3.23 1.09 5.46 0.62 7.69 C0.37 8.93 0.11 10.17 -0.15 11.45 C-0.87 14.47 -1.75 17.16 -3 20 C-3.33 20 -3.66 20 -4 20 C-4 18.35 -4 16.7 -4 15 C-4.66 15 -5.32 15 -6 15 C-5.67 14.34 -5.34 13.68 -5 13 C-4.34 13.33 -3.68 13.66 -3 14 C-3 12.02 -3 10.04 -3 8 C-2.34 8 -1.68 8 -1 8 C-0.67 5.36 -0.34 2.72 0 0 Z " fill="#DB4D54" transform="translate(222,340)"/>
<path d="M0 0 C0.33 0 0.66 0 1 0 C1.19 1.62 1.38 3.25 1.56 4.88 C1.67 5.78 1.77 6.68 1.88 7.62 C2 10 2 10 1 12 C0.01 12 -0.98 12 -2 12 C-2 12.66 -2 13.32 -2 14 C-2.99 14 -3.98 14 -5 14 C-3.46 9.28 -1.92 4.58 0 0 Z " fill="#E04148" transform="translate(35,321)"/>
<path d="M0 0 C0.33 0 0.66 0 1 0 C1.1 7.4 1.2 14.68 0 22 C-0.66 22.66 -1.32 23.32 -2 24 C-3.07 20.79 -2.94 19.4 -2.44 16.11 C-2.3 15.18 -2.16 14.24 -2.02 13.27 C-1.87 12.3 -1.72 11.32 -1.56 10.31 C-1.41 9.32 -1.27 8.34 -1.12 7.32 C-0.75 4.88 -0.38 2.44 0 0 Z " fill="#D84E53" transform="translate(289,126)"/>
<path d="M0 0 C0.99 0 1.98 0 3 0 C3 1.65 3 3.3 3 5 C2.34 5 1.68 5 1 5 C-0.65 8.96 -2.3 12.92 -4 17 C-5 13 -4.81 10.94 -4 7 C-3.34 7 -2.68 7 -2 7 C-2 5.68 -2 4.36 -2 3 C-1.34 3 -0.68 3 0 3 C0 2.01 0 1.02 0 0 Z " fill="#DC5C5F" transform="translate(111,235)"/>
<path d="M0 0 C3.05 2.56 4.21 5.41 5.69 9.06 C6.34 10.66 6.34 10.66 7.01 12.29 C8 15 8 15 8 17 C7.34 17 6.68 17 6 17 C6 16.01 6 15.02 6 14 C5.34 14 4.68 14 4 14 C3.57 12.3 3.57 12.3 3.12 10.56 C2.75 9.39 2.38 8.21 2 7 C1.34 6.67 0.68 6.34 0 6 C0 4.02 0 2.04 0 0 Z " fill="#DC5B60" transform="translate(455,144)"/>
<path d="M0 0 C0 1.32 0 2.64 0 4 C-0.66 4 -1.32 4 -2 4 C-2 3.34 -2 2.68 -2 2 C-2.63 2.13 -3.26 2.27 -3.91 2.4 C-9.26 3.51 -14.56 4.4 -20 5 C-15.28 0.28 -6.41 0 0 0 Z " fill="#D8464A" transform="translate(310,228)"/>
<path d="M0 0 C0.33 0 0.66 0 1 0 C1.41 20.18 1.41 20.18 -1 25 C-1.66 25 -2.32 25 -3 25 C-2.01 16.75 -1.02 8.5 0 0 Z " fill="#D64D54" transform="translate(159,85)"/>
<path d="M0 0 C0.33 0.99 0.66 1.98 1 3 C0.34 3 -0.32 3 -1 3 C-1.25 3.7 -1.5 4.4 -1.75 5.12 C-3.19 8.43 -4.8 11.15 -7 14 C-9.25 14.88 -9.25 14.88 -11 15 C-11 15.66 -11 16.32 -11 17 C-11.66 16.67 -12.32 16.34 -13 16 C-12.37 15.24 -11.75 14.48 -11.1 13.7 C-10.28 12.71 -9.47 11.71 -8.62 10.69 C-7.81 9.7 -7 8.72 -6.16 7.7 C-3.94 5.01 -3.94 5.01 -2 2 C-1.34 2 -0.68 2 0 2 C0 1.34 0 0.68 0 0 Z " fill="#DA5F65" transform="translate(415,78)"/>
<path d="M0 0 C2.42 -0.08 4.83 -0.14 7.25 -0.19 C7.93 -0.21 8.61 -0.24 9.32 -0.26 C12.59 -0.31 14.65 -0.21 17.48 1.51 C17.98 2 18.48 2.49 19 3 C15.62 4.69 11.97 3.25 8.38 2.56 C7.57 2.41 6.77 2.27 5.95 2.12 C3.96 1.75 1.98 1.38 0 1 C0 0.67 0 0.34 0 0 Z " fill="#D84951" transform="translate(392,324)"/>
<path d="M0 0 C0.33 0 0.66 0 1 0 C0.45 7.44 -0.54 14.68 -2 22 C-2.33 22 -2.66 22 -3 22 C-2.89 18.9 -2.76 15.79 -2.62 12.69 C-2.59 11.81 -2.56 10.93 -2.53 10.02 C-2.47 8.75 -2.47 8.75 -2.41 7.45 C-2.38 6.67 -2.35 5.89 -2.32 5.08 C-2 3 -2 3 0 0 Z " fill="#DE7479" transform="translate(201,80)"/>
<path d="M0 0 C0.66 0 1.32 0 2 0 C2 0.66 2 1.32 2 2 C7.28 2 12.56 2 18 2 C18 2.33 18 2.66 18 3 C15.58 3.39 13.17 3.76 10.75 4.12 C9.73 4.29 9.73 4.29 8.68 4.46 C4.83 5.03 2.27 5.28 -1 3 C-0.67 2.01 -0.34 1.02 0 0 Z " fill="#DD3F47" transform="translate(245,435)"/>
<path d="M0 0 C2 2 2 2 2.2 5.26 C2.17 6.53 2.15 7.81 2.12 9.12 C2.11 10.41 2.09 11.69 2.07 13.01 C2.05 14 2.02 14.98 2 16 C1.34 16 0.68 16 0 16 C-0.83 10.39 -1.07 5.58 0 0 Z " fill="#DC454B" transform="translate(151,145)"/>
<path d="M0 0 C1.21 0.03 1.21 0.03 2.44 0.06 C2.77 0.72 3.1 1.38 3.44 2.06 C-2.71 3.69 -8.2 4.26 -14.56 4.06 C-14.23 3.4 -13.9 2.74 -13.56 2.06 C-11.31 1.68 -11.31 1.68 -8.56 1.5 C-5.28 1.27 -3.03 0.07 0 0 Z " fill="#D54F56" transform="translate(238.5625,438.9375)"/>
<path d="M0 0 C0.66 0 1.32 0 2 0 C2 1.98 2 3.96 2 6 C2.66 6 3.32 6 4 6 C4 7.32 4 8.64 4 10 C4.66 10 5.32 10 6 10 C6.33 11.98 6.66 13.96 7 16 C2.72 12.16 0.14 8.47 -0.19 2.62 C-0.13 1.76 -0.06 0.89 0 0 Z " fill="#DB5C62" transform="translate(251,320)"/>
<path d="M0 0 C0.99 0.66 1.98 1.32 3 2 C2.03 2.62 1.06 3.24 0.06 3.88 C-3.03 5.66 -3.03 5.66 -4 8 C-5.32 8 -6.64 8 -8 8 C-8.33 8.99 -8.66 9.98 -9 11 C-9.66 10.67 -10.32 10.34 -11 10 C-7.51 6.4 -3.89 3.17 0 0 Z " fill="#DB4E55" transform="translate(276,238)"/>
<path d="M0 0 C0.99 0.33 1.98 0.66 3 1 C4.19 3.56 4.19 3.56 5 6 C4.67 6.33 4.34 6.66 4 7 C3.63 9.33 3.3 11.66 3 14 C0.81 10.72 0.65 9.17 0.38 5.31 C0.3 4.32 0.23 3.32 0.15 2.3 C0.1 1.54 0.05 0.78 0 0 Z " fill="#DB3F47" transform="translate(248,306)"/>
<path d="M0 0 C1.76 0.01 1.76 0.01 3.55 0.03 C4.44 0.04 5.33 0.05 6.25 0.06 C6.25 0.39 6.25 0.72 6.25 1.06 C5.67 1.1 5.09 1.14 4.49 1.18 C-0.58 1.6 -4.28 2.45 -8.75 5.06 C-9.74 5.56 -9.74 5.56 -10.75 6.06 C-10.75 4.41 -10.75 2.76 -10.75 1.06 C-7.14 -0.07 -3.77 -0.04 0 0 Z " fill="#E46871" transform="translate(310.75,260.9375)"/>
<path d="M0 0 C0.66 0.33 1.32 0.66 2 1 C1.74 2.61 1.47 4.21 1.19 5.81 C1.04 6.71 0.89 7.6 0.73 8.52 C-0.05 11.18 -0.89 12.26 -3 14 C-3.33 11.69 -3.66 9.38 -4 7 C-3.01 7 -2.02 7 -1 7 C-0.67 4.69 -0.34 2.38 0 0 Z " fill="#DB5258" transform="translate(245,195)"/>
<path d="M0 0 C0.66 0.99 1.32 1.98 2 3 C2.33 2.34 2.66 1.68 3 1 C3.33 1.99 3.66 2.98 4 4 C3.34 4.66 2.68 5.32 2 6 C-0.12 5.62 -0.12 5.62 -2 5 C-2 7.31 -2 9.62 -2 12 C-4 9 -4 9 -3.81 6 C-3 2.99 -2.4 1.88 0 0 Z " fill="#DE4A50" transform="translate(401,96)"/>
<path d="M0 0 C-1.02 1.46 -1.02 1.46 -3 3 C-5.63 3.38 -8.05 3.6 -10.69 3.69 C-11.39 3.72 -12.09 3.76 -12.81 3.79 C-14.54 3.87 -16.27 3.94 -18 4 C-12.4 0.27 -6.54 -0.27 0 0 Z " fill="#DA5B61" transform="translate(26,454)"/>
<path d="M0 0 C0.33 0 0.66 0 1 0 C1.6 5.72 0.4 8.7 -2.71 13.5 C-3.14 13.99 -3.56 14.49 -4 15 C-4.66 15 -5.32 15 -6 15 C-6 14.34 -6 13.68 -6 13 C-5.34 13 -4.68 13 -4 13 C-4 10.69 -4 8.38 -4 6 C-3.01 6 -2.02 6 -1 6 C-0.67 4.02 -0.34 2.04 0 0 Z " fill="#D84C51" transform="translate(419,342)"/>
<path d="M0 0 C0.33 0 0.66 0 1 0 C1.23 1.99 1.46 3.97 1.68 5.96 C1.97 8.19 1.97 8.19 3 11 C2.06 13.19 2.06 13.19 1 15 C0.01 15 -0.98 15 -2 15 C-1.34 10.05 -0.68 5.1 0 0 Z " fill="#DE444B" transform="translate(199,238)"/>
<path d="M0 0 C1.16 3.48 0.71 5.46 0 9 C0.99 9.33 1.98 9.66 3 10 C2.01 11.49 2.01 11.49 1 13 C-0.65 9.7 -2.3 6.4 -4 3 C-2.68 2.01 -1.36 1.02 0 0 Z " fill="#E14D53" transform="translate(409,122)"/>
<path d="M0 0 C1.32 0.66 2.64 1.32 4 2 C2.35 5.3 0.7 8.6 -1 12 C-1.66 10.68 -2.32 9.36 -3 8 C-2.34 8 -1.68 8 -1 8 C-1.21 7.24 -1.41 6.47 -1.62 5.69 C-2 3 -2 3 0 0 Z " fill="#DC5357" transform="translate(214,360)"/>
<path d="M0 0 C0 0.99 0 1.98 0 3 C-5.28 3 -10.56 3 -16 3 C-16 2.67 -16 2.34 -16 2 C-14.08 1.66 -12.17 1.33 -10.25 1 C-9.18 0.81 -8.12 0.63 -7.02 0.44 C-4 0 -4 0 0 0 Z " fill="#D44950" transform="translate(44,450)"/>
<path d="M0 0 C2.87 2.42 3.71 4.6 4.69 8.19 C4.94 9.09 5.19 9.99 5.45 10.92 C5.63 11.61 5.81 12.29 6 13 C4.02 12.34 2.04 11.68 0 11 C0.66 8.69 1.32 6.38 2 4 C1.34 4 0.68 4 0 4 C0 2.68 0 1.36 0 0 Z " fill="#E0595F" transform="translate(463,161)"/>
<path d="M0 0 C1.62 2.57 2.04 3.68 1.62 6.75 C1.42 7.49 1.21 8.24 1 9 C-1.17 8.49 -3 8 -5 7 C-5 6.34 -5 5.68 -5 5 C-3.68 5 -2.36 5 -1 5 C-1.33 4.01 -1.66 3.02 -2 2 C-1.34 2 -0.68 2 0 2 C0 1.34 0 0.68 0 0 Z " fill="#D8414A" transform="translate(249,158)"/>
<path d="M0 0 C0 0.33 0 0.66 0 1 C-2.41 1.53 -4.83 2.05 -7.25 2.56 C-8.27 2.79 -8.27 2.79 -9.32 3.02 C-12.82 3.75 -15.6 4.32 -19 3 C-18.34 3 -17.68 3 -17 3 C-17 2.34 -17 1.68 -17 1 C-11.28 0.17 -5.78 -0.12 0 0 Z " fill="#D95E62" transform="translate(132,460)"/>
<path d="M0 0 C3 2 3 2 3.81 5.5 C3.87 6.66 3.94 7.81 4 9 C3.34 9.66 2.68 10.32 2 11 C-1.08 5.71 -1.08 5.71 -0.69 2.12 C-0.35 1.07 -0.35 1.07 0 0 Z " fill="#DE434C" transform="translate(140,192)"/>
<path d="M0 0 C1.44 0.43 2.88 0.87 4.31 1.31 C5.11 1.56 5.91 1.8 6.74 2.05 C9.1 3.04 10.34 4.08 12 6 C10 6 8 6 6 6 C6 5.34 6 4.68 6 4 C4.68 4 3.36 4 2 4 C2 3.34 2 2.68 2 2 C1.01 1.67 0.02 1.34 -1 1 C-0.67 0.67 -0.34 0.34 0 0 Z " fill="#DE6066" transform="translate(301,51)"/>
<path d="M0 0 C0 0.66 0 1.32 0 2 C-0.99 2 -1.98 2 -3 2 C-2.04 4.33 -2.04 4.33 1 6 C-0.75 6.69 -0.75 6.69 -3 7 C-5.25 5.75 -5.25 5.75 -7 4 C-7 3.01 -7 2.02 -7 1 C-4.51 0.31 -2.62 0 0 0 Z " fill="#D4555B" transform="translate(7,458)"/>
<path d="M0 0 C0 0.66 0 1.32 0 2 C-1.27 2.67 -2.54 3.34 -3.81 4 C-4.52 4.37 -5.23 4.74 -5.96 5.12 C-8 6 -8 6 -11 6 C-11 5.34 -11 4.68 -11 4 C-11.66 3.67 -12.32 3.34 -13 3 C-10.69 3 -8.38 3 -6 3 C-6 2.34 -6 1.68 -6 1 C-3 0 -3 0 0 0 Z " fill="#DA515A" transform="translate(197,386)"/>
<path d="M0 0 C0.33 0 0.66 0 1 0 C1.33 2.97 1.66 5.94 2 9 C0.35 9.66 -1.3 10.32 -3 11 C-3 9.02 -3 7.04 -3 5 C-2.34 5 -1.68 5 -1 5 C-0.67 3.35 -0.34 1.7 0 0 Z " fill="#E6474F" transform="translate(153,254)"/>
<path d="M0 0 C1.34 3.77 0.72 6.86 0.06 10.75 C-0.13 11.92 -0.33 13.09 -0.53 14.3 C-0.68 15.19 -0.84 16.08 -1 17 C-1.66 16.67 -2.32 16.34 -3 16 C-2.86 15.01 -2.71 14.02 -2.56 13 C-2.16 10.21 -1.82 7.42 -1.5 4.62 C-1 1 -1 1 0 0 Z " fill="#D4454B" transform="translate(388,128)"/>
<path d="M0 0 C0.66 0 1.32 0 2 0 C1.67 4.62 1.34 9.24 1 14 C-1.11 10.84 -1.25 10.05 -1.19 6.44 C-1.18 5.65 -1.17 4.87 -1.17 4.06 C-1 2 -1 2 0 0 Z " fill="#D54C51" transform="translate(196,103)"/>
<path d="M0 0 C3.55 3.91 4.82 6.98 6 12 C5.01 12 4.02 12 3 12 C2.69 11.2 2.38 10.39 2.06 9.56 C1.24 7.11 1.24 7.11 0 6 C-0.04 4 -0.04 2 0 0 Z " fill="#E4464C" transform="translate(434,98)"/>
<path d="M0 0 C0.33 0 0.66 0 1 0 C1.21 5.19 0.59 9.13 -1 14 C-1.66 13.67 -2.32 13.34 -3 13 C-2.69 11.02 -2.38 9.04 -2.06 7.06 C-1.89 5.96 -1.71 4.86 -1.54 3.72 C-1 1 -1 1 0 0 Z " fill="#D4494E" transform="translate(48,13)"/>
<path d="M0 0 C1.46 -0.03 2.92 -0.05 4.38 -0.06 C5.19 -0.07 6 -0.09 6.84 -0.1 C9 0 9 0 11 1 C11 1.66 11 2.32 11 3 C7.04 2.67 3.08 2.34 -1 2 C-0.67 1.34 -0.34 0.68 0 0 Z " fill="#D4343D" transform="translate(311,259)"/>
<path d="M0 0 C0.56 0.25 1.11 0.5 1.69 0.75 C0.03 2.65 -0.86 3.65 -3.38 4.19 C-5.52 4.57 -5.52 4.57 -6.56 6.81 C-6.81 7.45 -7.06 8.09 -7.31 8.75 C-7.97 8.75 -8.63 8.75 -9.31 8.75 C-7.93 4.21 -5.37 -0.58 0 0 Z " fill="#D5595E" transform="translate(101.3125,191.25)"/>
<path d="M0 0 C0 1.65 0 3.3 0 5 C-2.97 4.67 -5.94 4.34 -9 4 C-8.67 3.01 -8.34 2.02 -8 1 C-5.18 -0.07 -3.09 0 0 0 Z " fill="#D83F44" transform="translate(227,178)"/>
<path d="M0 0 C0 0.99 0 1.98 0 3 C-1.79 3.22 -3.58 3.43 -5.38 3.62 C-6.37 3.74 -7.37 3.86 -8.4 3.98 C-9.26 3.98 -10.12 3.99 -11 4 C-11.66 3.34 -12.32 2.68 -13 2 C-11.4 1.66 -9.79 1.33 -8.19 1 C-7.29 0.81 -6.4 0.63 -5.48 0.44 C-3 0 -3 0 0 0 Z " fill="#DB454D" transform="translate(94,440)"/>
<path d="M0 0 C0.33 0 0.66 0 1 0 C1.05 1.58 1.09 3.17 1.12 4.75 C1.15 5.63 1.17 6.51 1.2 7.42 C0.99 10.11 0.37 11.7 -1 14 C-2.6 9.05 -1.28 4.87 0 0 Z " fill="#D7464E" transform="translate(324,150)"/>
<path d="M0 0 C0.99 0 1.98 0 3 0 C2.67 4.95 2.34 9.9 2 15 C1.67 15 1.34 15 1 15 C0.67 10.05 0.34 5.1 0 0 Z " fill="#DB6369" transform="translate(355,312)"/>
<path d="M0 0 C2 2 2 2 2.12 4.62 C2.08 5.41 2.04 6.19 2 7 C2.99 7.33 3.98 7.66 5 8 C4.67 8.66 4.34 9.32 4 10 C2.68 9.67 1.36 9.34 0 9 C0 6.03 0 3.06 0 0 Z " fill="#D14A50" transform="translate(149,160)"/>
<path d="M0 0 C4.29 0.33 8.58 0.66 13 1 C13 1.33 13 1.66 13 2 C11.21 2.19 9.42 2.38 7.62 2.56 C6.13 2.72 6.13 2.72 4.6 2.88 C2 3 2 3 0 2 C0 1.34 0 0.68 0 0 Z " fill="#DB6064" transform="translate(75,132)"/>
<path d="M0 0 C3.34 3.64 3.98 7.29 5 12 C4.34 12 3.68 12 3 12 C0.98 8.96 0.68 7.81 0.38 4.31 C0.3 3.5 0.23 2.7 0.15 1.86 C0.1 1.25 0.05 0.63 0 0 Z " fill="#D9686D" transform="translate(442,114)"/>
<path d="M0 0 C1.23 0.01 1.23 0.01 2.48 0.03 C3.42 0.04 3.42 0.04 4.38 0.06 C4.04 0.72 3.72 1.38 3.38 2.06 C1.09 2.48 1.09 2.48 -1.69 2.69 C-2.61 2.76 -3.53 2.84 -4.47 2.91 C-5.18 2.96 -5.89 3.01 -6.62 3.06 C-6.62 2.4 -6.62 1.74 -6.62 1.06 C-4.22 -0.14 -2.68 -0.04 0 0 Z " fill="#D6565A" transform="translate(192.625,446.9375)"/>
<path d="M0 0 C0.99 1.32 1.98 2.64 3 4 C2.67 4.66 2.34 5.32 2 6 C-0.06 6.62 -0.06 6.62 -2 7 C-2.66 6.01 -3.32 5.02 -4 4 C-2.68 2.68 -1.36 1.36 0 0 Z " fill="#E5505C" transform="translate(317,312)"/>
<path d="M0 0 C1.65 0 3.3 0 5 0 C4.34 2.64 3.68 5.28 3 8 C2.34 8 1.68 8 1 8 C1.02 7.05 1.04 6.1 1.06 5.12 C1.23 2.09 1.23 2.09 0 0 Z " fill="#DD434D" transform="translate(91,277)"/>
<path d="M0 0 C0.66 1.32 1.32 2.64 2 4 C3.65 4 5.3 4 7 4 C5.19 6 5.19 6 3 8 C2.01 8 1.02 8 0 8 C0 5.36 0 2.72 0 0 Z " fill="#E08083" transform="translate(211,161)"/>
<path d="M0 0 C1.65 0 3.3 0 5 0 C3.02 2.97 3.02 2.97 1 6 C0.34 5.34 -0.32 4.68 -1 4 C-0.62 1.88 -0.62 1.88 0 0 Z " fill="#E1525B" transform="translate(207,372)"/>
<path d="M0 0 C0.99 0.33 1.98 0.66 3 1 C3 2.65 3 4.3 3 6 C1.06 5.19 1.06 5.19 -1 4 C-1.33 3.01 -1.66 2.02 -2 1 C-1.34 0.67 -0.68 0.34 0 0 Z " fill="#DE4048" transform="translate(261,336)"/>
<path d="M0 0 C0.33 0.66 0.66 1.32 1 2 C0.67 2.66 0.34 3.32 0 4 C-0.66 4 -1.32 4 -2 4 C-2.66 5.98 -3.32 7.96 -4 10 C-4.66 10 -5.32 10 -6 10 C-4.79 5.57 -3.48 3.02 0 0 Z " fill="#D6535D" transform="translate(264,249)"/>
<path d="M0 0 C0.33 1.32 0.66 2.64 1 4 C0.34 4 -0.32 4 -1 4 C-1.33 4.66 -1.66 5.32 -2 6 C-4.48 5.01 -4.48 5.01 -7 4 C-4.83 1.5 -3.27 0.56 0 0 Z " fill="#DA4B54" transform="translate(285,234)"/>
<path d="M0 0 C7.75 1.88 7.75 1.88 10 3 C10 3.66 10 4.32 10 5 C8.68 5 7.36 5 6 5 C6 4.34 6 3.68 6 3 C3.69 2.67 1.38 2.34 -1 2 C-0.67 1.34 -0.34 0.68 0 0 Z " fill="#DB555E" transform="translate(356,232)"/>
<path d="M0 0 C0.33 1.32 0.66 2.64 1 4 C-2 6 -2 6 -5 6 C-5.33 5.01 -5.66 4.02 -6 3 C-4.02 2.67 -2.04 2.34 0 2 C0 1.34 0 0.68 0 0 Z " fill="#D74C54" transform="translate(322,164)"/>
<path d="M0 0 C2.96 3.36 3.92 6.69 5 11 C4.01 10.67 3.02 10.34 2 10 C0.48 6.4 0 3.95 0 0 Z " fill="#D55158" transform="translate(450,132)"/>
<path d="M0 0 C2.02 0.6 4.02 1.27 6 2 C6.33 2.66 6.66 3.32 7 4 C4.36 4 1.72 4 -1 4 C-0.67 2.68 -0.34 1.36 0 0 Z " fill="#E0565E" transform="translate(199,0)"/>
<path d="M0 0 C3.63 0.33 7.26 0.66 11 1 C11 1.99 11 2.98 11 4 C7.19 3.33 3.65 2.27 0 1 C0 0.67 0 0.34 0 0 Z " fill="#DC5659" transform="translate(27,476)"/>
<path d="M0 0 C0 1.65 0 3.3 0 5 C-2.97 3.88 -5.33 2.78 -8 1 C-2.25 0 -2.25 0 0 0 Z " fill="#DF5A5E" transform="translate(21,468)"/>
<path d="M0 0 C0.99 0 1.98 0 3 0 C2.67 1.32 2.34 2.64 2 4 C1.34 4 0.68 4 0 4 C-0.66 5.32 -1.32 6.64 -2 8 C-2.2 4.28 -2.15 3.23 0 0 Z " fill="#D5565C" transform="translate(155,366)"/>
<path d="M0 0 C0.33 0 0.66 0 1 0 C0.67 3.3 0.34 6.6 0 10 C-0.99 10 -1.98 10 -3 10 C-2.01 6.7 -1.02 3.4 0 0 Z " fill="#E0686D" transform="translate(35,321)"/>
<path d="M0 0 C0.99 0 1.98 0 3 0 C2.67 3.63 2.34 7.26 2 11 C1.67 11 1.34 11 1 11 C0.43 7.27 0 3.79 0 0 Z " fill="#E05659" transform="translate(225,320)"/>
<path d="M0 0 C0.33 0 0.66 0 1 0 C1 2.64 1 5.28 1 8 C0.01 8 -0.98 8 -2 8 C-1.12 1.12 -1.12 1.12 0 0 Z " fill="#DA444D" transform="translate(320,304)"/>
<path d="M0 0 C0.33 1.32 0.66 2.64 1 4 C1.66 4 2.32 4 3 4 C3 4.66 3 5.32 3 6 C1.68 6 0.36 6 -1 6 C-1 6.66 -1 7.32 -1 8 C-1.66 8 -2.32 8 -3 8 C-1.12 2.25 -1.12 2.25 0 0 Z " fill="#DF545C" transform="translate(58,271)"/>
<path d="M0 0 C0.33 0 0.66 0 1 0 C1.25 1.77 1.47 3.54 1.69 5.31 C1.82 6.3 1.94 7.28 2.07 8.3 C2 11 2 11 -1 14 C-0.67 9.38 -0.34 4.76 0 0 Z " fill="#D84E57" transform="translate(285,151)"/>
<path d="M0 0 C2.51 1.26 2.87 2.5 4 5 C3.01 5.99 2.02 6.98 1 8 C0.27 6.02 -0.39 4.02 -1 2 C-0.67 1.34 -0.34 0.68 0 0 Z " fill="#DF464B" transform="translate(412,135)"/>
<path d="M0 0 C-0.69 1.94 -0.69 1.94 -2 4 C-4.62 4.75 -4.62 4.75 -7 5 C-7.33 4.01 -7.66 3.02 -8 2 C-2.25 0 -2.25 0 0 0 Z " fill="#DB464F" transform="translate(237,213)"/>
<path d="M0 0 C0.33 0 0.66 0 1 0 C1 3.63 1 7.26 1 11 C-2 7 -2 7 -1.75 4.38 C-1 2 -1 2 0 0 Z " fill="#E04D53" transform="translate(327,128)"/>
<path d="M0 0 C1.5 1.38 1.5 1.38 3 3 C3 3.66 3 4.32 3 5 C2.34 5 1.68 5 1 5 C1 5.66 1 6.32 1 7 C0.34 7 -0.32 7 -1 7 C-1.33 7.66 -1.66 8.32 -2 9 C-2 7.68 -2 6.36 -2 5 C-1.34 5 -0.68 5 0 5 C0 3.35 0 1.7 0 0 Z " fill="#DF525A" transform="translate(440,94)"/>
<path d="M0 0 C2.97 0.5 2.97 0.5 6 1 C6 1.99 6 2.98 6 4 C6.66 4.33 7.32 4.66 8 5 C7.01 6.48 7.01 6.48 6 8 C5.63 7.13 5.63 7.13 5.25 6.25 C3.83 3.7 2.12 1.98 0 0 Z " fill="#DE686D" transform="translate(283,82)"/>
<path d="M0 0 C0.33 0 0.66 0 1 0 C1.29 7.43 1.29 7.43 -1 11 C-2 10 -2 10 -2.19 7.75 C-1.99 4.79 -1.22 2.68 0 0 Z " fill="#D5555D" transform="translate(203,67)"/>
<path d="M0 0 C-1.48 1.49 -1.48 1.49 -3 3 C-5.31 2.34 -7.62 1.68 -10 1 C-10 0.67 -10 0.34 -10 0 C-6.34 -0.75 -3.58 -1.24 0 0 Z " fill="#DC3D46" transform="translate(78,444)"/>
<path d="M0 0 C2.97 0 5.94 0 9 0 C8.01 1.49 8.01 1.49 7 3 C3.88 3.19 3.88 3.19 1 3 C0.67 2.01 0.34 1.02 0 0 Z " fill="#E73E45" transform="translate(456,415)"/>
<path d="M0 0 C1.11 3.33 0.84 5.62 0 9 C-2.36 6.64 -2.49 5.22 -3 2 C-2.01 2 -1.02 2 0 2 C0 1.34 0 0.68 0 0 Z " fill="#DC5259" transform="translate(429,167)"/>
<path d="M0 0 C-2 2 -2 2 -5.12 2.12 C-6.55 2.06 -6.55 2.06 -8 2 C-8.33 1.34 -8.66 0.68 -9 0 C-5.52 -1.16 -3.54 -0.71 0 0 Z " fill="#DE3D53" transform="translate(377,170)"/>
<path d="M0 0 C0.99 0 1.98 0 3 0 C2.67 2.64 2.34 5.28 2 8 C0 6 0 6 -0.12 2.88 C-0.08 1.93 -0.04 0.98 0 0 Z " fill="#DB4A51" transform="translate(259,86)"/>
<path d="M0 0 C0.33 0 0.66 0 1 0 C1.26 3.15 1.25 4.62 -0.5 7.31 C-1.24 8.15 -1.24 8.15 -2 9 C-2.66 8.67 -3.32 8.34 -4 8 C-2.68 5.36 -1.36 2.72 0 0 Z " fill="#DC6568" transform="translate(90,203)"/>
<path d="M0 0 C0.33 0 0.66 0 1 0 C1.12 5.75 1.12 5.75 0 8 C-0.66 8 -1.32 8 -2 8 C-2.2 4.28 -2.15 3.23 0 0 Z " fill="#D44C51" transform="translate(201,80)"/>
<path d="M0 0 C1.32 1.32 2.64 2.64 4 4 C3.34 5.32 2.68 6.64 2 8 C2 6.68 2 5.36 2 4 C1.01 3.67 0.02 3.34 -1 3 C-0.67 2.01 -0.34 1.02 0 0 Z " fill="#DA5A5C" transform="translate(321,65)"/>
<path d="M0 0 C1.12 3.75 1.12 3.75 0 6 C-2.56 6.62 -2.56 6.62 -5 7 C-5 5 -5 5 -2.5 2.38 C-1.68 1.59 -0.85 0.81 0 0 Z " fill="#D64454" transform="translate(436,54)"/>
<path d="M0 0 C0.66 0 1.32 0 2 0 C2.33 2.97 2.66 5.94 3 9 C-0.06 5.94 -0.57 5.09 -1 1 C-0.67 0.67 -0.34 0.34 0 0 Z " fill="#D45253" transform="translate(169,27)"/>
<path d="M0 0 C1.94 0.38 1.94 0.38 4 1 C4.33 1.66 4.66 2.32 5 3 C3.68 3 2.36 3 1 3 C1 3.66 1 4.32 1 5 C0.34 5 -0.32 5 -1 5 C-0.67 3.35 -0.34 1.7 0 0 Z " fill="#DE424D" transform="translate(366,7)"/>
</svg>
