<?xml version="1.0" standalone="no"?>
<!DOCTYPE svg PUBLIC "-//W3C//DTD SVG 20010904//EN"
 "http://www.w3.org/TR/2001/REC-SVG-20010904/DTD/svg10.dtd">
<svg version="1.0" xmlns="http://www.w3.org/2000/svg"
 width="500.000000pt" height="500.000000pt" viewBox="0 0 500.000000 500.000000"
 preserveAspectRatio="xMidYMid meet">

<g transform="translate(0.000000,500.000000) scale(0.100000,-0.100000)"
fill="#000000" stroke="none">
<path d="M2383 4990 c-12 -5 -84 -14 -160 -20 -199 -15 -432 -71 -638 -152
-562 -223 -1029 -647 -1303 -1185 -148 -290 -226 -556 -257 -878 -8 -86 -17
-160 -21 -166 -3 -5 -1 -78 6 -162 30 -404 76 -615 197 -900 69 -160 122 -258
228 -417 204 -304 447 -538 767 -736 274 -169 638 -302 918 -334 47 -5 123
-15 170 -21 121 -17 315 -22 339 -10 10 6 77 15 149 20 260 20 571 110 832
240 667 334 1152 953 1319 1683 18 77 36 193 41 263 5 69 14 135 20 146 13 23
7 238 -9 344 -5 39 -15 113 -20 165 -19 176 -93 436 -181 636 -232 526 -648
964 -1160 1220 -231 115 -475 195 -700 228 -249 37 -496 53 -537 36z m155
-335 l33 -104 116 -3 116 -3 -91 -64 c-51 -36 -92 -69 -92 -75 0 -5 14 -52 31
-103 17 -52 29 -96 26 -99 -3 -3 -42 22 -87 55 -45 34 -85 61 -89 61 -5 0 -48
-29 -97 -64 -49 -35 -90 -63 -91 -62 -2 1 13 51 33 110 20 59 35 108 33 110
-2 1 -44 31 -94 67 l-90 64 116 3 115 3 34 104 c19 58 36 105 39 105 4 0 21
-47 39 -105z m-10 -415 c42 -124 131 -250 233 -331 l40 -32 92 13 c162 21 281
71 377 157 28 25 53 43 56 41 2 -3 0 -18 -6 -34 -6 -16 -14 -74 -17 -129 -6
-108 10 -215 46 -310 18 -49 21 -51 97 -82 124 -51 211 -67 323 -59 53 3 112
9 131 13 l35 6 -40 -44 c-94 -102 -151 -215 -180 -355 -18 -86 -20 -82 79
-194 86 -99 187 -168 291 -199 22 -7 47 -15 55 -18 9 -3 -3 -11 -30 -20 -25
-8 -83 -33 -130 -55 -70 -34 -101 -57 -178 -134 l-93 -94 6 -47 c27 -191 77
-317 167 -417 l53 -59 -35 7 c-172 35 -366 19 -481 -40 -29 -14 -75 -118 -104
-229 -19 -74 -19 -204 -1 -275 8 -30 13 -56 12 -58 -2 -1 -23 15 -47 36 -124
106 -200 144 -364 177 l-75 16 -74 -61 c-41 -33 -96 -85 -123 -115 -50 -56
-115 -174 -128 -233 -9 -43 -19 -40 -34 11 -26 86 -95 201 -165 275 -113 119
-109 117 -224 97 -176 -32 -272 -74 -371 -164 -25 -22 -46 -40 -47 -38 -1 1 5
34 13 72 28 130 5 322 -50 434 -14 28 -114 73 -217 98 -67 15 -276 14 -330 -3
-23 -7 -22 -4 13 35 93 103 154 226 183 368 l15 72 -54 68 c-107 134 -190 196
-326 244 -41 14 -70 28 -65 31 5 3 39 15 75 27 115 38 229 116 314 215 l46 54
-16 96 c-27 168 -68 265 -154 358 -29 32 -51 61 -49 64 3 2 18 0 34 -7 16 -6
79 -13 140 -16 116 -6 207 7 308 46 45 17 50 22 77 87 54 126 72 215 66 323
-4 53 -9 111 -13 130 l-7 35 52 -45 c108 -94 248 -157 381 -174 l56 -7 89 75
c116 96 178 180 217 292 13 36 26 65 29 65 3 0 15 -27 27 -60z m-1588 -2786
c102 -92 202 -182 223 -200 l37 -34 -66 -80 c-37 -44 -71 -80 -76 -80 -9 0
-408 369 -436 403 -12 14 -6 25 49 87 35 38 68 70 74 70 5 0 93 -75 195 -166z
m3390 -16 c0 -7 -406 -388 -413 -388 -3 0 -35 36 -72 80 -56 67 -65 83 -55 95
7 8 65 61 128 118 64 56 152 135 196 175 l81 73 67 -73 c38 -40 68 -76 68 -80z
m-391 -441 l41 -49 -24 -29 c-96 -114 -335 -259 -561 -341 -537 -195 -1089
-216 -1630 -64 -291 82 -576 230 -717 372 -62 62 -62 61 -9 122 l29 34 48 -37
c26 -20 76 -53 111 -73 50 -29 63 -41 63 -60 0 -44 30 -89 75 -113 36 -19 49
-21 82 -13 31 7 38 14 37 32 0 16 4 21 13 17 8 -3 19 -5 25 -5 10 0 7 -32 -7
-76 -5 -15 0 -23 20 -32 38 -17 41 -16 54 28 8 28 17 40 31 40 28 0 31 -13 15
-59 l-14 -41 32 -14 c40 -16 43 -15 51 29 8 43 14 46 57 36 19 -5 67 -14 107
-21 78 -14 80 -17 62 -80 -11 -39 -2 -50 42 -50 25 0 28 4 34 51 6 45 9 50 28
45 12 -3 33 -6 49 -6 34 0 34 -15 2 -61 -13 -20 -21 -39 -18 -43 13 -13 74 -6
79 9 4 10 20 15 45 15 32 0 42 -5 50 -24 8 -16 22 -26 43 -29 17 -2 33 -3 35
-1 3 2 -1 27 -7 56 -7 28 -11 52 -9 54 1 2 65 0 140 -4 103 -6 141 -12 153
-24 14 -14 14 -17 -1 -32 -22 -21 -31 -20 -55 7 -15 18 -28 22 -50 19 -35 -5
-38 -20 -11 -53 14 -18 31 -23 79 -27 58 -4 63 -3 92 26 22 23 30 40 30 67 0
58 24 37 34 -29 l9 -58 39 6 c22 4 66 9 99 13 57 6 60 7 57 32 -3 28 -5 28
-81 17 -40 -6 -46 -5 -52 13 -9 30 2 41 38 41 18 0 65 9 106 20 100 27 121 26
121 -3 0 -13 -6 -29 -12 -35 -10 -10 -16 -8 -28 8 -14 18 -19 19 -48 9 -17 -6
-32 -14 -32 -18 0 -4 13 -20 29 -36 26 -24 35 -27 68 -22 63 11 88 36 91 94 2
41 7 52 23 56 26 7 33 -12 25 -68 -5 -28 -3 -45 3 -45 24 0 60 24 63 43 2 14
16 24 45 32 39 12 43 11 57 -9 11 -17 17 -19 27 -8 7 6 21 12 31 12 24 0 22 8
-12 54 -36 48 -37 52 -6 60 13 3 30 8 38 11 9 4 22 -10 37 -40 24 -48 33 -52
68 -32 l22 12 -20 44 c-10 24 -19 46 -19 50 0 8 71 41 88 41 5 0 20 -16 32
-35 24 -40 31 -41 65 -19 l24 16 -26 39 c-14 22 -24 41 -22 43 2 1 31 19 64
39 34 20 81 52 105 71 25 20 50 35 56 34 6 -2 30 -25 53 -51z m-2532 -162 c29
-12 34 -18 24 -28 -9 -9 -17 -8 -38 3 -24 14 -43 40 -29 40 4 0 23 -7 43 -15z
m1871 -111 c-8 -9 -24 -14 -34 -11 -17 3 -16 5 6 15 36 16 47 14 28 -4z
m-1058 -104 c8 -5 12 -11 9 -14 -7 -8 -49 5 -49 15 0 12 21 11 40 -1z"/>
<path d="M2485 4103 c-18 -98 -112 -224 -239 -322 l-54 -42 -91 20 c-107 24
-204 71 -279 137 -29 26 -55 45 -57 42 -2 -2 1 -24 6 -48 6 -25 9 -92 6 -150
-3 -88 -9 -119 -37 -190 -18 -47 -37 -90 -42 -97 -5 -6 -48 -24 -96 -39 -75
-24 -102 -28 -197 -27 -60 0 -123 6 -139 12 -16 6 -31 10 -33 7 -3 -2 17 -31
43 -63 59 -72 99 -156 118 -249 27 -126 25 -145 -20 -198 -72 -87 -224 -186
-311 -202 -18 -3 -33 -10 -33 -14 0 -4 24 -15 53 -25 59 -19 124 -54 180 -98
56 -43 166 -183 161 -204 -36 -167 -74 -254 -150 -343 -48 -57 -56 -77 -21
-58 14 8 63 12 137 12 105 0 124 -3 210 -33 52 -18 102 -37 111 -42 21 -11 56
-123 69 -220 10 -72 4 -151 -17 -239 -6 -24 -5 -24 33 10 99 89 228 143 370
156 l74 7 78 -79 c79 -80 136 -172 163 -261 7 -24 15 -43 19 -43 4 0 14 26 23
57 24 85 87 174 186 259 l86 75 50 -5 c114 -13 237 -67 341 -152 47 -38 54
-41 49 -22 -14 56 -21 175 -13 232 4 33 24 102 44 153 l35 92 62 19 c143 46
241 54 350 28 36 -8 57 -10 57 -3 0 5 -17 29 -38 52 -79 84 -124 196 -141 345
l-8 65 76 75 c79 80 168 136 259 165 53 18 69 35 31 35 -12 0 -56 16 -98 37
-80 38 -183 127 -246 213 l-33 46 19 84 c24 104 65 188 131 269 27 34 48 64
45 67 -2 2 -17 -1 -33 -7 -47 -19 -209 -14 -284 9 -137 42 -164 56 -182 92
-42 87 -61 274 -38 390 9 49 4 65 -11 37 -13 -21 -109 -86 -173 -116 -49 -22
-136 -43 -228 -55 -43 -5 -50 -3 -94 33 -97 81 -179 203 -205 305 -14 56 -24
58 -34 9z m34 -135 c24 -80 85 -183 152 -253 l67 -69 93 17 c107 20 231 76
299 135 l43 36 -7 -44 c-17 -109 -18 -178 -3 -257 25 -130 27 -133 137 -171
90 -31 101 -32 215 -29 66 2 129 7 139 12 11 5 -7 -26 -41 -71 -67 -87 -92
-134 -116 -209 -32 -104 -32 -106 18 -167 76 -93 186 -168 310 -213 19 -7 19
-8 -5 -17 -109 -45 -195 -93 -250 -140 -92 -78 -96 -89 -75 -183 28 -129 75
-223 149 -304 l31 -34 -30 7 c-16 4 -82 9 -145 12 -100 5 -125 2 -195 -18
l-80 -23 -30 -85 c-28 -80 -30 -94 -30 -231 l0 -146 -50 44 c-60 52 -161 105
-257 134 -83 24 -85 23 -189 -80 -69 -69 -130 -163 -150 -231 -14 -47 -24 -51
-34 -13 -21 85 -125 247 -192 300 -36 29 -41 30 -95 22 -127 -20 -271 -84
-332 -148 -17 -17 -33 -31 -36 -31 -4 0 -1 30 6 67 22 114 18 176 -23 341 -6
27 -23 36 -103 62 -130 41 -237 49 -355 24 l-30 -7 31 34 c76 81 139 201 164
306 l12 53 -52 61 c-71 81 -157 145 -248 185 l-76 33 30 12 c123 49 201 96
267 159 l72 68 -23 98 c-25 113 -68 204 -132 283 -29 36 -37 52 -25 47 29 -12
183 -24 240 -19 68 6 173 33 185 48 19 23 58 149 70 226 9 58 10 93 1 141 -6
36 -11 70 -11 76 0 7 28 -10 63 -37 34 -26 82 -59 107 -71 57 -29 177 -70 205
-70 25 0 117 76 174 145 43 51 111 179 111 209 0 31 17 16 29 -26z"/>
<path d="M2365 3416 c-148 -30 -267 -92 -375 -193 -153 -144 -226 -303 -237
-518 -5 -92 -2 -124 16 -195 89 -354 373 -579 731 -579 173 0 318 47 453 148
127 95 235 254 267 391 7 30 16 68 21 84 14 44 11 185 -5 268 -49 253 -229
466 -471 557 -128 48 -276 62 -400 37z m380 -292 c132 -96 256 -186 275 -199
19 -13 46 -32 58 -43 l24 -18 -42 -130 c-24 -71 -44 -132 -47 -136 -2 -4 -70
40 -151 97 l-148 104 0 53 c0 43 -7 66 -38 121 -23 40 -39 83 -40 105 -1 28
-12 51 -40 85 -21 26 -44 47 -51 47 -8 0 -18 -26 -25 -65 -7 -36 -16 -65 -20
-65 -5 0 -12 24 -15 53 -4 30 -11 60 -15 67 -12 19 -38 5 -61 -35 -12 -19 -25
-35 -30 -35 -5 0 -9 -17 -9 -37 0 -23 -15 -65 -40 -114 -31 -60 -40 -89 -40
-128 l0 -50 -67 -48 c-37 -26 -77 -55 -89 -63 -12 -8 -49 -34 -82 -57 -34 -24
-63 -40 -65 -35 -16 25 -86 267 -80 272 5 4 125 92 268 196 143 105 274 199
290 212 17 12 32 21 35 22 3 0 113 -79 245 -176z m-273 -11 c13 -62 15 -98 8
-173 -18 -211 -28 -232 -172 -353 -62 -52 -142 -120 -178 -151 -36 -30 -68
-52 -72 -48 -8 8 -58 162 -58 178 0 6 60 53 133 104 181 128 177 124 171 174
-5 35 0 53 35 118 23 43 41 91 41 107 0 28 53 121 68 121 4 0 15 -35 24 -77z
m116 38 c21 -26 32 -51 32 -71 0 -29 10 -53 59 -145 16 -29 21 -54 19 -90 l-2
-50 149 -107 c82 -59 151 -112 153 -117 5 -14 -52 -191 -60 -188 -3 1 -85 70
-182 152 -157 134 -178 155 -195 200 -24 63 -41 173 -41 261 0 71 19 194 30
194 4 0 21 -18 38 -39z m-71 -303 c20 -143 27 -154 232 -327 101 -86 181 -161
181 -170 0 -9 -13 -55 -28 -101 l-29 -85 -373 0 -373 0 -29 85 c-15 46 -28 91
-28 100 0 8 83 86 184 172 172 147 186 161 205 213 12 30 24 87 27 125 4 39
10 70 13 70 4 0 12 -37 18 -82z"/>
<path d="M2428 2519 c-24 -12 -43 -32 -52 -53 -13 -32 -16 -34 -58 -29 -55 5
-102 -22 -123 -74 -20 -47 -12 -84 27 -129 26 -30 36 -34 79 -34 40 0 55 5 83
31 31 26 38 29 57 18 14 -7 45 -9 78 -6 49 4 61 1 86 -19 22 -18 43 -24 77
-24 39 0 52 5 82 34 31 29 36 39 36 80 0 27 -7 58 -17 73 -18 26 -69 53 -100
53 -10 -1 0 -7 22 -15 74 -26 100 -79 74 -154 -20 -58 -111 -81 -162 -41 l-25
20 34 51 c41 62 44 105 9 164 -42 72 -130 95 -207 54z m158 -14 c28 -18 63
-86 64 -123 0 -30 -46 -102 -66 -102 -14 0 -15 7 -10 42 4 24 16 52 26 64 25
26 26 38 2 25 -24 -13 -46 -82 -39 -120 6 -27 3 -32 -19 -37 -27 -7 -102 0
-112 11 -3 3 -6 22 -5 43 0 26 -1 29 -4 10 -2 -16 -8 -28 -13 -28 -9 0 -50 80
-50 98 0 22 25 12 42 -15 10 -16 18 -21 18 -14 0 8 -12 27 -26 42 l-27 28 19
32 c39 66 135 87 200 44z m-234 -122 c4 -23 17 -60 30 -82 l23 -40 -23 -23
c-18 -18 -34 -23 -78 -23 -50 0 -58 3 -77 29 -30 40 -35 65 -23 104 14 49 60
84 105 80 33 -3 36 -6 43 -45z"/>
</g>
</svg>
